<svg width="249" height="136" viewBox="0 0 249 136" fill="none" xmlns="http://www.w3.org/2000/svg">
<path d="M57.4579 115.815C56.4019 115.815 55.2499 115.527 54.0019 114.951C52.8499 114.279 51.6019 113.559 50.2579 112.791L3.45787 85.2874C2.30587 84.5194 1.44187 83.5594 0.865871 82.4074C0.289871 81.1594 0.00187078 79.9114 0.00187078 78.6634C0.00187078 77.3194 0.289871 76.0714 0.865871 74.9194C1.44187 73.6714 2.30587 72.7114 3.45787 72.0394L50.2579 45.1114C51.5059 44.3434 52.6579 43.7674 53.7139 43.3834C54.8659 42.9034 55.9219 42.6634 56.8819 42.6634C58.8019 42.6634 60.5779 43.6234 62.2099 45.5434C63.9379 47.3674 64.8019 49.2874 64.8019 51.3034C64.8019 52.2634 64.5139 53.2234 63.9379 54.1834C63.4579 55.0474 62.6899 55.8154 61.6339 56.4874L11.6659 85.4314L10.6579 71.0314L61.4899 101.415C62.6419 102.087 63.4579 102.951 63.9379 104.007C64.4179 104.967 64.6579 105.975 64.6579 107.031C64.6579 109.335 63.8419 111.399 62.2099 113.223C60.6739 114.951 59.0899 115.815 57.4579 115.815ZM95.6741 135.111C94.0421 135.111 92.3621 134.439 90.6341 133.095C88.9061 131.751 88.0421 130.023 88.0421 127.911C88.0421 126.759 88.3301 125.607 88.9061 124.455L147.37 4.79143C148.042 3.44743 148.954 2.39143 150.106 1.62342C151.258 0.855422 152.458 0.471421 153.706 0.471421C155.338 0.471421 156.97 1.14342 158.602 2.48742C160.33 3.73542 161.194 5.46342 161.194 7.67142C161.194 8.82343 160.906 9.97542 160.33 11.1274L102.01 130.791C101.338 132.135 100.426 133.191 99.2741 133.959C98.2181 134.727 97.0181 135.111 95.6741 135.111ZM192.062 115.815C190.142 115.815 188.318 114.903 186.59 113.079C184.958 111.159 184.142 109.191 184.142 107.175C184.142 106.119 184.382 105.159 184.862 104.295C185.438 103.431 186.254 102.663 187.31 101.991L237.278 73.0474L238.286 87.4474L187.454 57.0634C186.302 56.3914 185.486 55.5754 185.006 54.6154C184.526 53.5594 184.286 52.5034 184.286 51.4474C184.286 49.1434 185.102 47.1274 186.734 45.3994C188.366 43.5754 189.95 42.6634 191.486 42.6634C192.542 42.6634 193.646 42.9994 194.798 43.6714C196.046 44.2474 197.342 44.9194 198.686 45.6874L245.486 73.1914C246.638 73.8634 247.502 74.8234 248.078 76.0714C248.654 77.2234 248.942 78.4714 248.942 79.8154C248.942 81.1594 248.654 82.4554 248.078 83.7034C247.502 84.8554 246.638 85.7674 245.486 86.4394L198.686 113.367C197.438 114.039 196.286 114.615 195.23 115.095C194.174 115.575 193.118 115.815 192.062 115.815Z" fill="black"/>
</svg>
