<?xml version="1.0" encoding="utf-8"?>
<!-- Generator: Adobe Illustrator 24.0.0, SVG Export Plug-In . SVG Version: 6.00 Build 0)  -->
<svg version="1.1" id="Ebene_1" xmlns="http://www.w3.org/2000/svg" xmlns:xlink="http://www.w3.org/1999/xlink" x="0px" y="0px"
	 viewBox="0 0 264.1 156.6" style="enable-background:new 0 0 264.1 156.6;" xml:space="preserve">
<style type="text/css">
	.st0{fill:#1D1D1B;}
</style>
<title>ctck</title>
<path class="st0" d="M83.7,58.3c-2.2-0.1-4.3,0.7-5.8,2.3c-1.4,1.5-2.1,3.4-2,5.4c0,1,0.1,2.1,0.4,3.1c0.3,0.9,0.6,1.8,1.2,2.6
	c1.9,0.1,3.7,0.6,5.4,1.6c1.2,0.7,2,1.9,2,3.3c0,0.7-0.3,1.4-0.8,1.9c-0.6,0.5-1.3,0.7-2.1,0.7c-1.3,0-2.6-0.3-3.7-1.1
	c-1.2-0.9-2.3-1.9-3.3-3.1c-0.9,0.2-1.8,0.6-2.5,1.1c-0.8,0.6-1.4,1.4-2,2.3c-0.6,1-1,2.1-1.3,3.2c-0.3,1.3-0.5,2.6-0.5,3.9
	c0,1.3,0.2,2.6,0.6,3.9c0.3,1.2,0.9,2.3,1.6,3.2c0.7,0.9,1.6,1.7,2.6,2.2c1,0.6,2.2,0.9,3.4,0.8c1,0,1.9-0.1,2.8-0.3
	c0.7-0.2,1.5-0.4,2.1-0.8c0.6-0.3,1.2-0.7,1.7-1.2c0.5-0.5,1-1,1.5-1.4l2,1.7c-0.6,1.1-1.3,2.1-2.2,3c-0.9,0.9-1.8,1.8-2.9,2.4
	c-1.2,0.7-2.4,1.3-3.7,1.8c-1.5,0.5-3,0.7-4.5,0.7c-1.5,0-3-0.3-4.5-0.7c-1.7-0.5-3.2-1.4-4.5-2.5c-1.4-1.3-2.4-2.8-3.1-4.6
	c-1.5-4-1.5-8.4,0.1-12.4c0.7-1.9,1.8-3.6,3.3-5c1.2-1.2,2.7-2.3,4.3-3c1.2-0.6,2.5-1,3.8-1.3c-0.5-0.8-0.9-1.6-1.2-2.5
	c-0.5-1.2-0.7-2.4-0.7-3.6c0-1.6,0.4-3.1,1.1-4.5c0.7-1.3,1.7-2.5,2.9-3.4c1.3-0.9,2.7-1.7,4.3-2.1c1.6-0.5,3.3-0.7,5-0.7
	c2.1,0,4.1,0.3,6.1,1c1.7,0.6,3.3,1.6,4.6,2.8c1.3,1.2,2.3,2.7,3,4.4c0.7,1.8,1.1,3.7,1,5.7v3.5h7.8v3.1h-7.8v17.1
	c-0.1,1.2,0.2,2.4,0.8,3.4c0.6,0.9,1.6,1.3,2.7,1.2c0.7,0,1.5-0.2,2.1-0.6c0.6-0.5,1.2-1,1.8-1.5l1.8,1.8c-0.3,0.5-0.7,1-1.1,1.4
	c-0.5,0.5-1.1,1-1.7,1.4c-1.8,1.1-3.9,1.7-6,1.6c-1,0-2.1-0.1-3.1-0.4c-1-0.3-2-0.7-2.8-1.4c-0.9-0.7-1.6-1.6-2.1-2.6
	c-0.6-1.3-0.9-2.7-0.8-4.1V75.7h-3.1V73c1.3-0.7,2.4-1.7,3.3-2.8c0.7-1.1,1-2.4,0.9-3.6c0.1-2.2-0.7-4.3-2.2-5.9
	C88.2,59,86,58.1,83.7,58.3z"/>
<path class="st0" d="M171.7,67.9c0.2-2.6-0.6-5.2-2.1-7.2c-1.5-1.7-3.7-2.5-6-2.4c-2.2-0.1-4.3,0.7-5.7,2.3c-1.3,1.5-2,3.4-2,5.3
	c0,1,0.2,2.1,0.5,3.1c0.3,0.9,0.6,1.8,1.1,2.6c1.9,0.1,3.7,0.6,5.4,1.6c1.2,0.6,2,1.9,2,3.3c0,0.7-0.3,1.4-0.8,1.9
	c-0.6,0.5-1.3,0.7-2.1,0.7c-1.3,0-2.6-0.3-3.7-1.1c-1.2-0.9-2.3-1.9-3.3-3.1c-1.9,0.4-3.5,1.6-4.5,3.4c-1.2,2.2-1.8,4.6-1.8,7.1
	c0,1.4,0.2,2.7,0.5,4c0.3,1.2,0.9,2.3,1.6,3.3c0.7,0.9,1.6,1.6,2.6,2.2c1,0.5,2.2,0.8,3.4,0.8c1,0,1.9-0.1,2.8-0.3
	c0.7-0.2,1.5-0.5,2.1-0.8c0.6-0.3,1.2-0.7,1.7-1.2c0.5-0.5,1-1,1.5-1.4l2,1.7c-0.6,1.1-1.3,2.1-2.1,3c-0.9,1-1.8,1.8-2.9,2.5
	c-1.2,0.7-2.4,1.3-3.7,1.8c-1.5,0.5-3,0.7-4.5,0.7c-1.5,0-3-0.3-4.5-0.7c-1.7-0.5-3.2-1.4-4.5-2.5c-1.4-1.3-2.4-2.8-3.1-4.6
	c-0.8-2-1.1-4.1-1.1-6.3c0-2.1,0.4-4.2,1.2-6.1c0.7-1.9,1.8-3.6,3.2-5c1.2-1.2,2.7-2.3,4.3-3c1.2-0.6,2.5-1,3.8-1.3
	c-0.5-0.8-0.9-1.6-1.2-2.5c-1-2.6-0.9-5.6,0.4-8.1c0.7-1.3,1.7-2.5,2.8-3.4c1.3-0.9,2.7-1.7,4.3-2.1c1.6-0.5,3.4-0.8,5.1-0.7
	c1.4,0,2.9,0.2,4.3,0.5c1.6,0.3,3.1,0.8,4.6,1.5l4.6-1.9h1.7v29.8l8.1-6.8c0.5-0.4,1-0.8,1.3-1.3c0.1-0.2,0.2-0.5,0.2-0.8
	c0-0.3-0.1-0.6-0.3-0.8c-0.4-0.3-0.9-0.5-1.4-0.5l-1.7-0.2v-2h15.1v2.2l-2.2,0.4c-0.7,0.1-1.5,0.4-2.2,0.7c-0.8,0.3-1.5,0.7-2.3,1.1
	c-0.7,0.4-1.5,0.9-2.1,1.4c-0.6,0.4-1.2,0.9-1.8,1.4l-2.1,1.9l9.7,14.2c0.6,0.8,1.3,1.5,2.2,1.9c1,0.5,2.1,0.8,3.2,0.9v2.1h-16.8
	v-2.1h1.1c0.8,0,1.2-0.4,1.2-1.1c0-0.5-0.2-0.9-0.5-1.3c-0.3-0.5-0.6-1-0.9-1.4l-5-8.3l-2.8,2.4V96c-0.1,0.7,0.1,1.3,0.4,2
	c0.4,0.5,1,0.7,1.6,0.7h1v2.2h-14.5v-2.1h1.4c0.6,0,1.2-0.2,1.7-0.7c0.3-0.6,0.4-1.3,0.4-2V67.9z"/>
</svg>
