<svg xmlns="http://www.w3.org/2000/svg" viewBox="0 0 85.25 115.54"><defs><style>.cls-1{isolation:isolate;}.cls-2{fill:#fff;}.cls-3{fill:#1d1d1b;}.cls-4{fill:#eb5857;mix-blend-mode:multiply;}</style></defs><title>Ligatur1</title><g class="cls-1"><g id="Ebene_1" data-name="Ebene 1"><rect class="cls-2" width="85.25" height="115.54"/><path class="cls-3" d="M52.09,26.51l-1,2.26a6.93,6.93,0,0,0-3-.66,2.64,2.64,0,0,0-1.79.46,2,2,0,0,0-.49,1.5v1.44h7.81V45.56h-3.4V34H45.8V45.56H42.4V34H40.19V31.51H42.4V30a4.25,4.25,0,0,1,1.33-3.28,5.8,5.8,0,0,1,4.06-1.24A9.73,9.73,0,0,1,52.09,26.51Z" transform="translate(-6.72 -8.26)"/><path class="cls-3" d="M53.91,57.55A2.1,2.1,0,0,0,53.48,59v1.49h3.37L56.48,63h-3V74.56h-3.4V63H45.8V74.56H42.4V63H40.19V60.51H42.4V59.23A4.18,4.18,0,0,1,43.7,56a5.3,5.3,0,0,1,3.77-1.22,9.25,9.25,0,0,1,2,.21,10.94,10.94,0,0,1,2,.66A5.11,5.11,0,0,1,55,54.5a8.59,8.59,0,0,1,3.64.83l-1,2.28a5.48,5.48,0,0,0-2.31-.53A1.94,1.94,0,0,0,53.91,57.55ZM50.08,59a4.41,4.41,0,0,1,.16-1.25,7.86,7.86,0,0,0-2.45-.43,2.23,2.23,0,0,0-1.55.43,1.86,1.86,0,0,0-.44,1.41v1.38h4.28Z" transform="translate(-6.72 -8.26)"/><path class="cls-3" d="M57.78,102.9a5.41,5.41,0,0,1-1.66.79,6.61,6.61,0,0,1-1.87.27,4.08,4.08,0,0,1-3.15-1.17A4.88,4.88,0,0,1,50,99.36V92H45.8v11.61H42.4V92H40.19V89.51H42.4V88a4.26,4.26,0,0,1,1.29-3.23,5.24,5.24,0,0,1,3.76-1.24,8.38,8.38,0,0,1,2.92.51l3.05-.35v5.85h3.27L56.35,92H53.42v7.33a2.39,2.39,0,0,0,.36,1.49,1.36,1.36,0,0,0,1.13.45,3.5,3.5,0,0,0,1.67-.5ZM50,86.35a7.51,7.51,0,0,0-2.2-.32,2.18,2.18,0,0,0-1.58.44,1.94,1.94,0,0,0-.44,1.44v1.6H50Z" transform="translate(-6.72 -8.26)"/><circle class="cls-4" cx="45.63" cy="23.37" r="8.92"/><circle class="cls-4" cx="45.63" cy="52.38" r="8.92"/><circle class="cls-4" cx="45.63" cy="81.37" r="8.92"/></g></g></svg>