<?xml version="1.0" encoding="utf-8"?>
<!-- Generator: Adobe Illustrator 24.0.0, SVG Export Plug-In . SVG Version: 6.00 Build 0)  -->
<svg version="1.1" id="Capa_1" xmlns="http://www.w3.org/2000/svg" xmlns:xlink="http://www.w3.org/1999/xlink" x="0px" y="0px"
	 viewBox="0 0 876 682" style="enable-background:new 0 0 876 682;" xml:space="preserve">
<g>
	<g>
		<path d="M353.5,469.6c-3.9-3.9-10.3-3.9-14.3,0l-52.3,52.3c-3.9,3.9-3.9,10.3,0,14.3c2,2,4.5,3,7.1,3c2.6,0,5.2-1,7.1-3l52.3-52.3
			C357.5,479.9,357.5,473.5,353.5,469.6z"/>
	</g>
</g>
<g>
	<g>
		<path d="M365.1,447.9c-13,0-13,20.2,0,20.2C378,468.1,378.1,447.9,365.1,447.9z"/>
	</g>
</g>
<g>
	<g>
		<path d="M691,194.2L584.8,88c-1.9-1.9-4.5-3-7.1-3c-2.7,0-5.2,1.1-7.1,3l-70.1,70.1l0,0c0,0,0,0,0,0l-70.1,70.1c0,0,0,0,0,0
			c0,0,0,0,0,0L220,438.5c0,0,0,0,0,0L185,473.6c-1.9,1.9-3,4.5-3,7.1s1.1,5.2,3,7.1L291.2,594c2,2,4.5,3,7.1,3c2.6,0,5.2-1,7.1-3
			L691,208.4c1.9-1.9,3-4.5,3-7.1C694,198.6,692.9,196.1,691,194.2z M298.3,572.7l-92-92l20.8-20.8l17.7,17.7c2,2,4.5,3,7.1,3
			c2.6,0,5.2-1,7.1-3c3.9-3.9,3.9-10.3,0-14.3l-17.7-17.7l20.8-20.8l32.2,32.2c2,2,4.5,3,7.1,3c2.6,0,5.2-1,7.1-3
			c3.9-3.9,3.9-10.3,0-14.3l-32.2-32.2l20.8-20.8l17.7,17.7c2,2,4.5,3,7.1,3s5.2-1,7.1-3c3.9-3.9,3.9-10.3,0-14.3l-17.7-17.7
			l20.8-20.8l32.2,32.2c2,2,4.5,3,7.1,3c2.6,0,5.2-1,7.1-3c3.9-3.9,3.9-10.3,0-14.3l-32.2-32.2l20.8-20.8l17.7,17.7c2,2,4.5,3,7.1,3
			c2.6,0,5.2-1,7.1-3c3.9-3.9,3.9-10.3,0-14.3l-17.7-17.6l20.8-20.8l32.2,32.2c2,2,4.5,3,7.1,3s5.2-1,7.1-3c3.9-3.9,3.9-10.3,0-14.3
			l-32.2-32.2l20.8-20.8l17.7,17.7c2,2,4.5,3,7.1,3s5.2-1,7.1-3c3.9-3.9,3.9-10.3,0-14.3l-17.7-17.7l20.8-20.8l32.2,32.2
			c2,2,4.5,3,7.1,3c2.6,0,5.2-1,7.1-3c3.9-3.9,3.9-10.3,0-14.3l-32.2-32.2l20.8-20.8l17.7,17.7c2,2,4.5,3,7.1,3s5.2-1,7.1-3
			c3.9-3.9,3.9-10.3,0-14.3l-17.7-17.7l20.8-20.8l32.2,32.2c2,2,4.5,3,7.1,3s5.2-1,7.1-3c3.9-3.9,3.9-10.3,0-14.3l-32.2-32.2
			l20.8-20.8l92,92L298.3,572.7z"/>
	</g>
</g>
</svg>
