<?xml version="1.0" encoding="utf-8"?>
<!-- Generator: Adobe Illustrator 24.0.0, SVG Export Plug-In . SVG Version: 6.00 Build 0)  -->
<svg version="1.1" id="Ebene_1" xmlns="http://www.w3.org/2000/svg" xmlns:xlink="http://www.w3.org/1999/xlink" x="0px" y="0px"
	 viewBox="0 0 172.3 115.5" style="enable-background:new 0 0 172.3 115.5;" xml:space="preserve">
<style type="text/css">
	.st0{fill:#1D1D1B;}
</style>
<path class="st0" d="M91.6,26.6h2v38.1l10.4-8.6c0.6-0.4,1.2-1,1.8-1.8c0.2-0.4,0.2-0.6,0.2-1c0-0.4-0.2-0.8-0.4-1
	c-0.6-0.4-1.2-0.6-1.8-0.6l-2.2-0.2v-2.7h19.2v2.9l-2.7,0.4c-1,0.2-2,0.4-2.7,0.8c-1,0.4-2,1-2.9,1.4c-1,0.6-2,1.2-2.7,1.8
	c-0.8,0.6-1.6,1.2-2.4,2l-2.7,2.4l12.4,18.3c0.8,1,1.8,2,2.7,2.6c1.4,0.6,2.7,1,4.1,1.2V85h-21.6v-2.9h1.4c1,0,1.6-0.6,1.6-1.4
	c0-0.6-0.2-1.2-0.6-1.8c-0.4-0.6-0.8-1.2-1.2-1.8l-6.5-10.6l-3.1,3.1V79c0,0.8,0,1.8,0.4,2.6c0.6,0.6,1.4,1,2.2,0.8h1.2V85H78.8
	v-2.7h1.8c0.8,0,1.6-0.2,2.2-0.8c0.4-0.8,0.6-1.6,0.4-2.6V43c0.2-3.1-0.8-6.3-2.6-9c-3.7-4.1-10.2-4.5-14.5-1
	c-1.8,1.6-2.7,3.9-2.6,6.3c-0.2,2.6,0.8,5.1,2.7,6.9c2,1.8,4.1,3.1,6.7,3.9v9.2h-3.1c-0.2-1-0.6-2-1.2-2.9c-0.4-0.8-1-1.6-1.8-2.2
	c-0.8-0.8-1.6-1.6-2.6-2c-1-0.6-2.2-0.8-3.3-0.8c-1.4,0-2.7,0.4-3.9,1.2c-1,0.6-1.6,1.8-1.6,2.9c0,1,0.4,2.2,1,2.9
	c1,0.8,2,1.6,3.1,2l5.7,2.4c1,0.4,2.2,0.8,3.1,1.4c1.2,0.6,2.2,1.2,3.1,2.2c1,0.8,2,2,2.6,3.1c0.8,1.4,1,3.1,1,4.7
	c0,2.2-0.6,4.1-1.6,5.9c-1,1.6-2.6,2.7-4.1,3.7c-1.6,1-3.3,1.6-5.1,1.8C62.7,86,60.9,86,59.4,86c-1.4,0-2.7,0-4.1-0.2
	c-1.4-0.2-2.6-0.4-3.5-0.6c-1-0.2-2-0.4-2.7-0.6l-1.6-0.4v-11h3.3c0.2,0.8,0.4,1.8,0.8,2.7c0.4,1.2,0.8,2.2,1.4,3.1
	c0.8,1,1.6,2,2.6,2.6c1.2,0.8,2.7,1.2,4.1,1c0.8,0,1.6,0,2.4-0.2c0.8-0.2,1.6-0.4,2.2-0.8c0.6-0.4,1.2-1,1.6-1.6
	c0.4-0.8,0.6-1.6,0.6-2.4c0-0.8-0.2-1.6-0.6-2.2c-0.4-0.6-0.8-1.2-1.4-1.6c-0.6-0.4-1.2-0.8-1.8-1.2c-0.6-0.2-1.2-0.6-1.8-0.8
	l-5.5-2c-0.8-0.2-1.6-0.6-2.4-1c-1-0.6-2-1.2-2.7-2c-1-0.8-1.8-2-2.4-3.1c-0.6-1.4-1-2.9-1-4.5c0-1.8,0.4-3.5,1.4-5.1
	c1-1.4,2.2-2.6,3.5-3.5c1.4-1,3.1-1.6,4.7-2s3.3-0.6,4.9-0.6c-1.2-1-2.2-2.4-2.7-3.9c-0.8-1.6-1-3.1-1.2-4.9c0-1.8,0.4-3.3,1.2-4.9
	c0.8-1.6,2-2.9,3.3-3.9c1.6-1.2,3.1-2.2,5.1-2.7c2.2-0.6,4.3-1,6.5-1c3.9,0,7.7,1,11.2,2.6L91.6,26.6z"/>
</svg>
