<svg id="Ebene_4" data-name="Ebene 4" xmlns="http://www.w3.org/2000/svg" xmlns:xlink="http://www.w3.org/1999/xlink" viewBox="0 0 758.06 689.11"><defs><style>.cls-1,.cls-3,.cls-4,.cls-5{fill:none;}.cls-2{fill:#ededed;}.cls-3,.cls-5{stroke:#50e0ff;}.cls-3,.cls-4,.cls-5{stroke-linecap:square;}.cls-3,.cls-4{stroke-width:3px;}.cls-4{stroke:#ff7d5d;}.cls-5{stroke-width:2.64px;}.cls-6{font-size:13px;fill:#b2b2b2;}.cls-18,.cls-27,.cls-6{font-family:Sen-Regular, Sen;}.cls-7{letter-spacing:-0.02em;}.cls-8{letter-spacing:-0.02em;}.cls-9{letter-spacing:-0.02em;}.cls-10{letter-spacing:-0.02em;}.cls-11{letter-spacing:-0.05em;}.cls-12{clip-path:url(#clip-path);}.cls-13,.cls-16,.cls-18{fill:#50e0ff;}.cls-14{font-size:28px;}.cls-14,.cls-20{fill:#fff;}.cls-14,.cls-16,.cls-20,.cls-22{font-family:Sen-ExtraBold, Sen;font-weight:800;}.cls-15,.cls-22,.cls-27{fill:#ff7d5d;}.cls-16,.cls-18,.cls-22,.cls-27{font-size:22px;}.cls-17{letter-spacing:-0.02em;}.cls-19{letter-spacing:-0.02em;}.cls-20{font-size:32px;}.cls-21{letter-spacing:-0.02em;}.cls-23{letter-spacing:-0.02em;}.cls-24{letter-spacing:-0.06em;}.cls-25{letter-spacing:-0.05em;}.cls-26{letter-spacing:-0.03em;}</style><clipPath id="clip-path" transform="translate(-223.51 -100.53)"><rect class="cls-1" x="223.51" y="100.53" width="758.05" height="683.63"/></clipPath></defs><polygon class="cls-2" points="535.53 49.01 535.53 198.08 561.82 198.08 561.82 169.51 574.87 156.46 606.54 198.08 639.67 198.08 592.26 138.87 637.39 93.53 604.47 93.53 561.82 140.11 561.82 49.01 535.53 49.01"/><polygon class="cls-2" points="123.13 59.37 123.13 198.08 151.9 198.08 151.9 141.76 216.29 141.76 216.29 198.08 244.86 198.08 244.86 59.37 216.29 59.37 216.29 115.89 151.9 115.89 151.9 59.37 123.13 59.37"/><polygon class="cls-2" points="353.14 93.53 326.64 127.06 300.14 93.53 269.08 93.53 310.07 144.66 267.63 198.08 300.55 198.08 326.64 161.64 352.72 198.08 385.64 198.08 343.2 144.66 384.19 93.53 353.14 93.53"/><path class="cls-2" d="M699.52,225.73q7.14,8.09,7.14,19.88a33.85,33.85,0,0,1-3.31,14.8A29.25,29.25,0,0,1,694,271.7,23.4,23.4,0,0,1,680,276a27.46,27.46,0,0,1-14.18-3.83,57,57,0,0,1-12.11-9.62V247.47q-.21-9.32,3.62-15.94a27.63,27.63,0,0,1,10.05-10.25,25.9,25.9,0,0,1,13.25-3.62q11.79,0,18.94,8.07m-32.61-28.46a40.41,40.41,0,0,0-13.25,14.39v-17.6H627.37V348.3h26.29V286.81a47.32,47.32,0,0,0,14.39,10.66,38.7,38.7,0,0,0,17.29,4.24A46.37,46.37,0,0,0,709.87,295a47.59,47.59,0,0,0,17.6-19.36Q734,263,734,245.61t-6.52-29.5a46.29,46.29,0,0,0-17.19-18.43,44.49,44.49,0,0,0-23.08-6.31,35.22,35.22,0,0,0-20.29,5.9" transform="translate(-223.51 -100.53)"/><line class="cls-3" x1="47.67" y1="57.91" x2="709.41" y2="57.91"/><line class="cls-4" x1="47.67" y1="47.5" x2="709.41" y2="47.5"/><line class="cls-4" x1="47.67" y1="23.09" x2="709.41" y2="23.09"/><line class="cls-4" x1="47.67" y1="273.52" x2="709.41" y2="273.52"/><line class="cls-3" x1="47.67" y1="92.05" x2="709.41" y2="92.05"/><line class="cls-5" x1="47.5" y1="199.35" x2="709.85" y2="199.35"/><line class="cls-3" x1="47.67" y1="249.26" x2="709.41" y2="249.26"/><text class="cls-6" transform="translate(46.17 307.79)"><tspan class="cls-7">Info</tspan><tspan x="25.76" y="0">: </tspan></text><text class="cls-6" transform="translate(79.02 307.79)"> </text><text class="cls-6" transform="translate(46.17 326.8)"> </text><text class="cls-6" transform="translate(46.17 326.8)"><tspan class="cls-7">In</tspan><tspan class="cls-8" x="13.71" y="0"> </tspan><tspan class="cls-7" x="17.27" y="0">d</tspan><tspan class="cls-8" x="24.91" y="0">e</tspan><tspan class="cls-9" x="31.91" y="0">n</tspan><tspan class="cls-10" x="39.08" y="0"> </tspan><tspan class="cls-9" x="42.64" y="0">Klamm</tspan><tspan class="cls-8" x="84.5" y="0">er</tspan><tspan class="cls-7" x="96.25" y="0">n</tspan><tspan class="cls-8" x="103.42" y="0"> </tspan><tspan class="cls-7" x="106.98" y="0">b</tspan><tspan class="cls-8" x="114.61" y="0">e</tspan><tspan class="cls-9" x="121.62" y="0">f</tspan><tspan class="cls-8" x="126.03" y="0">i</tspan><tspan class="cls-7" x="129.69" y="0">nd</tspan><tspan class="cls-10" x="144.49" y="0">e</tspan><tspan class="cls-9" x="151.5" y="0">n</tspan><tspan class="cls-8" x="158.66" y="0" xml:space="preserve"> si</tspan><tspan class="cls-9" x="171.07" y="0">ch</tspan><tspan class="cls-8" x="184.47" y="0"> </tspan><tspan class="cls-9" x="188.03" y="0">w</tspan><tspan class="cls-8" x="197.37" y="0">eitere </tspan><tspan class="cls-7" x="235.59" y="0">mögl</tspan><tspan class="cls-8" x="265.31" y="0">i</tspan><tspan class="cls-7" x="268.97" y="0">ch</tspan><tspan class="cls-8" x="282.37" y="0">e Be</tspan><tspan class="cls-7" x="308.38" y="0">z</tspan><tspan class="cls-8" x="315.09" y="0">ei</tspan><tspan class="cls-9" x="325.76" y="0">chn</tspan><tspan class="cls-10" x="346.32" y="0">u</tspan><tspan class="cls-9" x="353.23" y="0">ng</tspan><tspan class="cls-8" x="368.04" y="0">e</tspan><tspan x="375.04" y="0">n </tspan></text><text class="cls-6" transform="translate(431.54 326.8)"> </text><text class="cls-6" transform="translate(46.17 345.8)"><tspan class="cls-7">d</tspan><tspan class="cls-8" x="7.64" y="0">er Be</tspan><tspan class="cls-7" x="38.39" y="0">g</tspan><tspan class="cls-8" x="46.03" y="0">ri</tspan><tspan class="cls-7" x="54.44" y="0">ff</tspan><tspan class="cls-8" x="63.26" y="0">e s</tspan><tspan class="cls-9" x="79.01" y="0">ow</tspan><tspan class="cls-8" x="95.98" y="0">ie </tspan><tspan class="cls-9" x="110.21" y="0">d</tspan><tspan class="cls-10" x="117.85" y="0">ie e</tspan><tspan class="cls-7" x="139.08" y="0">ngl</tspan><tspan class="cls-8" x="156.82" y="0">is</tspan><tspan class="cls-9" x="165.67" y="0">ch</tspan><tspan class="cls-8" x="179.06" y="0">e</tspan><tspan class="cls-7" x="186.06" y="0">n</tspan><tspan class="cls-8" x="193.23" y="0"> </tspan><tspan class="cls-9" x="196.79" y="0">Facha</tspan><tspan class="cls-8" x="233.26" y="0">us</tspan><tspan class="cls-9" x="245.36" y="0">d</tspan><tspan class="cls-8" x="253" y="0">rü</tspan><tspan class="cls-7" x="264.65" y="0">c</tspan><tspan class="cls-11" x="270.88" y="0">k</tspan><tspan class="cls-10" x="277.16" y="0">e</tspan><tspan x="284.16" y="0">.</tspan></text><g class="cls-12"><path class="cls-13" d="M964.86,174.45a16,16,0,1,0-16-16,16,16,0,0,0,16,16" transform="translate(-223.51 -100.53)"/></g><text class="cls-14" transform="translate(733.14 65.94)">1</text><g class="cls-12"><path class="cls-15" d="M239.51,132.53a16,16,0,1,0-16-16,16,16,0,0,0,16,16" transform="translate(-223.51 -100.53)"/><text class="cls-14" transform="translate(7.8 24.74)">5</text><path class="cls-15" d="M239.51,171.34a16,16,0,1,0-16-16,16,16,0,0,0,16,16" transform="translate(-223.51 -100.53)"/></g><text class="cls-14" transform="translate(7.8 63.54)">6</text><g class="cls-12"><path class="cls-15" d="M239.51,390.06a16,16,0,1,0-16-16,16,16,0,0,0,16,16" transform="translate(-223.51 -100.53)"/></g><text class="cls-14" transform="translate(7.8 282.97)">7</text><g class="cls-12"><path class="cls-13" d="M964.86,208.58a16,16,0,1,0-16-16,16,16,0,0,0,16,16" transform="translate(-223.51 -100.53)"/></g><text class="cls-14" transform="translate(733.14 100.08)">2</text><g class="cls-12"><path class="cls-13" d="M964.86,315.89a16,16,0,1,0-16-16,16,16,0,0,0,16,16" transform="translate(-223.51 -100.53)"/></g><text class="cls-14" transform="translate(733.14 208.09)">3</text><g class="cls-12"><path class="cls-13" d="M965.56,365.8a16,16,0,1,0-16-16,16,16,0,0,0,16,16" transform="translate(-223.51 -100.53)"/></g><text class="cls-14" transform="translate(733.14 258)">4</text><text class="cls-16" transform="translate(99.75 420.7)"><tspan class="cls-17">H-Lini</tspan><tspan x="66.6" y="0">e </tspan></text><text class="cls-16" transform="translate(184.34 420.7)"> </text><text class="cls-18" transform="translate(99.75 444.71)"><tspan class="cls-17">(</tspan><tspan class="cls-19" x="7.36" y="0">Vers</tspan><tspan class="cls-9" x="50.44" y="0">all</tspan><tspan class="cls-19" x="73.31" y="0">i</tspan><tspan class="cls-17" x="79.51" y="0">n</tspan><tspan class="cls-19" x="91.64" y="0">ie</tspan><tspan class="cls-17" x="109.69" y="0">/Cap</tspan><tspan class="cls-19" x="158.03" y="0"> </tspan><tspan class="cls-17" x="164.06" y="0">l</tspan><tspan class="cls-19" x="169.03" y="0">i</tspan><tspan class="cls-17" x="175.23" y="0">n</tspan><tspan class="cls-19" x="187.36" y="0">e</tspan><tspan x="199.21" y="0">)</tspan></text><g class="cls-12"><path class="cls-13" d="M288.25,544.6A18.57,18.57,0,1,0,269.68,526a18.56,18.56,0,0,0,18.57,18.56" transform="translate(-223.51 -100.53)"/></g><text class="cls-20" transform="translate(55.36 434.5)">1</text><text class="cls-16" transform="translate(99.75 500.35)"><tspan class="cls-17">x-Lini</tspan><tspan x="62.99" y="0">e </tspan></text><text class="cls-16" transform="translate(180.73 500.35)"> </text><path class="cls-13" d="M330.2,610.06a9.42,9.42,0,0,0-1.24,1.85,17,17,0,0,0-1,2.44,19.89,19.89,0,0,0-.71,2.7,14.08,14.08,0,0,0-.26,2.57,14.52,14.52,0,0,0,.26,2.66,18.53,18.53,0,0,0,.71,2.68,16.87,16.87,0,0,0,1,2.39,10.21,10.21,0,0,0,1.24,1.83h-2a10.86,10.86,0,0,1-1.67-2.42,15.7,15.7,0,0,1-1.3-3.34,14.09,14.09,0,0,1-.22-6.6,16.92,16.92,0,0,1,.79-2.68A14.93,14.93,0,0,1,327,611.8a9.83,9.83,0,0,1,1.29-1.74Zm16.15.43v14.39h-1.93V614.46L340,619.21h-.51l-4.56-4.75v10.42H333V610.49h.6l6.14,6.59,6-6.59Zm6.56,3.65v10.74h-1.76v-9.09h-1.7v-1.65ZM351.82,609a1.4,1.4,0,0,1,1,.44,1.46,1.46,0,0,1,.42,1,1.43,1.43,0,0,1-.42,1,1.42,1.42,0,0,1-2.09,0,1.42,1.42,0,0,1-.41-1,1.44,1.44,0,0,1,.41-1A1.4,1.4,0,0,1,351.82,609Zm7.42,2.07v3.09h4.24a2.31,2.31,0,0,0,1.74-.72,6.5,6.5,0,0,0,1.22-2.16h.39v2.88H370v1.65h-3.13v6.3a1.53,1.53,0,0,0,.34,1,1.33,1.33,0,0,0,1.05.39,3.33,3.33,0,0,0,1.08-.16,4.38,4.38,0,0,0,.75-.36v1.44a4.09,4.09,0,0,1-.91.55,3.35,3.35,0,0,1-1.3.2,2.58,2.58,0,0,1-2.08-.82,3.34,3.34,0,0,1-.69-2.21v-6.38h-5.83v6.3a1.53,1.53,0,0,0,.35,1,1.33,1.33,0,0,0,1.05.39,3.22,3.22,0,0,0,1.07-.16,4.9,4.9,0,0,0,.76-.36v1.44a3.93,3.93,0,0,1-.92.55,3.31,3.31,0,0,1-1.3.2,2.57,2.57,0,0,1-2.07-.82,3.29,3.29,0,0,1-.7-2.21v-6.38h-2.06v-.51a4.16,4.16,0,0,0,1.76-1.56,11.88,11.88,0,0,0,1.25-2.67Zm17.92,2.87a5.08,5.08,0,0,1,2.75.69,4.25,4.25,0,0,1,1.64,1.87,6.22,6.22,0,0,1,.55,2.67v1.05h-8.25a4,4,0,0,0,.63,1.65,3.49,3.49,0,0,0,1.28,1.19,3.65,3.65,0,0,0,1.83.45,4.18,4.18,0,0,0,2.17-.6,7.7,7.7,0,0,0,1.7-1.3l0,1.92a4.33,4.33,0,0,1-.9.76,6.07,6.07,0,0,1-1.35.67,5,5,0,0,1-1.6.26,5.42,5.42,0,0,1-2.9-.77,5.6,5.6,0,0,1-2.71-4.86,6.1,6.1,0,0,1,.67-2.81,5.32,5.32,0,0,1,1.84-2.06A4.7,4.7,0,0,1,377.16,613.92Zm0,1.72a2.92,2.92,0,0,0-2.19.89,4,4,0,0,0-1.07,2.16h6.46a3.44,3.44,0,0,0-.59-1.71,3,3,0,0,0-1.17-1A3.17,3.17,0,0,0,377.16,615.64Zm9.17-6.23v15.47h-1.76V609.41Zm5,0v15.47h-1.76V609.41Zm6,4.73v10.74h-1.76v-9.09h-1.7v-1.65Zm-1.1-5.16a1.4,1.4,0,0,1,1,.44,1.44,1.44,0,0,1,.41,1,1.42,1.42,0,0,1-.41,1,1.42,1.42,0,0,1-2.09,0,1.43,1.43,0,0,1-.42-1,1.46,1.46,0,0,1,.42-1A1.4,1.4,0,0,1,396.23,609Zm6.23,5.16v1.7a5.58,5.58,0,0,1,.88-.87,5.09,5.09,0,0,1,1.21-.74,3.29,3.29,0,0,1,1.41-.31,4.2,4.2,0,0,1,2,.49,3.56,3.56,0,0,1,1.44,1.46,5,5,0,0,1,.54,2.46v6.55h-1.77l0-6.38a3.24,3.24,0,0,0-.61-2.13,2.35,2.35,0,0,0-1.88-.73,2.82,2.82,0,0,0-1.71.64,7.68,7.68,0,0,0-1.49,1.47v7.13H400.7V614.14Zm13.17,0v10.74h-1.76v-9.09h-1.7v-1.65ZM414.54,609a1.4,1.4,0,0,1,1,.44,1.46,1.46,0,0,1,.42,1,1.43,1.43,0,0,1-.42,1,1.38,1.38,0,0,1-1,.46,1.35,1.35,0,0,1-1-.46,1.43,1.43,0,0,1-.42-1,1.46,1.46,0,0,1,.42-1A1.37,1.37,0,0,1,414.54,609Zm8.89,4.94a5.08,5.08,0,0,1,2.75.69,4.32,4.32,0,0,1,1.64,1.87,6.22,6.22,0,0,1,.55,2.67v1.05h-8.25a3.9,3.9,0,0,0,.62,1.65A3.6,3.6,0,0,0,422,623a3.65,3.65,0,0,0,1.83.45,4.2,4.2,0,0,0,2.17-.6,7.63,7.63,0,0,0,1.69-1.3l0,1.92a4.51,4.51,0,0,1-.89.76,6.3,6.3,0,0,1-1.35.67,5.06,5.06,0,0,1-1.6.26,5.4,5.4,0,0,1-2.9-.77,5.6,5.6,0,0,1-2.71-4.86,6.09,6.09,0,0,1,.66-2.81,5.4,5.4,0,0,1,1.84-2.06A4.71,4.71,0,0,1,423.43,613.92Zm0,1.72a3,3,0,0,0-2.2.89,4,4,0,0,0-1.07,2.16h6.47A3.44,3.44,0,0,0,426,617a3.21,3.21,0,0,0-2.61-1.34Zm13.62-5.9-5.72,19.44h-1.46l5.65-19.44Zm11.9,4.4-4.44,5.16,4.51,5.58h-2.28l-3.33-4.45-3.35,4.45h-2.28l4.51-5.58-4.45-5.16h2.28l3.29,3.87,3.27-3.87Zm7.7,4.34v1.93h-6.46v-1.93Zm4.44-9.07v15.47h-1.76V609.41Zm6,4.73v10.74h-1.76v-9.09h-1.7v-1.65ZM466,609a1.4,1.4,0,0,1,1,.44,1.46,1.46,0,0,1,.42,1,1.43,1.43,0,0,1-.42,1,1.42,1.42,0,0,1-2.09,0,1.47,1.47,0,0,1-.41-1,1.49,1.49,0,0,1,.41-1A1.4,1.4,0,0,1,466,609Zm6.22,5.16v1.7a5.58,5.58,0,0,1,.88-.87,5.16,5.16,0,0,1,1.22-.74,3.28,3.28,0,0,1,1.4-.31,4.2,4.2,0,0,1,2,.49,3.56,3.56,0,0,1,1.44,1.46,5,5,0,0,1,.54,2.46v6.55H478l0-6.38a3.24,3.24,0,0,0-.61-2.13,2.33,2.33,0,0,0-1.88-.73,2.82,2.82,0,0,0-1.71.64,7.68,7.68,0,0,0-1.49,1.47v7.13h-1.76V614.14Zm14.79-.22a5.08,5.08,0,0,1,2.75.69,4.25,4.25,0,0,1,1.64,1.87,6.22,6.22,0,0,1,.55,2.67v1.05h-8.25a3.9,3.9,0,0,0,.62,1.65,3.6,3.6,0,0,0,1.29,1.19,3.65,3.65,0,0,0,1.83.45,4.2,4.2,0,0,0,2.17-.6,7.4,7.4,0,0,0,1.69-1.3l0,1.92a4.51,4.51,0,0,1-.89.76,6.07,6.07,0,0,1-1.35.67,5,5,0,0,1-1.6.26,5.4,5.4,0,0,1-2.9-.77,5.6,5.6,0,0,1-2.71-4.86,6,6,0,0,1,.67-2.81,5.29,5.29,0,0,1,1.83-2.06A4.71,4.71,0,0,1,487,613.92Zm0,1.72a2.92,2.92,0,0,0-2.19.89,4,4,0,0,0-1.08,2.16h6.47a3.44,3.44,0,0,0-.59-1.71,3,3,0,0,0-1.17-1A3.17,3.17,0,0,0,487,615.64Zm13.62-5.9-5.72,19.44h-1.46l5.65-19.44Zm16.16.75v14.39h-1.94V614.46l-4.44,4.75h-.52l-4.55-4.75v10.42h-1.94V610.49h.6l6.15,6.59,6-6.59Zm8.17,3.43a5.08,5.08,0,0,1,2.75.69,4.25,4.25,0,0,1,1.64,1.87,6.22,6.22,0,0,1,.55,2.67v1.05h-8.25a3.9,3.9,0,0,0,.62,1.65,3.6,3.6,0,0,0,1.29,1.19,3.65,3.65,0,0,0,1.83.45,4.2,4.2,0,0,0,2.17-.6,7.4,7.4,0,0,0,1.69-1.3l0,1.92a4.51,4.51,0,0,1-.89.76,6.07,6.07,0,0,1-1.35.67,5,5,0,0,1-1.6.26,5.4,5.4,0,0,1-2.9-.77,5.6,5.6,0,0,1-2.71-4.86,6,6,0,0,1,.67-2.81,5.29,5.29,0,0,1,1.83-2.06A4.71,4.71,0,0,1,525,613.92Zm0,1.72a2.92,2.92,0,0,0-2.19.89,4,4,0,0,0-1.08,2.16h6.47a3.44,3.44,0,0,0-.59-1.71,3.09,3.09,0,0,0-1.17-1A3.17,3.17,0,0,0,525,615.64Zm11.83-1.72a4.49,4.49,0,0,1,1.88.44,5,5,0,0,1,1.65,1.22v-1.44h1.76v10.74h-1.76v-1.82a5.43,5.43,0,0,1-1.52,1.5,3.8,3.8,0,0,1-2.18.64,4.74,4.74,0,0,1-2.51-.69,5.11,5.11,0,0,1-1.82-2,6,6,0,0,1-.67-2.88,6.53,6.53,0,0,1,.67-3.07,4.9,4.9,0,0,1,1.86-2A5.16,5.16,0,0,1,536.81,613.92Zm.33,1.72a3.36,3.36,0,0,0-2,.58,3.9,3.9,0,0,0-1.26,1.5,4.5,4.5,0,0,0-.44,2,4.18,4.18,0,0,0,.43,1.9,3.43,3.43,0,0,0,1.22,1.39,3.23,3.23,0,0,0,1.81.52,3.11,3.11,0,0,0,1.76-.52,3.52,3.52,0,0,0,1.23-1.43,4.44,4.44,0,0,0,.43-2l0-2.06a5.77,5.77,0,0,0-1.43-1.31A3.24,3.24,0,0,0,537.14,615.64Zm9.92-1.5v1.7a6,6,0,0,1,.88-.87,5.16,5.16,0,0,1,1.22-.74,3.28,3.28,0,0,1,1.4-.31,4.17,4.17,0,0,1,2,.49,3.56,3.56,0,0,1,1.44,1.46,5,5,0,0,1,.54,2.46v6.55h-1.76l0-6.38a3.24,3.24,0,0,0-.62-2.13,2.32,2.32,0,0,0-1.88-.73,2.78,2.78,0,0,0-1.7.64,7.46,7.46,0,0,0-1.5,1.47v7.13H545.3V614.14Zm18.13-4.73v15.47h-1.76V609.41Zm6,4.73v10.74h-1.77v-9.09h-1.69v-1.65Zm-1.1-5.16a1.4,1.4,0,0,1,1,.44,1.46,1.46,0,0,1,.42,1,1.43,1.43,0,0,1-.42,1,1.38,1.38,0,0,1-1,.46,1.36,1.36,0,0,1-1-.46,1.43,1.43,0,0,1-.42-1,1.46,1.46,0,0,1,.42-1A1.38,1.38,0,0,1,570.12,609Zm6.22,5.16v1.7a5.68,5.68,0,0,1,.89-.87,4.9,4.9,0,0,1,1.21-.74,3.29,3.29,0,0,1,1.41-.31,4.16,4.16,0,0,1,2,.49,3.44,3.44,0,0,1,1.44,1.46,5,5,0,0,1,.54,2.46v6.55h-1.76l0-6.38a3.3,3.3,0,0,0-.61-2.13,2.35,2.35,0,0,0-1.88-.73,2.78,2.78,0,0,0-1.71.64,7.46,7.46,0,0,0-1.5,1.47v7.13h-1.76V614.14Zm14.79-.22a5.08,5.08,0,0,1,2.75.69,4.25,4.25,0,0,1,1.64,1.87,6.22,6.22,0,0,1,.55,2.67v1.05h-8.25a4.18,4.18,0,0,0,.62,1.65,3.6,3.6,0,0,0,1.29,1.19,3.65,3.65,0,0,0,1.83.45,4.18,4.18,0,0,0,2.17-.6,7.7,7.7,0,0,0,1.7-1.3l0,1.92a4.61,4.61,0,0,1-.9.76,6.07,6.07,0,0,1-1.35.67,5,5,0,0,1-1.6.26,5.4,5.4,0,0,1-2.9-.77,5.6,5.6,0,0,1-2.71-4.86,6,6,0,0,1,.67-2.81,5.24,5.24,0,0,1,1.84-2.06A4.7,4.7,0,0,1,591.13,613.92Zm0,1.72a2.92,2.92,0,0,0-2.19.89,4.12,4.12,0,0,0-1.08,2.16h6.47a3.44,3.44,0,0,0-.59-1.71,3,3,0,0,0-1.17-1A3.17,3.17,0,0,0,591.13,615.64Zm7.09-5.58a9,9,0,0,1,1.23,1.85,17.06,17.06,0,0,1,1,2.44,19.84,19.84,0,0,1,.7,2.7,13.25,13.25,0,0,1,.26,2.57,13.69,13.69,0,0,1-.26,2.66,18.5,18.5,0,0,1-.7,2.68,16.88,16.88,0,0,1-1,2.39,9.7,9.7,0,0,1-1.23,1.83h1.95a10.87,10.87,0,0,0,1.68-2.42,16.24,16.24,0,0,0,1.3-3.34,14.21,14.21,0,0,0,.5-3.8,13.38,13.38,0,0,0-.29-2.8,16.89,16.89,0,0,0-.78-2.68,14.94,14.94,0,0,0-1.12-2.34,8.94,8.94,0,0,0-1.29-1.74Z" transform="translate(-223.51 -100.53)"/><g class="cls-12"><path class="cls-13" d="M288.38,624.25a18.57,18.57,0,1,0-18.56-18.57,18.56,18.56,0,0,0,18.56,18.57" transform="translate(-223.51 -100.53)"/></g><text class="cls-20" transform="translate(55.5 514.15)">2</text><text class="cls-16" transform="translate(99.75 579.99)"><tspan class="cls-19">Sc</tspan><tspan class="cls-17" x="21.62" y="0">h</tspan><tspan class="cls-19" x="34.67" y="0">r</tspan><tspan class="cls-17" x="43.66" y="0">i</tspan><tspan class="cls-21" x="51.19" y="0">ftl</tspan><tspan class="cls-17" x="76.32" y="0">ini</tspan><tspan x="104.43" y="0">e </tspan></text><text class="cls-16" transform="translate(222.02 579.99)"> </text><text class="cls-18" transform="translate(99.75 603.99)"><tspan class="cls-17">(</tspan><tspan class="cls-19" x="7.36" y="0">Gru</tspan><tspan class="cls-17" x="41.73" y="0">ndl</tspan><tspan class="cls-19" x="71.75" y="0">i</tspan><tspan class="cls-17" x="77.95" y="0">n</tspan><tspan class="cls-19" x="90.08" y="0">ie</tspan><tspan class="cls-17" x="108.13" y="0">/</tspan><tspan class="cls-19" x="116.58" y="0">B</tspan><tspan class="cls-17" x="130.88" y="0">a</tspan><tspan class="cls-19" x="143.8" y="0">se </tspan><tspan class="cls-9" x="170.46" y="0">l</tspan><tspan class="cls-19" x="175.43" y="0">i</tspan><tspan class="cls-17" x="181.63" y="0">n</tspan><tspan class="cls-19" x="193.76" y="0">e</tspan><tspan x="205.61" y="0">)</tspan></text><g class="cls-12"><path class="cls-13" d="M288.52,703.89A18.57,18.57,0,1,0,270,685.32a18.57,18.57,0,0,0,18.56,18.57" transform="translate(-223.51 -100.53)"/></g><text class="cls-20" transform="translate(55.64 594.61)">3</text><text class="cls-16" transform="translate(99.75 659.63)"><tspan class="cls-19">p</tspan><tspan class="cls-17" x="13.53" y="0">-Lini</tspan><tspan x="63.51" y="0">e </tspan></text><text class="cls-16" transform="translate(181.21 659.63)"> </text><g class="cls-12"><text class="cls-18" transform="translate(99.75 683.63)"><tspan class="cls-17">(D</tspan><tspan class="cls-19" x="23.23" y="0">e</tspan><tspan class="cls-17" x="35.08" y="0">c</tspan><tspan class="cls-19" x="45.61" y="0">e</tspan><tspan class="cls-9" x="57.46" y="0">nd</tspan><tspan class="cls-19" x="82.51" y="0">er</tspan><tspan class="cls-17" x="102.39" y="0">l</tspan><tspan class="cls-19" x="107.36" y="0">i</tspan><tspan class="cls-17" x="113.56" y="0">n</tspan><tspan class="cls-19" x="125.69" y="0">e</tspan><tspan class="cls-17" x="137.54" y="0">/</tspan><tspan class="cls-19" x="146" y="0">Be</tspan><tspan class="cls-9" x="172.14" y="0">a</tspan><tspan class="cls-19" x="185.07" y="0">r</tspan><tspan class="cls-17" x="193.09" y="0">dl</tspan><tspan class="cls-19" x="210.99" y="0">i</tspan><tspan class="cls-17" x="217.19" y="0">n</tspan><tspan class="cls-19" x="229.32" y="0">e</tspan><tspan x="241.17" y="0">)</tspan></text><path class="cls-13" d="M289.07,783.53A18.57,18.57,0,1,0,270.5,765a18.56,18.56,0,0,0,18.57,18.56" transform="translate(-223.51 -100.53)"/></g><text class="cls-20" transform="translate(55.36 674.25)">4</text><text class="cls-22" transform="translate(502.58 432.25)"><tspan class="cls-9">Ke</tspan><tspan class="cls-19" x="27.8" y="0">g</tspan><tspan class="cls-9" x="41.33" y="0">e</tspan><tspan class="cls-19" x="53.3" y="0">l</tspan><tspan class="cls-23" x="59.59" y="0">o</tspan><tspan class="cls-19" x="72.69" y="0">b</tspan><tspan class="cls-9" x="86.21" y="0">e</tspan><tspan class="cls-19" x="98.19" y="0">r</tspan><tspan class="cls-24" x="107.18" y="0">k</tspan><tspan class="cls-19" x="119.35" y="0">a</tspan><tspan class="cls-25" x="132.88" y="0">n</tspan><tspan class="cls-26" x="145.29" y="0">t</tspan><tspan x="155.03" y="0">e </tspan></text><g class="cls-12"><path class="cls-15" d="M691.08,544a18.57,18.57,0,1,0-18.57-18.56A18.56,18.56,0,0,0,691.08,544" transform="translate(-223.51 -100.53)"/></g><text class="cls-20" transform="translate(458.2 434.69)">5</text><text class="cls-22" transform="translate(502.58 500.35)"><tspan class="cls-9">k-Lini</tspan><tspan x="63.02" y="0">e</tspan></text><text class="cls-22" transform="translate(578.02 500.35)"> </text><text class="cls-27" transform="translate(502.58 524.35)"><tspan class="cls-17">(</tspan><tspan class="cls-21" x="7.36" y="0">A</tspan><tspan class="cls-23" x="21.79" y="0">c</tspan><tspan class="cls-19" x="32.33" y="0">e</tspan><tspan class="cls-9" x="44.17" y="0">nd</tspan><tspan class="cls-19" x="69.23" y="0">er</tspan><tspan class="cls-9" x="89.1" y="0">l</tspan><tspan class="cls-19" x="94.08" y="0">i</tspan><tspan class="cls-9" x="100.27" y="0">n</tspan><tspan class="cls-19" x="112.4" y="0">e</tspan><tspan x="124.25" y="0">)</tspan></text><g class="cls-12"><path class="cls-15" d="M691.08,624.25a18.57,18.57,0,1,0-18.57-18.57,18.56,18.56,0,0,0,18.57,18.57" transform="translate(-223.51 -100.53)"/></g><text class="cls-20" transform="translate(458.2 514.97)">6</text><text class="cls-22" transform="translate(502.58 591.36)"><tspan class="cls-9">Ke</tspan><tspan class="cls-19" x="27.8" y="0">g</tspan><tspan class="cls-9" x="41.33" y="0">e</tspan><tspan class="cls-19" x="53.3" y="0">l</tspan><tspan class="cls-23" x="59.59" y="0">u</tspan><tspan class="cls-25" x="72.43" y="0">n</tspan><tspan class="cls-26" x="84.84" y="0">t</tspan><tspan class="cls-9" x="94.58" y="0">e</tspan><tspan class="cls-19" x="106.56" y="0">r</tspan><tspan class="cls-24" x="115.55" y="0">k</tspan><tspan class="cls-19" x="127.72" y="0">a</tspan><tspan class="cls-25" x="141.25" y="0">n</tspan><tspan class="cls-26" x="153.66" y="0">t</tspan><tspan x="163.4" y="0">e</tspan></text><g class="cls-12"><path class="cls-15" d="M691.08,703.26a18.57,18.57,0,1,0-18.57-18.57,18.56,18.56,0,0,0,18.57,18.57" transform="translate(-223.51 -100.53)"/></g><text class="cls-20" transform="translate(458.2 594.8)">7</text></svg>