<svg id="Ebene_3" data-name="Ebene 3" xmlns="http://www.w3.org/2000/svg" viewBox="0 0 775.82 724.51"><defs><style>.cls-1{fill:#ededed;}.cls-2,.cls-3,.cls-5{fill:none;}.cls-2,.cls-3{stroke:#b2b2b2;stroke-linecap:square;}.cls-2{stroke-width:3px;}.cls-3{stroke-width:2.64px;}.cls-13,.cls-16,.cls-4{fill:#c650ff;}.cls-5{stroke:#c650ff;}.cls-6{font-size:13px;fill:#b2b2b2;}.cls-16,.cls-6{font-family:Sen-Regular, Sen;}.cls-7{letter-spacing:-0.02em;}.cls-8{letter-spacing:-0.02em;}.cls-9{letter-spacing:-0.02em;}.cls-10{letter-spacing:-0.02em;}.cls-11{letter-spacing:-0.05em;}.cls-12{font-size:28px;}.cls-12,.cls-17{fill:#fff;}.cls-12,.cls-13,.cls-17{font-family:Sen-ExtraBold, Sen;font-weight:800;}.cls-13,.cls-16{font-size:22px;}.cls-14{letter-spacing:-0.02em;}.cls-15{letter-spacing:-0.02em;}.cls-17{font-size:32px;}.cls-18{letter-spacing:-0.02em;}.cls-19{letter-spacing:-0.03em;}.cls-20{letter-spacing:-0.04em;}.cls-21{letter-spacing:-0.02em;}.cls-22{letter-spacing:-0.05em;}.cls-23{letter-spacing:-0.03em;}.cls-24{letter-spacing:-0.04em;}</style></defs><polygon class="cls-1" points="519.53 84.41 519.53 233.47 545.83 233.47 545.83 204.9 558.87 191.86 590.54 233.47 623.67 233.47 576.26 174.26 621.39 128.92 588.47 128.92 545.83 175.5 545.83 84.41 519.53 84.41"/><polygon class="cls-1" points="107.13 94.76 107.13 233.47 135.9 233.47 135.9 177.16 200.29 177.16 200.29 233.47 228.86 233.47 228.86 94.76 200.29 94.76 200.29 151.28 135.9 151.28 135.9 94.76 107.13 94.76"/><polygon class="cls-1" points="337.14 128.92 310.64 162.46 284.14 128.92 253.08 128.92 294.07 180.06 251.63 233.47 284.55 233.47 310.64 197.04 336.72 233.47 369.64 233.47 327.2 180.06 368.19 128.92 337.14 128.92"/><path class="cls-1" d="M701.89,247.39q7.14,8.07,7.14,19.87a33.85,33.85,0,0,1-3.31,14.8,29.25,29.25,0,0,1-9.32,11.29,23.4,23.4,0,0,1-14.08,4.34,27.46,27.46,0,0,1-14.18-3.83A57,57,0,0,1,656,284.24V269.12q-.21-9.31,3.62-15.94a27.63,27.63,0,0,1,10.05-10.25A25.9,25.9,0,0,1,683,239.31q11.79,0,18.94,8.08m-32.61-28.47A40.41,40.41,0,0,0,656,233.31v-17.6H629.74V370H656V308.46a47.32,47.32,0,0,0,14.39,10.66,38.71,38.71,0,0,0,17.29,4.25,46.37,46.37,0,0,0,24.53-6.73,47.59,47.59,0,0,0,17.6-19.36q6.52-12.63,6.52-30t-6.52-29.5a46.29,46.29,0,0,0-17.19-18.43A44.49,44.49,0,0,0,689.57,213a35.22,35.22,0,0,0-20.29,5.9" transform="translate(-241.88 -86.79)"/><line class="cls-2" x1="31.67" y1="93.31" x2="693.41" y2="93.31"/><line class="cls-2" x1="31.67" y1="82.9" x2="693.41" y2="82.9"/><line class="cls-2" x1="31.67" y1="58.48" x2="693.41" y2="58.48"/><line class="cls-2" x1="31.67" y1="308.92" x2="693.41" y2="308.92"/><line class="cls-2" x1="31.67" y1="127.45" x2="693.41" y2="127.45"/><line class="cls-3" x1="31.5" y1="234.75" x2="693.85" y2="234.75"/><line class="cls-2" x1="31.67" y1="284.66" x2="693.41" y2="284.66"/><rect class="cls-4" x="46.3" y="59.98" width="10" height="247.44"/><rect class="cls-4" x="670.01" y="84.41" width="10" height="41.54"/><rect class="cls-4" x="670.01" y="236.07" width="10" height="47.09"/><rect class="cls-4" x="670.01" y="128.95" width="10" height="104.48"/><rect class="cls-4" x="502.01" y="84.41" width="10" height="7.4"/><rect class="cls-4" x="624.38" y="59.98" width="10" height="21.42"/><rect class="cls-4" x="624.38" y="286" width="10" height="21.42"/><rect class="cls-4" x="77.56" y="94.81" width="10" height="138.67"/><line class="cls-5" x1="507.01" y1="82.9" x2="507.01" y2="39.09"/><line class="cls-5" x1="519.99" y1="340.7" x2="629.53" y2="83.1"/><line class="cls-5" x1="622.81" y1="297.17" x2="521.13" y2="340.71"/><text class="cls-6" transform="translate(30.17 343.19)"><tspan class="cls-7">Info</tspan><tspan x="25.76" y="0">: </tspan></text><text class="cls-6" transform="translate(63.02 343.19)"> </text><text class="cls-6" transform="translate(30.17 362.19)"> </text><text class="cls-6" transform="translate(30.17 362.19)"><tspan class="cls-7">In</tspan><tspan class="cls-8" x="13.71" y="0"> </tspan><tspan class="cls-7" x="17.27" y="0">d</tspan><tspan class="cls-8" x="24.91" y="0">e</tspan><tspan class="cls-9" x="31.91" y="0">n</tspan><tspan class="cls-10" x="39.08" y="0"> </tspan><tspan class="cls-9" x="42.64" y="0">Klamm</tspan><tspan class="cls-8" x="84.5" y="0">er</tspan><tspan class="cls-7" x="96.25" y="0">n</tspan><tspan class="cls-8" x="103.42" y="0"> </tspan><tspan class="cls-7" x="106.98" y="0">b</tspan><tspan class="cls-8" x="114.61" y="0">e</tspan><tspan class="cls-9" x="121.62" y="0">f</tspan><tspan class="cls-8" x="126.03" y="0">i</tspan><tspan class="cls-7" x="129.69" y="0">nd</tspan><tspan class="cls-10" x="144.49" y="0">e</tspan><tspan class="cls-9" x="151.5" y="0">n</tspan><tspan class="cls-8" x="158.66" y="0" xml:space="preserve"> si</tspan><tspan class="cls-9" x="171.07" y="0">ch</tspan><tspan class="cls-8" x="184.47" y="0"> </tspan><tspan class="cls-9" x="188.03" y="0">w</tspan><tspan class="cls-8" x="197.37" y="0">eitere </tspan><tspan class="cls-7" x="235.59" y="0">mögl</tspan><tspan class="cls-8" x="265.31" y="0">i</tspan><tspan class="cls-7" x="268.97" y="0">ch</tspan><tspan class="cls-10" x="282.37" y="0">e Be</tspan><tspan class="cls-7" x="308.38" y="0">z</tspan><tspan class="cls-8" x="315.09" y="0">ei</tspan><tspan class="cls-9" x="325.76" y="0">chn</tspan><tspan class="cls-10" x="346.32" y="0">u</tspan><tspan class="cls-9" x="353.23" y="0">ng</tspan><tspan class="cls-8" x="368.04" y="0">e</tspan><tspan x="375.04" y="0">n </tspan></text><text class="cls-6" transform="translate(415.54 362.19)"> </text><text class="cls-6" transform="translate(30.17 381.2)"><tspan class="cls-7">d</tspan><tspan class="cls-8" x="7.64" y="0">er Be</tspan><tspan class="cls-7" x="38.39" y="0">g</tspan><tspan class="cls-8" x="46.03" y="0">ri</tspan><tspan class="cls-7" x="54.44" y="0">ff</tspan><tspan class="cls-8" x="63.26" y="0">e s</tspan><tspan class="cls-9" x="79.01" y="0">ow</tspan><tspan class="cls-8" x="95.98" y="0">ie </tspan><tspan class="cls-7" x="110.21" y="0">d</tspan><tspan class="cls-8" x="117.85" y="0">ie e</tspan><tspan class="cls-7" x="139.08" y="0">ngl</tspan><tspan class="cls-8" x="156.82" y="0">is</tspan><tspan class="cls-9" x="165.67" y="0">ch</tspan><tspan class="cls-8" x="179.06" y="0">e</tspan><tspan class="cls-7" x="186.06" y="0">n</tspan><tspan class="cls-8" x="193.23" y="0"> </tspan><tspan class="cls-9" x="196.79" y="0">Facha</tspan><tspan class="cls-10" x="233.26" y="0">us</tspan><tspan class="cls-9" x="245.36" y="0">d</tspan><tspan class="cls-8" x="253" y="0">rü</tspan><tspan class="cls-9" x="264.65" y="0">c</tspan><tspan class="cls-11" x="270.88" y="0">k</tspan><tspan class="cls-10" x="277.16" y="0">e</tspan><tspan x="284.16" y="0">.</tspan></text><path class="cls-4" d="M257.88,282.93a16,16,0,1,0-16-16,16,16,0,0,0,16,16" transform="translate(-241.88 -86.79)"/><text class="cls-12" transform="translate(7.8 188.18)">1</text><path class="cls-4" d="M359.61,266.93a16,16,0,1,0-16-16,16,16,0,0,0,16,16" transform="translate(-241.88 -86.79)"/><text class="cls-12" transform="translate(109.53 172.18)">2</text><path class="cls-4" d="M748.94,118.79a16,16,0,1,0-16-16,16,16,0,0,0,16,16" transform="translate(-241.88 -86.79)"/><text class="cls-12" transform="translate(498.86 24.74)">3</text><path class="cls-4" d="M749,461.1a16,16,0,1,0-16-16,16,16,0,0,0,16,16" transform="translate(-241.88 -86.79)"/><text class="cls-12" transform="translate(498.21 367.05)">4</text><path class="cls-4" d="M959.88,208a16,16,0,1,0-16-16,16,16,0,0,0,16,16" transform="translate(-241.88 -86.79)"/><text class="cls-12" transform="translate(709.79 113.92)">5</text><path class="cls-4" d="M959.88,282.93a16,16,0,1,0-16-16,16,16,0,0,0,16,16" transform="translate(-241.88 -86.79)"/><text class="cls-12" transform="translate(709.79 188.88)">6</text><path class="cls-4" d="M959.88,362.4a16,16,0,1,0-16-16,16,16,0,0,0,16,16" transform="translate(-241.88 -86.79)"/><text class="cls-12" transform="translate(709.79 269.06)">7</text><text class="cls-13" transform="translate(83.75 456.1)"><tspan class="cls-14">Sc</tspan><tspan class="cls-15" x="21.62" y="0">h</tspan><tspan class="cls-14" x="34.67" y="0">r</tspan><tspan class="cls-15" x="43.66" y="0">i</tspan><tspan class="cls-14" x="51.19" y="0">ftgr</tspan><tspan class="cls-15" x="92.55" y="0">öss</tspan><tspan x="124.36" y="0">e </tspan></text><text class="cls-13" transform="translate(225.94 456.1)"> </text><text class="cls-16" transform="translate(83.75 480.1)"><tspan class="cls-15">(K</tspan><tspan class="cls-14" x="21.36" y="0">e</tspan><tspan class="cls-15" x="33.21" y="0">g</tspan><tspan class="cls-14" x="46.13" y="0">e</tspan><tspan class="cls-9" x="57.98" y="0">lg</tspan><tspan class="cls-14" x="75.88" y="0">r</tspan><tspan class="cls-15" x="83.9" y="0">ö</tspan><tspan class="cls-14" x="96.82" y="0">sse</tspan><tspan class="cls-15" x="126.23" y="0">/Fon</tspan><tspan class="cls-14" x="172.94" y="0">t Si</tspan><tspan class="cls-15" x="204.87" y="0">z</tspan><tspan class="cls-14" x="216.22" y="0">e</tspan><tspan class="cls-15" x="228.07" y="0">/</tspan><tspan class="cls-14" x="236.53" y="0">e</tspan><tspan class="cls-15" x="248.38" y="0">m</tspan><tspan x="267.85" y="0">)</tspan></text><path class="cls-4" d="M290.62,566.26a18.57,18.57,0,1,0-18.57-18.57,18.57,18.57,0,0,0,18.57,18.57" transform="translate(-241.88 -86.79)"/><text class="cls-17" transform="translate(39.36 469.9)">1</text><text class="cls-13" transform="translate(83.75 535.74)"><tspan class="cls-14">V</tspan><tspan class="cls-15" x="15.35" y="0">e</tspan><tspan class="cls-14" x="27.33" y="0">r</tspan><tspan class="cls-15" x="36.32" y="0">s</tspan><tspan class="cls-14" x="45.68" y="0">al</tspan><tspan class="cls-9" x="65.49" y="0">höh</tspan><tspan x="104.69" y="0">e </tspan></text><text class="cls-13" transform="translate(206.33 535.74)"> </text><text class="cls-16" transform="translate(83.75 559.75)"><tspan class="cls-15">(Cap</tspan><tspan class="cls-18" x="47.25" y="0"> </tspan><tspan class="cls-15" x="53.27" y="0">h</tspan><tspan class="cls-14" x="65.4" y="0">ei</tspan><tspan class="cls-15" x="83.45" y="0">gh</tspan><tspan class="cls-14" x="108.5" y="0">t</tspan><tspan x="117.39" y="0">)</tspan></text><path class="cls-4" d="M290.76,645.9a18.57,18.57,0,1,0-18.57-18.57,18.56,18.56,0,0,0,18.57,18.57" transform="translate(-241.88 -86.79)"/><text class="cls-17" transform="translate(39.5 549.54)">2</text><text class="cls-13" transform="translate(83.75 615.39)"><tspan class="cls-15">Ü</tspan><tspan class="cls-14" x="16.02" y="0">b</tspan><tspan class="cls-15" x="29.54" y="0">e</tspan><tspan class="cls-14" x="41.52" y="0">r</tspan><tspan class="cls-15" x="50.51" y="0">h</tspan><tspan class="cls-18" x="63.56" y="0">a</tspan><tspan class="cls-15" x="77.09" y="0">n</tspan><tspan x="90.14" y="0">g </tspan></text><text class="cls-13" transform="translate(193.33 615.39)"> </text><text class="cls-16" transform="translate(83.75 639.39)"><tspan class="cls-15">(O</tspan><tspan class="cls-19" x="24.24" y="0">v</tspan><tspan class="cls-14" x="35.22" y="0">ers</tspan><tspan class="cls-15" x="63.87" y="0">ho</tspan><tspan class="cls-20" x="88.92" y="0">o</tspan><tspan class="cls-18" x="101.43" y="0">t</tspan><tspan x="110.31" y="0">)</tspan></text><path class="cls-4" d="M290.89,725.54A18.57,18.57,0,1,0,272.33,707a18.56,18.56,0,0,0,18.56,18.56" transform="translate(-241.88 -86.79)"/><text class="cls-17" transform="translate(39.64 630.01)">3</text><text class="cls-13" transform="translate(83.75 695.03)"><tspan class="cls-15">F</tspan><tspan class="cls-14" x="13.2" y="0">l</tspan><tspan class="cls-15" x="19.49" y="0">eis</tspan><tspan class="cls-14" x="48.35" y="0">c</tspan><tspan x="58.08" y="0">h </tspan></text><text class="cls-13" transform="translate(160.84 695.03)"> </text><text class="cls-16" transform="translate(83.75 719.03)"><tspan class="cls-15">(b</tspan><tspan class="cls-14" x="20.28" y="0">u</tspan><tspan class="cls-15" x="31.98" y="0">ff</tspan><tspan class="cls-14" x="46.91" y="0">er s</tspan><tspan class="cls-15" x="81.59" y="0">pac</tspan><tspan class="cls-14" x="117.98" y="0">e</tspan><tspan class="cls-15" x="129.83" y="0">/</tspan><tspan class="cls-14" x="138.28" y="0">s</tspan><tspan class="cls-9" x="147.06" y="0">ho</tspan><tspan class="cls-14" x="172.11" y="0">u</tspan><tspan class="cls-15" x="183.81" y="0">ld</tspan><tspan class="cls-14" x="201.71" y="0">er</tspan><tspan x="221.58" y="0">)</tspan></text><path class="cls-4" d="M291.44,805.18a18.57,18.57,0,1,0-18.56-18.56,18.57,18.57,0,0,0,18.56,18.56" transform="translate(-241.88 -86.79)"/><text class="cls-17" transform="translate(39.36 709.65)">4</text><path class="cls-4" d="M693.45,565.62a18.57,18.57,0,1,0-18.56-18.56,18.57,18.57,0,0,0,18.56,18.56" transform="translate(-241.88 -86.79)"/><text class="cls-17" transform="translate(442.2 470.09)">5</text><path class="cls-4" d="M693.45,645.9a18.57,18.57,0,1,0-18.56-18.57,18.57,18.57,0,0,0,18.56,18.57" transform="translate(-241.88 -86.79)"/><text class="cls-17" transform="translate(442.2 550.37)">6</text><path class="cls-4" d="M693.45,724.91a18.57,18.57,0,1,0-18.56-18.57,18.57,18.57,0,0,0,18.56,18.57" transform="translate(-241.88 -86.79)"/><text class="cls-17" transform="translate(442.2 630.2)">7</text><text class="cls-13" transform="translate(486.58 456.1)"><tspan class="cls-14">Ob</tspan><tspan class="cls-21" x="29.78" y="0">e</tspan><tspan class="cls-14" x="41.76" y="0">rlä</tspan><tspan class="cls-9" x="70.56" y="0">n</tspan><tspan class="cls-14" x="83.61" y="0">g</tspan><tspan x="97.14" y="0">e </tspan></text><text class="cls-13" transform="translate(601.58 456.1)"> </text><text class="cls-16" transform="translate(486.58 480.1)"><tspan class="cls-15">(Ob</tspan><tspan class="cls-14" x="37.16" y="0">er</tspan><tspan class="cls-9" x="57.03" y="0">höh</tspan><tspan class="cls-14" x="94.21" y="0">e</tspan><tspan class="cls-9" x="106.06" y="0">/</tspan><tspan class="cls-14" x="114.52" y="0">A</tspan><tspan class="cls-21" x="128.94" y="0">c</tspan><tspan class="cls-14" x="139.48" y="0">e</tspan><tspan class="cls-9" x="151.33" y="0">nd</tspan><tspan class="cls-14" x="176.39" y="0">er </tspan><tspan class="cls-9" x="202.29" y="0">h</tspan><tspan class="cls-14" x="214.42" y="0">ei</tspan><tspan class="cls-9" x="232.46" y="0">gh</tspan><tspan class="cls-14" x="257.52" y="0">t</tspan><tspan x="266.4" y="0">)</tspan></text><text class="cls-13" transform="translate(486.58 535.74)"><tspan class="cls-15">x-Höh</tspan><tspan x="64.38" y="0">e </tspan></text><text class="cls-13" transform="translate(568.95 535.74)"> </text><path class="cls-4" d="M735.4,631.71a9.18,9.18,0,0,0-1.23,1.84,16.57,16.57,0,0,0-1,2.45,21.47,21.47,0,0,0-.71,2.7,14,14,0,0,0-.25,2.57,14.56,14.56,0,0,0,.25,2.66,19.92,19.92,0,0,0,.71,2.68,15.81,15.81,0,0,0,1,2.39,9.7,9.7,0,0,0,1.23,1.83h-1.95a10.87,10.87,0,0,1-1.68-2.42,16.47,16.47,0,0,1-1.3-3.34,14.21,14.21,0,0,1-.51-3.8,14,14,0,0,1,.29-2.8,18,18,0,0,1,.79-2.68,14.94,14.94,0,0,1,1.12-2.34,8.37,8.37,0,0,1,1.29-1.74Zm16.16.43v14.39h-1.94V636.11l-4.44,4.75h-.52l-4.55-4.75v10.42h-1.94V632.14h.6l6.15,6.59,6-6.59Zm6.56,3.65v10.74h-1.77v-9.09h-1.69v-1.65Zm-1.1-5.16a1.4,1.4,0,0,1,1,.44,1.46,1.46,0,0,1,.42,1,1.43,1.43,0,0,1-.42,1,1.37,1.37,0,0,1-1,.45,1.36,1.36,0,0,1-1-.45,1.43,1.43,0,0,1-.42-1,1.46,1.46,0,0,1,.42-1A1.38,1.38,0,0,1,757,630.63Zm7.43,2.06v3.1h4.23a2.31,2.31,0,0,0,1.74-.72,6.17,6.17,0,0,0,1.22-2.16H772v2.88h3.14v1.65H772v6.3a1.53,1.53,0,0,0,.35,1,1.32,1.32,0,0,0,1,.39,3.22,3.22,0,0,0,1.07-.16,4.38,4.38,0,0,0,.75-.36v1.44a3.87,3.87,0,0,1-.91.55,3.51,3.51,0,0,1-1.3.2A2.54,2.54,0,0,1,771,646a3.31,3.31,0,0,1-.7-2.21v-6.38h-5.82v6.3a1.53,1.53,0,0,0,.34,1,1.33,1.33,0,0,0,1.05.39,3.33,3.33,0,0,0,1.08-.16,4.77,4.77,0,0,0,.75-.36v1.44a4.09,4.09,0,0,1-.91.55,3.58,3.58,0,0,1-1.3.2,2.58,2.58,0,0,1-2.08-.82,3.36,3.36,0,0,1-.69-2.21v-6.38h-2.07v-.51a4.24,4.24,0,0,0,1.77-1.56,12,12,0,0,0,1.24-2.68Zm17.91,2.88a5.05,5.05,0,0,1,2.75.69,4.27,4.27,0,0,1,1.65,1.87,6.36,6.36,0,0,1,.55,2.66v1.06h-8.25a3.9,3.9,0,0,0,.62,1.65,3.6,3.6,0,0,0,1.29,1.19,3.63,3.63,0,0,0,1.82.44,4.14,4.14,0,0,0,2.17-.59,7.47,7.47,0,0,0,1.7-1.3l0,1.92a4.51,4.51,0,0,1-.89.76,5.92,5.92,0,0,1-1.36.66,4.72,4.72,0,0,1-1.6.27,5.54,5.54,0,0,1-2.9-.77,5.62,5.62,0,0,1-2.7-4.86,6.09,6.09,0,0,1,.66-2.81,5.4,5.4,0,0,1,1.84-2.06A4.7,4.7,0,0,1,782.36,635.57Zm0,1.72a3,3,0,0,0-2.19.89,4,4,0,0,0-1.07,2.16h6.47a3.52,3.52,0,0,0-.6-1.72,3.08,3.08,0,0,0-1.17-1A3.12,3.12,0,0,0,782.36,637.29Zm9.18-6.23v15.47h-1.77V631.06Zm5,0v15.47h-1.76V631.06Zm7.63,4.51A4.49,4.49,0,0,1,806,636a5,5,0,0,1,1.65,1.22v-1.44h1.76v10.74h-1.76V644.7a5.21,5.21,0,0,1-1.52,1.51,3.78,3.78,0,0,1-2.18.64,4.68,4.68,0,0,1-2.51-.7,5,5,0,0,1-1.82-1.94,6,6,0,0,1-.67-2.88,6.53,6.53,0,0,1,.67-3.07,4.9,4.9,0,0,1,1.86-2A5.16,5.16,0,0,1,804.14,635.57Zm.33,1.72a3.36,3.36,0,0,0-2,.58,4,4,0,0,0-1.26,1.5,4.47,4.47,0,0,0-.44,2,4.31,4.31,0,0,0,.43,1.9,3.5,3.5,0,0,0,1.22,1.39,3.22,3.22,0,0,0,1.81.51,3.11,3.11,0,0,0,1.76-.51,3.59,3.59,0,0,0,1.23-1.43,4.44,4.44,0,0,0,.43-2.05l0-2.06a5.85,5.85,0,0,0-1.43-1.32A3.3,3.3,0,0,0,804.47,637.29Zm-2.15-6.21a1.31,1.31,0,0,1,.95.4,1.36,1.36,0,0,1-.95,2.31,1.32,1.32,0,0,1-1-.41,1.35,1.35,0,0,1,1-2.3Zm4.51,0a1.35,1.35,0,0,1,1,.4,1.35,1.35,0,1,1-1.92,0A1.35,1.35,0,0,1,806.83,631.08Zm7.56,4.71v1.7a6,6,0,0,1,.88-.87,5.19,5.19,0,0,1,1.22-.75,3.43,3.43,0,0,1,1.41-.3,4,4,0,0,1,2,.49,3.44,3.44,0,0,1,1.44,1.46,5,5,0,0,1,.54,2.46v6.55h-1.76l0-6.38a3.3,3.3,0,0,0-.61-2.13,2.35,2.35,0,0,0-1.88-.73,2.78,2.78,0,0,0-1.71.64,7.46,7.46,0,0,0-1.5,1.47v7.13h-1.76V635.79Zm14.79-.22a4.52,4.52,0,0,1,1.88.44,5,5,0,0,1,1.64,1.22v-1.44h1.77v10.53a6,6,0,0,1-.78,3.18,4.87,4.87,0,0,1-2.06,1.89,6.47,6.47,0,0,1-2.82.62,5.5,5.5,0,0,1-1.68-.23,4.38,4.38,0,0,1-1.19-.56l-.91-.63V648.7l.85.61a6.28,6.28,0,0,0,1.27.68,4.38,4.38,0,0,0,1.66.3,4.74,4.74,0,0,0,1.94-.39,3.25,3.25,0,0,0,1.42-1.14,3.06,3.06,0,0,0,.53-1.8V644.7a5.17,5.17,0,0,1-1.51,1.51,3.82,3.82,0,0,1-2.18.64,4.69,4.69,0,0,1-2.52-.7,5.06,5.06,0,0,1-1.81-1.94,6,6,0,0,1-.68-2.88,6.53,6.53,0,0,1,.68-3.07,4.9,4.9,0,0,1,1.86-2A5.13,5.13,0,0,1,829.18,635.57Zm.32,1.74a3.34,3.34,0,0,0-2,.57,3.72,3.72,0,0,0-1.26,1.49,4.47,4.47,0,0,0-.44,2,4.1,4.1,0,0,0,.43,1.89,3.51,3.51,0,0,0,1.21,1.38,3.26,3.26,0,0,0,1.82.51,3.13,3.13,0,0,0,1.76-.51,3.68,3.68,0,0,0,1.22-1.42,4.25,4.25,0,0,0,.43-2l0-2.06a5.23,5.23,0,0,0-1.43-1.3A3.3,3.3,0,0,0,829.5,637.31Zm12.59-1.74a5.05,5.05,0,0,1,2.75.69,4.34,4.34,0,0,1,1.65,1.87,6.36,6.36,0,0,1,.55,2.66v1.06h-8.25a3.9,3.9,0,0,0,.62,1.65,3.6,3.6,0,0,0,1.29,1.19,3.63,3.63,0,0,0,1.82.44,4.14,4.14,0,0,0,2.17-.59,7.47,7.47,0,0,0,1.7-1.3l0,1.92a4.51,4.51,0,0,1-.89.76,5.92,5.92,0,0,1-1.36.66,4.72,4.72,0,0,1-1.6.27,5.51,5.51,0,0,1-2.9-.77,5.62,5.62,0,0,1-2.7-4.86,6.09,6.09,0,0,1,.66-2.81,5.4,5.4,0,0,1,1.84-2.06A4.7,4.7,0,0,1,842.09,635.57Zm0,1.72a3,3,0,0,0-2.19.89,4,4,0,0,0-1.07,2.16h6.46a3.42,3.42,0,0,0-.59-1.72,3.08,3.08,0,0,0-1.17-1A3.14,3.14,0,0,0,842.09,637.29Zm13.62-5.91L850,650.83h-1.46l5.65-19.45Zm11.91,4.41-4.45,5.15,4.51,5.59h-2.27l-3.33-4.45-3.35,4.45h-2.28l4.51-5.59-4.45-5.15h2.28l3.29,3.87,3.26-3.87Zm7.7,4.34v1.93h-6.47v-1.93Zm5.14-8v6.05h8.21v-6.05h1.93v14.39h-1.93V640h-8.21v6.51h-1.93V632.14Zm18.33,3.43a5.08,5.08,0,0,1,2.75.69,4.25,4.25,0,0,1,1.64,1.87,6.21,6.21,0,0,1,.55,2.66v1.06h-8.25a3.9,3.9,0,0,0,.62,1.65,3.6,3.6,0,0,0,1.29,1.19,3.65,3.65,0,0,0,1.83.44,4.19,4.19,0,0,0,2.17-.59,7.4,7.4,0,0,0,1.69-1.3l0,1.92a4.23,4.23,0,0,1-.89.76,5.65,5.65,0,0,1-1.35.66,4.76,4.76,0,0,1-1.6.27,5.49,5.49,0,0,1-2.9-.77,5.6,5.6,0,0,1-2.71-4.86,6,6,0,0,1,.67-2.81,5.29,5.29,0,0,1,1.83-2.06A4.71,4.71,0,0,1,898.79,635.57Zm0,1.72a2.92,2.92,0,0,0-2.19.89,4,4,0,0,0-1.08,2.16H902a3.52,3.52,0,0,0-.59-1.72,3.08,3.08,0,0,0-1.17-1A3.17,3.17,0,0,0,898.79,637.29Zm10.22-1.5v10.74h-1.76v-9.09h-1.7v-1.65Zm-1.09-5.16a1.4,1.4,0,0,1,1,.44,1.46,1.46,0,0,1,.42,1,1.43,1.43,0,0,1-.42,1,1.44,1.44,0,0,1-2.09,0,1.42,1.42,0,0,1-.41-1,1.44,1.44,0,0,1,.41-1A1.4,1.4,0,0,1,907.92,630.63Zm8.89,4.94a4.48,4.48,0,0,1,1.87.44,5,5,0,0,1,1.65,1.22v-1.44h1.76v10.53a6.09,6.09,0,0,1-.77,3.18,5,5,0,0,1-2.07,1.89,6.43,6.43,0,0,1-2.81.62,5.57,5.57,0,0,1-1.69-.23,4.53,4.53,0,0,1-1.19-.56q-.49-.33-.9-.63V648.7l.85.61a6.19,6.19,0,0,0,1.26.68,4.44,4.44,0,0,0,1.67.3,4.69,4.69,0,0,0,1.93-.39,3.25,3.25,0,0,0,1.42-1.14,3,3,0,0,0,.54-1.8V644.7a5.21,5.21,0,0,1-1.52,1.51,3.78,3.78,0,0,1-2.18.64,4.68,4.68,0,0,1-2.51-.7,5.08,5.08,0,0,1-1.82-1.94,6,6,0,0,1-.67-2.88,6.53,6.53,0,0,1,.67-3.07,5,5,0,0,1,1.86-2A5.17,5.17,0,0,1,916.81,635.57Zm.32,1.74a3.35,3.35,0,0,0-2,.57,3.89,3.89,0,0,0-1.26,1.49,4.47,4.47,0,0,0-.44,2,4.23,4.23,0,0,0,.43,1.89,3.54,3.54,0,0,0,1.22,1.38,3.22,3.22,0,0,0,1.81.51,3.11,3.11,0,0,0,1.76-.51,3.63,3.63,0,0,0,1.23-1.42,4.37,4.37,0,0,0,.43-2l0-2.06a5.38,5.38,0,0,0-1.43-1.3A3.3,3.3,0,0,0,917.13,637.31Zm13.43-1.74a4,4,0,0,1,2,.49,3.44,3.44,0,0,1,1.44,1.46,5,5,0,0,1,.54,2.46v6.55h-1.76l0-6.38a3.3,3.3,0,0,0-.61-2.13,2.35,2.35,0,0,0-1.88-.73,2.78,2.78,0,0,0-1.71.64,7.46,7.46,0,0,0-1.5,1.47v7.13h-1.76V631.06h1.76v6.43a5.68,5.68,0,0,1,.89-.87,4.93,4.93,0,0,1,1.21-.75A3.43,3.43,0,0,1,930.56,635.57Zm9.82-2.88v3.1h3.14v1.65h-3.14v6.3a1.53,1.53,0,0,0,.34,1,1.34,1.34,0,0,0,1.06.39,3.26,3.26,0,0,0,1.07-.16,4.38,4.38,0,0,0,.75-.36v1.44a3.87,3.87,0,0,1-.91.55,3.55,3.55,0,0,1-1.3.2,2.54,2.54,0,0,1-2.07-.82,3.31,3.31,0,0,1-.7-2.21v-6.38h-2.06v-.51a4.22,4.22,0,0,0,1.76-1.56,11.55,11.55,0,0,0,1.24-2.68Zm5.58-1a9.18,9.18,0,0,1,1.23,1.84,16.57,16.57,0,0,1,1,2.45,21.47,21.47,0,0,1,.71,2.7,14,14,0,0,1,.25,2.57,14.56,14.56,0,0,1-.25,2.66,19.92,19.92,0,0,1-.71,2.68,15.81,15.81,0,0,1-1,2.39,9.7,9.7,0,0,1-1.23,1.83h1.95a10.87,10.87,0,0,0,1.68-2.42,16.47,16.47,0,0,0,1.3-3.34,14.21,14.21,0,0,0,.5-3.8,13.31,13.31,0,0,0-.29-2.8,16.89,16.89,0,0,0-.78-2.68,14.94,14.94,0,0,0-1.12-2.34,8.37,8.37,0,0,0-1.29-1.74Z" transform="translate(-241.88 -86.79)"/><text class="cls-13" transform="translate(486.58 615.38)"><tspan class="cls-15">U</tspan><tspan class="cls-22" x="16.02" y="0">n</tspan><tspan class="cls-23" x="28.43" y="0">t</tspan><tspan class="cls-9" x="38.17" y="0">e</tspan><tspan class="cls-14" x="50.15" y="0">rlä</tspan><tspan class="cls-21" x="78.95" y="0">n</tspan><tspan class="cls-14" x="92" y="0">g</tspan><tspan x="105.53" y="0">e </tspan></text><text class="cls-13" transform="translate(609.98 615.38)"> </text><text class="cls-16" transform="translate(486.58 639.38)"><tspan class="cls-15">(Un</tspan><tspan class="cls-14" x="35.2" y="0">ter</tspan><tspan class="cls-9" x="63.96" y="0">höh</tspan><tspan class="cls-14" x="101.14" y="0">e</tspan><tspan class="cls-9" x="112.99" y="0">/D</tspan><tspan class="cls-14" x="137.31" y="0">e</tspan><tspan class="cls-9" x="149.16" y="0">c</tspan><tspan class="cls-14" x="159.7" y="0">e</tspan><tspan class="cls-21" x="171.55" y="0">nd</tspan><tspan class="cls-14" x="196.6" y="0">er </tspan><tspan class="cls-9" x="222.51" y="0">d</tspan><tspan class="cls-14" x="235.43" y="0">e</tspan><tspan class="cls-24" x="247.28" y="0">p</tspan><tspan class="cls-14" x="259.78" y="0">t</tspan><tspan class="cls-9" x="268.67" y="0">h</tspan><tspan x="280.8" y="0">)</tspan></text></svg>