<svg id="Ebene_2" data-name="Ebene 2" xmlns="http://www.w3.org/2000/svg" xmlns:xlink="http://www.w3.org/1999/xlink" viewBox="0 0 606.08 447.99"><defs><style>.cls-1,.cls-3,.cls-4,.cls-5{fill:none;}.cls-2{fill:#ededed;}.cls-3{stroke:#b2b2b2;}.cls-3,.cls-4,.cls-5{stroke-linecap:square;}.cls-3,.cls-4{stroke-width:3px;}.cls-4{stroke:#ff7d5d;}.cls-5{stroke:#50e0ff;stroke-width:2.64px;}.cls-6{clip-path:url(#clip-path);}.cls-10,.cls-7{fill:#ff7d5d;}.cls-8{font-size:28px;}.cls-19,.cls-8{fill:#fff;}.cls-10,.cls-19,.cls-20,.cls-22,.cls-8{font-family:Sen-ExtraBold, Sen;font-weight:800;}.cls-20,.cls-22,.cls-23,.cls-9{fill:#50e0ff;}.cls-10,.cls-20,.cls-22,.cls-23{font-size:22px;}.cls-11{letter-spacing:-0.02em;}.cls-12,.cls-20{letter-spacing:-0.02em;}.cls-13{letter-spacing:-0.02em;}.cls-14{letter-spacing:-0.06em;}.cls-15{letter-spacing:-0.05em;}.cls-16{letter-spacing:-0.03em;}.cls-17{letter-spacing:-0.05em;}.cls-18{letter-spacing:-0.02em;}.cls-19{font-size:32px;}.cls-21{letter-spacing:0em;}.cls-23{font-family:Sen-Regular, Sen;}.cls-24{letter-spacing:-0.02em;}</style><clipPath id="clip-path" transform="translate(-358.13 -162.42)"><rect class="cls-1" x="358.13" y="162.42" width="677.92" height="447.99"/></clipPath></defs><polygon class="cls-2" points="251.85 43.43 251.85 192.49 278.15 192.49 278.15 163.92 291.19 150.88 322.87 192.49 355.99 192.49 308.58 133.28 353.71 87.94 320.8 87.94 278.15 134.52 278.15 43.43 251.85 43.43"/><path class="cls-2" d="M550.46,282q7.15,8.07,7.15,19.87a34,34,0,0,1-3.31,14.8A29.25,29.25,0,0,1,545,328a23.44,23.44,0,0,1-14.08,4.34,27.44,27.44,0,0,1-14.18-3.83,56.5,56.5,0,0,1-12.11-9.62V303.77q-.21-9.31,3.62-15.94a27.61,27.61,0,0,1,10-10.25A25.93,25.93,0,0,1,531.52,274q11.81,0,18.94,8.08m-32.6-28.47A40.32,40.32,0,0,0,504.61,268v-17.6h-26.3V404.6h26.3V343.11A47.32,47.32,0,0,0,519,353.77,38.67,38.67,0,0,0,536.28,358a46.43,46.43,0,0,0,24.54-6.73,47.5,47.5,0,0,0,17.59-19.36q6.52-12.63,6.53-30t-6.53-29.5A46.2,46.2,0,0,0,561.23,254a44.49,44.49,0,0,0-23.08-6.31,35.2,35.2,0,0,0-20.29,5.9" transform="translate(-358.13 -162.42)"/><line class="cls-3" x1="47.67" y1="52.33" x2="425.85" y2="52.33"/><line class="cls-3" x1="47.67" y1="41.92" x2="425.85" y2="41.92"/><line class="cls-4" x1="47.67" y1="17.5" x2="425.85" y2="17.5"/><line class="cls-4" x1="47.67" y1="267.94" x2="425.85" y2="267.94"/><line class="cls-3" x1="47.67" y1="86.46" x2="425.85" y2="86.46"/><line class="cls-5" x1="47.49" y1="193.77" x2="426.18" y2="193.77"/><line class="cls-3" x1="47.67" y1="243.68" x2="425.85" y2="243.68"/><g class="cls-6"><path class="cls-7" d="M374.13,194.42a16,16,0,1,0-16-16,16,16,0,0,0,16,16" transform="translate(-358.13 -162.42)"/><text class="cls-8" transform="translate(7.8 24.74)">1</text><path class="cls-7" d="M374.13,446.36a16,16,0,1,0-16-16,16,16,0,0,0,16,16" transform="translate(-358.13 -162.42)"/></g><text class="cls-8" transform="translate(7.8 276.68)">2</text><g class="cls-6"><path class="cls-9" d="M816.81,372.12a16,16,0,1,0-16-16,16,16,0,0,0,16,16" transform="translate(-358.13 -162.42)"/></g><text class="cls-8" transform="translate(450.47 202.44)">3</text><text class="cls-10" transform="translate(99.75 356.99)"><tspan class="cls-11">Ke</tspan><tspan class="cls-12" x="27.8" y="0">g</tspan><tspan class="cls-11" x="41.33" y="0">e</tspan><tspan class="cls-12" x="53.31" y="0">l</tspan><tspan class="cls-13" x="59.59" y="0">o</tspan><tspan class="cls-12" x="72.69" y="0">b</tspan><tspan class="cls-11" x="86.21" y="0">e</tspan><tspan class="cls-12" x="98.19" y="0">r</tspan><tspan class="cls-14" x="107.18" y="0">k</tspan><tspan class="cls-12" x="119.35" y="0">a</tspan><tspan class="cls-15" x="132.88" y="0">n</tspan><tspan class="cls-16" x="145.29" y="0">t</tspan><tspan x="155.03" y="0">e </tspan></text><text class="cls-10" transform="translate(99.75 436.62)"><tspan class="cls-11">Ke</tspan><tspan class="cls-12" x="27.8" y="0">g</tspan><tspan class="cls-11" x="41.33" y="0">e</tspan><tspan class="cls-12" x="53.31" y="0">l</tspan><tspan class="cls-13" x="59.59" y="0">u</tspan><tspan class="cls-17" x="72.43" y="0">n</tspan><tspan class="cls-16" x="84.84" y="0">t</tspan><tspan class="cls-11" x="94.58" y="0">e</tspan><tspan class="cls-12" x="106.56" y="0">r</tspan><tspan class="cls-14" x="115.55" y="0">k</tspan><tspan class="cls-18" x="127.72" y="0">a</tspan><tspan class="cls-17" x="141.25" y="0">n</tspan><tspan class="cls-16" x="153.66" y="0">t</tspan><tspan x="163.4" y="0">e</tspan></text><g class="cls-6"><path class="cls-7" d="M422.87,530.77a18.57,18.57,0,1,0-18.57-18.56,18.56,18.56,0,0,0,18.57,18.56" transform="translate(-358.13 -162.42)"/></g><text class="cls-19" transform="translate(55.36 358.78)">1</text><g class="cls-6"><path class="cls-7" d="M423,610.41a18.57,18.57,0,1,0-18.57-18.56A18.56,18.56,0,0,0,423,610.41" transform="translate(-358.13 -162.42)"/></g><text class="cls-19" transform="translate(55.5 438.43)">2</text><text class="cls-20" transform="translate(392.03 344.35)">Sc<tspan class="cls-11" x="21.62" y="0">h</tspan><tspan x="34.67" y="0">r</tspan><tspan class="cls-11" x="43.66" y="0">i</tspan><tspan class="cls-18" x="51.19" y="0">ftl</tspan><tspan class="cls-11" x="76.32" y="0">ini</tspan><tspan class="cls-21" x="104.43" y="0">e </tspan></text><text class="cls-22" transform="translate(514.3 344.35)"> </text><text class="cls-23" transform="translate(392.03 368.35)"><tspan class="cls-11">(</tspan><tspan class="cls-12" x="7.36" y="0">Gru</tspan><tspan class="cls-11" x="41.73" y="0">ndl</tspan><tspan class="cls-12" x="71.75" y="0">i</tspan><tspan class="cls-11" x="77.95" y="0">n</tspan><tspan class="cls-12" x="90.08" y="0">ie</tspan><tspan class="cls-13" x="108.13" y="0">/</tspan><tspan class="cls-12" x="116.58" y="0">B</tspan><tspan class="cls-13" x="130.88" y="0">a</tspan><tspan class="cls-12" x="143.8" y="0">se </tspan><tspan class="cls-24" x="170.46" y="0">l</tspan><tspan class="cls-12" x="175.43" y="0">i</tspan><tspan class="cls-13" x="181.63" y="0">n</tspan><tspan class="cls-12" x="193.76" y="0">e</tspan><tspan x="205.61" y="0">)</tspan></text><g class="cls-6"><path class="cls-9" d="M715.28,530.14a18.57,18.57,0,1,0-18.56-18.56,18.56,18.56,0,0,0,18.56,18.56" transform="translate(-358.13 -162.42)"/></g><text class="cls-19" transform="translate(347.78 358.15)">3</text></svg>