<svg id="Ebene_2" data-name="Ebene 2" xmlns="http://www.w3.org/2000/svg" xmlns:xlink="http://www.w3.org/1999/xlink" viewBox="0 0 604.58 447.99"><defs><style>.cls-1,.cls-3,.cls-4,.cls-5{fill:none;}.cls-2{fill:#ededed;}.cls-3{stroke:#b2b2b2;}.cls-3,.cls-4,.cls-5{stroke-linecap:square;}.cls-3,.cls-4{stroke-width:3px;}.cls-4{stroke:#ff7d5d;}.cls-5{stroke:#50e0ff;stroke-width:2.64px;}.cls-6{clip-path:url(#clip-path);}.cls-7{fill:#ff7d5d;}.cls-8{fill:#fff;}.cls-9{fill:#50e0ff;}</style><clipPath id="clip-path" transform="translate(-358.13 -162.42)"><rect class="cls-1" x="358.13" y="162.42" width="677.92" height="447.99"/></clipPath></defs><polygon class="cls-2" points="251.85 43.43 251.85 192.49 278.15 192.49 278.15 163.92 291.19 150.88 322.87 192.49 355.99 192.49 308.58 133.28 353.71 87.94 320.8 87.94 278.15 134.52 278.15 43.43 251.85 43.43"/><path class="cls-2" d="M550.46,282q7.15,8.07,7.15,19.87a34,34,0,0,1-3.31,14.8A29.25,29.25,0,0,1,545,328a23.44,23.44,0,0,1-14.08,4.34,27.44,27.44,0,0,1-14.18-3.83,56.5,56.5,0,0,1-12.11-9.62V303.77q-.21-9.31,3.62-15.94a27.61,27.61,0,0,1,10-10.25A25.93,25.93,0,0,1,531.52,274q11.81,0,18.94,8.08m-32.6-28.47A40.32,40.32,0,0,0,504.61,268v-17.6h-26.3V404.6h26.3V343.11A47.32,47.32,0,0,0,519,353.77,38.67,38.67,0,0,0,536.28,358a46.43,46.43,0,0,0,24.54-6.73,47.5,47.5,0,0,0,17.59-19.36q6.52-12.63,6.53-30t-6.53-29.5A46.2,46.2,0,0,0,561.23,254a44.49,44.49,0,0,0-23.08-6.31,35.2,35.2,0,0,0-20.29,5.9" transform="translate(-358.13 -162.42)"/><line class="cls-3" x1="47.67" y1="52.33" x2="425.85" y2="52.33"/><line class="cls-3" x1="47.67" y1="41.92" x2="425.85" y2="41.92"/><line class="cls-4" x1="47.67" y1="17.5" x2="425.85" y2="17.5"/><line class="cls-4" x1="47.67" y1="267.94" x2="425.85" y2="267.94"/><line class="cls-3" x1="47.67" y1="86.46" x2="425.85" y2="86.46"/><line class="cls-5" x1="47.49" y1="193.77" x2="426.18" y2="193.77"/><line class="cls-3" x1="47.67" y1="243.68" x2="425.85" y2="243.68"/><g class="cls-6"><path class="cls-7" d="M374.13,194.42a16,16,0,1,0-16-16,16,16,0,0,0,16,16" transform="translate(-358.13 -162.42)"/><path class="cls-8" d="M380.64,182.65v4.51H368v-4.51h3.85V175.4a7.09,7.09,0,0,1-1.81,1.09,16.06,16.06,0,0,1-1.9.69v-5.06a16.87,16.87,0,0,0,2.59-1.23,8.16,8.16,0,0,0,2.38-2H377v13.81Z" transform="translate(-358.13 -162.42)"/><path class="cls-7" d="M374.13,446.36a16,16,0,1,0-16-16,16,16,0,0,0,16,16" transform="translate(-358.13 -162.42)"/></g><path class="cls-8" d="M373.91,420.37a7.51,7.51,0,0,1,3.41.73,5.77,5.77,0,0,1,2.28,2,5.32,5.32,0,0,1,.82,2.95,8.83,8.83,0,0,1-.31,2.42,7.68,7.68,0,0,1-.95,2,18.77,18.77,0,0,1-1.56,2L375.47,435h5.09v4.11H368.12V437q2.46-2.58,4-4.32a20.49,20.49,0,0,0,2.3-3,4.5,4.5,0,0,0,.74-2.23,2.24,2.24,0,0,0-.66-1.68,2.41,2.41,0,0,0-1.75-.64,5.14,5.14,0,0,0-2.36.64,6.81,6.81,0,0,0-2,1.58v-5.2a7.25,7.25,0,0,1,2.45-1.3A9.54,9.54,0,0,1,373.91,420.37Z" transform="translate(-358.13 -162.42)"/><g class="cls-6"><path class="cls-9" d="M816.81,372.12a16,16,0,1,0-16-16,16,16,0,0,0,16,16" transform="translate(-358.13 -162.42)"/></g><path class="cls-8" d="M815.77,346.12a9.54,9.54,0,0,1,3.65.67,6,6,0,0,1,2.5,1.86,4.45,4.45,0,0,1,.9,2.75,4,4,0,0,1-1,2.91,4.18,4.18,0,0,1-2.51,1.3,4.88,4.88,0,0,1,2.51,1.26,3.75,3.75,0,0,1,1,2.84,4.6,4.6,0,0,1-1,2.92,6.56,6.56,0,0,1-2.63,1.94,9.14,9.14,0,0,1-3.58.7,9.56,9.56,0,0,1-2.61-.36,6.25,6.25,0,0,1-2-.93v-4.46a8.61,8.61,0,0,0,1.85.92,5.85,5.85,0,0,0,1.92.31,4.11,4.11,0,0,0,2-.45,1.54,1.54,0,0,0,.82-1.46,1.12,1.12,0,0,0-.41-.94,2.21,2.21,0,0,0-1.08-.41,9.09,9.09,0,0,0-1.41-.1h-1.36v-3.72h2.77a2.22,2.22,0,0,0,1.08-.23.93.93,0,0,0,.41-.89,1.53,1.53,0,0,0-.87-1.46,4.21,4.21,0,0,0-2-.45,4.77,4.77,0,0,0-3.36,1.42v-4.4a5.84,5.84,0,0,1,1.79-1.1A6.91,6.91,0,0,1,815.77,346.12Z" transform="translate(-358.13 -162.42)"/><path class="cls-7" d="M463.83,505v5.29l4.4-5.29h4.84l-5.2,5.91,5.84,8.49H468.6L465.14,514l-1.31,1.48v3.94h-4V505Z" transform="translate(-358.13 -162.42)"/><path class="cls-7" d="M480.28,508.13a5.52,5.52,0,0,1,2.75.68,4.85,4.85,0,0,1,1.88,1.93,6,6,0,0,1,.67,2.93v1.27h-7.45a1.92,1.92,0,0,0,.94,1.18,3.37,3.37,0,0,0,1.64.38,5.9,5.9,0,0,0,2.16-.35,12.29,12.29,0,0,0,1.36-.61v3.16a7.4,7.4,0,0,1-1.54.68,6.85,6.85,0,0,1-4.44,0,6.2,6.2,0,0,1-1.95-1.12,5.15,5.15,0,0,1-1.35-1.77,5.4,5.4,0,0,1-.49-2.35,6,6,0,0,1,2.84-5.16A5.57,5.57,0,0,1,480.28,508.13Zm-.11,3.05a2,2,0,0,0-1.22.37,2.15,2.15,0,0,0-.76,1.15h3.89a1.28,1.28,0,0,0-.59-1.15A2.39,2.39,0,0,0,480.17,511.18Z" transform="translate(-358.13 -162.42)"/><path class="cls-7" d="M491.37,508.13a4,4,0,0,1,1.69.37,4.21,4.21,0,0,1,1.37,1v-1h3.69v10.63a5.39,5.39,0,0,1-.86,3,5.81,5.81,0,0,1-2.28,2,6.63,6.63,0,0,1-3.11.73,6.9,6.9,0,0,1-2.39-.37,10.49,10.49,0,0,1-2-1V520.2l1.26.69a5.71,5.71,0,0,0,2.8.66,2.94,2.94,0,0,0,2.12-.75,2.32,2.32,0,0,0,.79-1.7v-1.52a3.89,3.89,0,0,1-1.25,1.52,3.26,3.26,0,0,1-2,.63,4.47,4.47,0,0,1-4.05-2.55,7,7,0,0,1-.68-3.27,6.68,6.68,0,0,1,.68-3.14,4.86,4.86,0,0,1,1.8-2A4.74,4.74,0,0,1,491.37,508.13Zm.78,3.61a1.63,1.63,0,0,0-1.32.64,2.35,2.35,0,0,0-.53,1.53,2.14,2.14,0,0,0,.54,1.48,1.81,1.81,0,0,0,1.42.6,2.08,2.08,0,0,0,1-.25,2.24,2.24,0,0,0,.85-.75,2.19,2.19,0,0,0,.36-1.3v-1.05a4.77,4.77,0,0,0-1.07-.65A3,3,0,0,0,492.15,511.74Z" transform="translate(-358.13 -162.42)"/><path class="cls-7" d="M505.78,508.13a5.52,5.52,0,0,1,2.75.68,4.85,4.85,0,0,1,1.88,1.93,6,6,0,0,1,.68,2.93v1.27h-7.46a1.91,1.91,0,0,0,.95,1.18,3.3,3.3,0,0,0,1.63.38,5.9,5.9,0,0,0,2.16-.35,11.48,11.48,0,0,0,1.36-.61v3.16a7.53,7.53,0,0,1-1.53.68,6.88,6.88,0,0,1-4.45,0,6.15,6.15,0,0,1-1.94-1.12,5.06,5.06,0,0,1-1.36-1.77,5.4,5.4,0,0,1-.49-2.35,6,6,0,0,1,2.85-5.16A5.56,5.56,0,0,1,505.78,508.13Zm-.11,3.05a2,2,0,0,0-1.22.37,2.08,2.08,0,0,0-.75,1.15h3.89a1.27,1.27,0,0,0-.6-1.15A2.39,2.39,0,0,0,505.67,511.18Z" transform="translate(-358.13 -162.42)"/><path class="cls-7" d="M516.38,503.94v15.47h-3.69V503.94Z" transform="translate(-358.13 -162.42)"/><path class="cls-7" d="M524.24,508.13a5.84,5.84,0,0,1,2.21.43,6.14,6.14,0,0,1,1.93,1.2,5.68,5.68,0,0,1,1.37,1.84,5.41,5.41,0,0,1,.5,2.33,5.47,5.47,0,0,1-.5,2.33,5.64,5.64,0,0,1-1.37,1.83,6.35,6.35,0,0,1-1.93,1.21,5.92,5.92,0,0,1-4.43,0,6.47,6.47,0,0,1-1.93-1.21,5.61,5.61,0,0,1-1.36-1.83,5.33,5.33,0,0,1-.51-2.33,5.27,5.27,0,0,1,.51-2.33,5.65,5.65,0,0,1,1.36-1.84,6.25,6.25,0,0,1,1.93-1.2A5.89,5.89,0,0,1,524.24,508.13Zm0,3.54a2.72,2.72,0,0,0-.87.17,1.75,1.75,0,0,0-.83.66,2.46,2.46,0,0,0-.34,1.43,2.43,2.43,0,0,0,.34,1.41,1.66,1.66,0,0,0,.83.67,2.34,2.34,0,0,0,1.75,0,1.66,1.66,0,0,0,.81-.67,2.42,2.42,0,0,0,.35-1.41,2.45,2.45,0,0,0-.35-1.43,1.75,1.75,0,0,0-.81-.66A2.73,2.73,0,0,0,524.24,511.67Z" transform="translate(-358.13 -162.42)"/><path class="cls-7" d="M538.81,508.13a4.69,4.69,0,0,1,2.46.67,4.81,4.81,0,0,1,1.81,2,6.68,6.68,0,0,1,.68,3.14,7.18,7.18,0,0,1-.67,3.27,4.44,4.44,0,0,1-1.75,1.92,4.51,4.51,0,0,1-2.31.63,3.26,3.26,0,0,1-2-.63,3.89,3.89,0,0,1-1.25-1.52v1.83h-3.69V503.94h3.69v5.52a4.21,4.21,0,0,1,1.37-1A4,4,0,0,1,538.81,508.13Zm-.77,3.61a3,3,0,0,0-1.19.25,5.15,5.15,0,0,0-1.09.65v1.05a2.19,2.19,0,0,0,.36,1.3,2.13,2.13,0,0,0,.86.75,2.08,2.08,0,0,0,.95.25,1.81,1.81,0,0,0,1.42-.6,2.14,2.14,0,0,0,.54-1.48,2.34,2.34,0,0,0-.52-1.53A1.62,1.62,0,0,0,538,511.74Z" transform="translate(-358.13 -162.42)"/><path class="cls-7" d="M550.66,508.13a5.5,5.5,0,0,1,2.75.68,4.79,4.79,0,0,1,1.88,1.93,5.9,5.9,0,0,1,.68,2.93v1.27h-7.45a1.89,1.89,0,0,0,.94,1.18,3.33,3.33,0,0,0,1.63.38,5.9,5.9,0,0,0,2.16-.35,11.78,11.78,0,0,0,1.37-.61v3.16a7.92,7.92,0,0,1-1.54.68,6.55,6.55,0,0,1-2.2.35,6.66,6.66,0,0,1-2.25-.39,6.15,6.15,0,0,1-1.94-1.12,5.15,5.15,0,0,1-1.35-1.77,5.4,5.4,0,0,1-.5-2.35,6,6,0,0,1,2.85-5.16A5.56,5.56,0,0,1,550.66,508.13Zm-.1,3.05a2,2,0,0,0-1.23.37,2.19,2.19,0,0,0-.75,1.15h3.89a1.28,1.28,0,0,0-.59-1.15A2.44,2.44,0,0,0,550.56,511.18Z" transform="translate(-358.13 -162.42)"/><path class="cls-7" d="M565.05,512.51a2.84,2.84,0,0,0-.68-.27,3.31,3.31,0,0,0-.83-.1,2.12,2.12,0,0,0-1.33.45,3.5,3.5,0,0,0-.94,1.19v5.63h-3.7v-11h3.7v1.95a7.49,7.49,0,0,1,1.15-1.52,2.21,2.21,0,0,1,1.66-.65,2.24,2.24,0,0,1,1,.2Z" transform="translate(-358.13 -162.42)"/><path class="cls-7" d="M570.26,503.94v8.91l3.5-4.4h4.47l-4.43,4.72,4.62,6.24h-4.66l-2.32-3.7L570.26,517v2.45h-3.7V503.94Z" transform="translate(-358.13 -162.42)"/><path class="cls-7" d="M582.93,508.13a4,4,0,0,1,1.68.37,4.21,4.21,0,0,1,1.37,1v-1h3.69v11H586v-1.83a3.89,3.89,0,0,1-1.25,1.52,3.26,3.26,0,0,1-2,.63,4.5,4.5,0,0,1-2.3-.63,4.57,4.57,0,0,1-1.75-1.92,7,7,0,0,1-.68-3.27,6.68,6.68,0,0,1,.68-3.14,4.81,4.81,0,0,1,1.81-2A4.69,4.69,0,0,1,582.93,508.13Zm.77,3.61a1.63,1.63,0,0,0-1.32.64,2.35,2.35,0,0,0-.53,1.53,2.14,2.14,0,0,0,.54,1.48,1.81,1.81,0,0,0,1.42.6,2.08,2.08,0,0,0,1-.25,2.17,2.17,0,0,0,.85-.75,2.19,2.19,0,0,0,.36-1.3v-1.05a4.77,4.77,0,0,0-1.07-.65A3,3,0,0,0,583.7,511.74Z" transform="translate(-358.13 -162.42)"/><path class="cls-7" d="M596,508.45v1.42a5.22,5.22,0,0,1,1.25-1.23,3.19,3.19,0,0,1,1.84-.51,3.6,3.6,0,0,1,2.74,1.13,4.79,4.79,0,0,1,1.06,3.38v6.77h-3.69l0-6.19a1.33,1.33,0,0,0-.45-1.15,1.67,1.67,0,0,0-1-.33,1.58,1.58,0,0,0-1,.31,2.94,2.94,0,0,0-.71.74v6.62h-3.7v-11Z" transform="translate(-358.13 -162.42)"/><path class="cls-7" d="M609.57,505.23v3.22h2.88v2.9h-2.88v3.07a2.14,2.14,0,0,0,.34,1.26,1.07,1.07,0,0,0,.93.46,3.39,3.39,0,0,0,1.74-.47v2.88a2.79,2.79,0,0,1-1.08.82,4.16,4.16,0,0,1-1.82.36,3.79,3.79,0,0,1-1.89-.48,3.57,3.57,0,0,1-1.38-1.35,4,4,0,0,1-.53-2.13v-4.42H604v-2.26a5,5,0,0,0,2.07-1.21,5.43,5.43,0,0,0,1.5-2.65Z" transform="translate(-358.13 -162.42)"/><path class="cls-7" d="M619.49,508.13a5.55,5.55,0,0,1,2.75.68,4.92,4.92,0,0,1,1.88,1.93,6,6,0,0,1,.67,2.93v1.27h-7.45a1.89,1.89,0,0,0,.94,1.18,3.34,3.34,0,0,0,1.64.38,5.8,5.8,0,0,0,2.15-.35,11.78,11.78,0,0,0,1.37-.61v3.16a7.65,7.65,0,0,1-1.54.68,6.85,6.85,0,0,1-4.44,0,6.09,6.09,0,0,1-2-1.12,5.15,5.15,0,0,1-1.35-1.77,5.4,5.4,0,0,1-.5-2.35,6,6,0,0,1,2.85-5.16A5.57,5.57,0,0,1,619.49,508.13Zm-.11,3.05a2.06,2.06,0,0,0-1.23.37,2.19,2.19,0,0,0-.75,1.15h3.89a1.28,1.28,0,0,0-.59-1.15A2.41,2.41,0,0,0,619.38,511.18Z" transform="translate(-358.13 -162.42)"/><path class="cls-7" d="M463.83,584.65v5.29l4.4-5.29h4.84l-5.2,5.91,5.84,8.48H468.6l-3.46-5.41-1.31,1.48V599h-4V584.65Z" transform="translate(-358.13 -162.42)"/><path class="cls-7" d="M480.28,587.77a5.52,5.52,0,0,1,2.75.68,4.85,4.85,0,0,1,1.88,1.93,6,6,0,0,1,.67,2.93v1.27h-7.45a1.92,1.92,0,0,0,.94,1.18,3.37,3.37,0,0,0,1.64.38,5.9,5.9,0,0,0,2.16-.35,12.29,12.29,0,0,0,1.36-.61v3.16a8,8,0,0,1-1.54.68,6.85,6.85,0,0,1-4.44,0,6.2,6.2,0,0,1-1.95-1.12,5.15,5.15,0,0,1-1.35-1.77,5.4,5.4,0,0,1-.49-2.35,6,6,0,0,1,2.84-5.16A5.57,5.57,0,0,1,480.28,587.77Zm-.11,3.05a2,2,0,0,0-1.22.37,2.15,2.15,0,0,0-.76,1.15h3.89a1.28,1.28,0,0,0-.59-1.15A2.39,2.39,0,0,0,480.17,590.82Z" transform="translate(-358.13 -162.42)"/><path class="cls-7" d="M491.37,587.77a4,4,0,0,1,1.69.37,4.21,4.21,0,0,1,1.37,1v-1h3.69v10.63a5.39,5.39,0,0,1-.86,3,5.81,5.81,0,0,1-2.28,2,6.63,6.63,0,0,1-3.11.73,6.9,6.9,0,0,1-2.39-.37,10.49,10.49,0,0,1-2-1v-3.27l1.26.69a5.71,5.71,0,0,0,2.8.66,2.94,2.94,0,0,0,2.12-.75,2.32,2.32,0,0,0,.79-1.7v-1.52a3.89,3.89,0,0,1-1.25,1.52,3.26,3.26,0,0,1-2,.63,4.47,4.47,0,0,1-4.05-2.55,7.06,7.06,0,0,1-.68-3.28,6.67,6.67,0,0,1,.68-3.13,4.86,4.86,0,0,1,1.8-2A4.74,4.74,0,0,1,491.37,587.77Zm.78,3.61a1.63,1.63,0,0,0-1.32.64,2.34,2.34,0,0,0-.53,1.52,2.15,2.15,0,0,0,.54,1.49,1.81,1.81,0,0,0,1.42.6,2.08,2.08,0,0,0,1-.25,2.24,2.24,0,0,0,.85-.75,2.19,2.19,0,0,0,.36-1.3v-1.05a4.43,4.43,0,0,0-1.07-.65A3,3,0,0,0,492.15,591.38Z" transform="translate(-358.13 -162.42)"/><path class="cls-7" d="M505.78,587.77a5.52,5.52,0,0,1,2.75.68,4.85,4.85,0,0,1,1.88,1.93,6,6,0,0,1,.68,2.93v1.27h-7.46a1.91,1.91,0,0,0,.95,1.18,3.3,3.3,0,0,0,1.63.38,5.9,5.9,0,0,0,2.16-.35,11.48,11.48,0,0,0,1.36-.61v3.16a8.13,8.13,0,0,1-1.53.68,6.88,6.88,0,0,1-4.45,0,6.15,6.15,0,0,1-1.94-1.12,5.06,5.06,0,0,1-1.36-1.77,5.4,5.4,0,0,1-.49-2.35,6,6,0,0,1,2.85-5.16A5.56,5.56,0,0,1,505.78,587.77Zm-.11,3.05a2,2,0,0,0-1.22.37,2.08,2.08,0,0,0-.75,1.15h3.89a1.27,1.27,0,0,0-.6-1.15A2.39,2.39,0,0,0,505.67,590.82Z" transform="translate(-358.13 -162.42)"/><path class="cls-7" d="M516.38,583.58V599h-3.69V583.58Z" transform="translate(-358.13 -162.42)"/><path class="cls-7" d="M529.35,588.09v6.57a4.61,4.61,0,0,1-.68,2.54,4.39,4.39,0,0,1-1.85,1.61,6.84,6.84,0,0,1-5.42,0,4.36,4.36,0,0,1-1.86-1.61,4.6,4.6,0,0,1-.67-2.54v-6.57h3.69l0,5.58a2.93,2.93,0,0,0,.36,1.64,1.31,1.31,0,0,0,1.17.51,1.33,1.33,0,0,0,1.17-.51,2.94,2.94,0,0,0,.35-1.64l0-5.58Z" transform="translate(-358.13 -162.42)"/><path class="cls-7" d="M535.51,588.09v1.42a5,5,0,0,1,1.25-1.23,3.19,3.19,0,0,1,1.84-.51,3.6,3.6,0,0,1,2.74,1.13,4.79,4.79,0,0,1,1.06,3.38V599h-3.69l0-6.18a1.31,1.31,0,0,0-.46-1.15,1.65,1.65,0,0,0-1-.33,1.62,1.62,0,0,0-1,.31,3.09,3.09,0,0,0-.7.74V599h-3.7V588.09Z" transform="translate(-358.13 -162.42)"/><path class="cls-7" d="M549.12,584.87v3.22H552V591h-2.88v3.07a2.07,2.07,0,0,0,.34,1.26,1.07,1.07,0,0,0,.93.46,3.39,3.39,0,0,0,1.74-.47v2.88a2.79,2.79,0,0,1-1.08.82,4.16,4.16,0,0,1-1.82.36,3.79,3.79,0,0,1-1.89-.48,3.67,3.67,0,0,1-1.39-1.35,4.08,4.08,0,0,1-.52-2.13V591h-1.85v-2.26a5,5,0,0,0,2.07-1.21,5.51,5.51,0,0,0,1.5-2.65Z" transform="translate(-358.13 -162.42)"/><path class="cls-7" d="M559,587.77a5.5,5.5,0,0,1,2.75.68,4.79,4.79,0,0,1,1.88,1.93,5.9,5.9,0,0,1,.68,2.93v1.27h-7.45a1.89,1.89,0,0,0,.94,1.18,3.33,3.33,0,0,0,1.63.38,5.9,5.9,0,0,0,2.16-.35,11.78,11.78,0,0,0,1.37-.61v3.16a8.58,8.58,0,0,1-1.54.68,6.55,6.55,0,0,1-2.2.35A6.66,6.66,0,0,1,557,599a6.15,6.15,0,0,1-1.94-1.12,5.15,5.15,0,0,1-1.35-1.77,5.4,5.4,0,0,1-.5-2.35,6,6,0,0,1,2.85-5.16A5.56,5.56,0,0,1,559,587.77Zm-.1,3.05a2,2,0,0,0-1.23.37,2.19,2.19,0,0,0-.75,1.15h3.89a1.28,1.28,0,0,0-.59-1.15A2.44,2.44,0,0,0,558.93,590.82Z" transform="translate(-358.13 -162.42)"/><path class="cls-7" d="M573.42,592.15a2.84,2.84,0,0,0-.68-.27,3.31,3.31,0,0,0-.83-.1,2.12,2.12,0,0,0-1.33.45,3.5,3.5,0,0,0-.94,1.19V599h-3.7V588.09h3.7V590a7.49,7.49,0,0,1,1.15-1.52,2.21,2.21,0,0,1,1.66-.65,2.24,2.24,0,0,1,1,.2Z" transform="translate(-358.13 -162.42)"/><path class="cls-7" d="M578.63,583.58v8.91l3.5-4.4h4.47l-4.43,4.72,4.62,6.23h-4.66l-2.32-3.69-1.18,1.25V599h-3.7V583.58Z" transform="translate(-358.13 -162.42)"/><path class="cls-7" d="M591.3,587.77a4,4,0,0,1,1.68.37,4.21,4.21,0,0,1,1.37,1v-1H598V599h-3.69v-1.82a3.89,3.89,0,0,1-1.25,1.52,3.26,3.26,0,0,1-2,.63,4.5,4.5,0,0,1-2.3-.63,4.57,4.57,0,0,1-1.75-1.92,7.06,7.06,0,0,1-.68-3.28,6.67,6.67,0,0,1,.68-3.13,4.81,4.81,0,0,1,1.81-2A4.69,4.69,0,0,1,591.3,587.77Zm.77,3.61a1.63,1.63,0,0,0-1.32.64,2.34,2.34,0,0,0-.53,1.52,2.15,2.15,0,0,0,.54,1.49,1.81,1.81,0,0,0,1.42.6,2.08,2.08,0,0,0,1-.25,2.17,2.17,0,0,0,.85-.75,2.19,2.19,0,0,0,.36-1.3v-1.05a4.43,4.43,0,0,0-1.07-.65A3,3,0,0,0,592.07,591.38Z" transform="translate(-358.13 -162.42)"/><path class="cls-7" d="M604.33,588.09v1.42a5,5,0,0,1,1.25-1.23,3.19,3.19,0,0,1,1.84-.51,3.6,3.6,0,0,1,2.74,1.13,4.79,4.79,0,0,1,1.06,3.38V599h-3.69l0-6.18a1.33,1.33,0,0,0-.45-1.15,1.69,1.69,0,0,0-1-.33,1.58,1.58,0,0,0-1,.31,2.94,2.94,0,0,0-.71.74V599h-3.7V588.09Z" transform="translate(-358.13 -162.42)"/><path class="cls-7" d="M617.94,584.87v3.22h2.88V591h-2.88v3.07a2.14,2.14,0,0,0,.34,1.26,1.07,1.07,0,0,0,.93.46,3.39,3.39,0,0,0,1.74-.47v2.88a2.79,2.79,0,0,1-1.08.82,4.16,4.16,0,0,1-1.82.36,3.79,3.79,0,0,1-1.89-.48,3.57,3.57,0,0,1-1.38-1.35,4,4,0,0,1-.53-2.13V591H612.4v-2.26a5.06,5.06,0,0,0,2.08-1.21,5.5,5.5,0,0,0,1.49-2.65Z" transform="translate(-358.13 -162.42)"/><path class="cls-7" d="M627.86,587.77a5.55,5.55,0,0,1,2.75.68,4.92,4.92,0,0,1,1.88,1.93,6,6,0,0,1,.67,2.93v1.27h-7.45a1.89,1.89,0,0,0,.94,1.18,3.34,3.34,0,0,0,1.64.38,5.8,5.8,0,0,0,2.15-.35,11.78,11.78,0,0,0,1.37-.61v3.16a8.27,8.27,0,0,1-1.54.68,6.85,6.85,0,0,1-4.44,0,6.09,6.09,0,0,1-2-1.12,5.15,5.15,0,0,1-1.35-1.77,5.4,5.4,0,0,1-.5-2.35,6,6,0,0,1,2.85-5.16A5.57,5.57,0,0,1,627.86,587.77Zm-.11,3.05a2.06,2.06,0,0,0-1.23.37,2.19,2.19,0,0,0-.75,1.15h3.89a1.28,1.28,0,0,0-.59-1.15A2.41,2.41,0,0,0,627.75,590.82Z" transform="translate(-358.13 -162.42)"/><g class="cls-6"><path class="cls-7" d="M422.87,530.77a18.57,18.57,0,1,0-18.57-18.56,18.56,18.56,0,0,0,18.57,18.56" transform="translate(-358.13 -162.42)"/></g><path class="cls-8" d="M430.31,516.05v5.15H415.84v-5.15h4.4v-8.28a8.51,8.51,0,0,1-2.07,1.25,19.52,19.52,0,0,1-2.18.78V504a17.72,17.72,0,0,0,3-1.41,9.22,9.22,0,0,0,2.72-2.34h4.41v15.78Z" transform="translate(-358.13 -162.42)"/><g class="cls-6"><path class="cls-7" d="M423,610.41a18.57,18.57,0,1,0-18.57-18.56A18.56,18.56,0,0,0,423,610.41" transform="translate(-358.13 -162.42)"/></g><path class="cls-8" d="M422.76,579.44a8.57,8.57,0,0,1,3.89.84,6.62,6.62,0,0,1,2.61,2.32,6.16,6.16,0,0,1,.93,3.37,9.74,9.74,0,0,1-.36,2.77,8.67,8.67,0,0,1-1.07,2.29,23.76,23.76,0,0,1-1.78,2.32c-.71.81-1.53,1.75-2.44,2.81h5.81v4.69H416.13v-2.38c1.88-2,3.41-3.6,4.6-4.94a23.42,23.42,0,0,0,2.62-3.42,5.16,5.16,0,0,0,.84-2.55,2.57,2.57,0,0,0-.75-1.92,2.72,2.72,0,0,0-2-.73,5.77,5.77,0,0,0-2.7.73,7.74,7.74,0,0,0-2.3,1.8V581.5a8.3,8.3,0,0,1,2.8-1.48A11,11,0,0,1,422.76,579.44Z" transform="translate(-358.13 -162.42)"/><path class="cls-9" d="M756.45,492.06a10.15,10.15,0,0,1,2.51.31,6.31,6.31,0,0,1,2,.82v3.89a18.43,18.43,0,0,0-1.82-.93,5.19,5.19,0,0,0-2.13-.4,3.11,3.11,0,0,0-1.23.22.73.73,0,0,0-.51.7.87.87,0,0,0,.62.81c.42.18.93.38,1.53.61l1.54.58a4.37,4.37,0,0,1,2.23,1.64,3.84,3.84,0,0,1,.65,2.06,4,4,0,0,1-.79,2.44,5.41,5.41,0,0,1-2.15,1.67,7.23,7.23,0,0,1-3,.61,7.63,7.63,0,0,1-2.56-.45,9.32,9.32,0,0,1-2.21-1.11v-3.89a10.63,10.63,0,0,0,2.22,1.27,6.24,6.24,0,0,0,2.4.49,3.36,3.36,0,0,0,1.21-.18.66.66,0,0,0,.47-.64A.69.69,0,0,0,757,502a3.33,3.33,0,0,0-.92-.4l-2-.65a4.64,4.64,0,0,1-1.87-1.05,3.63,3.63,0,0,1-.93-1.49,5.72,5.72,0,0,1-.25-1.69,4.17,4.17,0,0,1,.77-2.57,5,5,0,0,1,2-1.58A6.73,6.73,0,0,1,756.45,492.06Z" transform="translate(-358.13 -162.42)"/><path class="cls-9" d="M768.58,495.49a4,4,0,0,1,1.95.4,12,12,0,0,1,1.23.83v3.22a4,4,0,0,0-1.13-.58,5,5,0,0,0-1.55-.21,2.43,2.43,0,0,0-1,.25,2.58,2.58,0,0,0-.9.74,2.27,2.27,0,0,0,.32,2.85,2.51,2.51,0,0,0,1.62.56,4.45,4.45,0,0,0,2.68-.8V506a8.29,8.29,0,0,1-1.23.77,4.43,4.43,0,0,1-1.95.34,5.6,5.6,0,0,1-2.28-.46,5.7,5.7,0,0,1-1.83-1.26,6,6,0,0,1-1.23-1.84,5.54,5.54,0,0,1-.44-2.17,5.67,5.67,0,0,1,.44-2.19,6.18,6.18,0,0,1,1.23-1.88A5.84,5.84,0,0,1,766.3,496,5.31,5.31,0,0,1,768.58,495.49Z" transform="translate(-358.13 -162.42)"/><path class="cls-9" d="M780.07,495.49a3.55,3.55,0,0,1,2.73,1.14,4.78,4.78,0,0,1,1.07,3.37v6.77h-3.7l0-6.19a1.32,1.32,0,0,0-.45-1.14,1.62,1.62,0,0,0-1-.34,1.66,1.66,0,0,0-1,.31,3.38,3.38,0,0,0-.71.75v6.61h-3.69V491.3H777v5.93a5.22,5.22,0,0,1,1.26-1.22A3.15,3.15,0,0,1,780.07,495.49Z" transform="translate(-358.13 -162.42)"/><path class="cls-9" d="M793.81,499.88a2.84,2.84,0,0,0-.68-.27,3,3,0,0,0-.83-.1A2.12,2.12,0,0,0,791,500a3.49,3.49,0,0,0-1,1.18v5.63h-3.69V495.82H790v1.95a7.66,7.66,0,0,1,1.15-1.52,2.25,2.25,0,0,1,1.67-.65,2.43,2.43,0,0,1,1,.19Z" transform="translate(-358.13 -162.42)"/><path class="cls-9" d="M800.26,495.82v10.95h-3.69v-7.95h-1.79v-3Zm-2.08-6.15a2.3,2.3,0,0,1,1.15.3,2.44,2.44,0,0,1,.85.81,2.12,2.12,0,0,1,0,2.24,2.38,2.38,0,0,1-.85.82,2.3,2.3,0,0,1-1.15.3,2.24,2.24,0,0,1-1.61-.66,2.15,2.15,0,0,1,0-3.16A2.28,2.28,0,0,1,798.18,489.67Z" transform="translate(-358.13 -162.42)"/><path class="cls-9" d="M810,495.82v2.9h-2.49v8h-3.7v-8h-1.63v-2.9h1.63v-.56a4.35,4.35,0,0,1,.56-2.21,4.15,4.15,0,0,1,1.52-1.51,4.36,4.36,0,0,1,2.2-.56,5.72,5.72,0,0,1,1.4.15,4,4,0,0,1,1,.39v3a3.22,3.22,0,0,0-1.61-.37,1.67,1.67,0,0,0-.94.31,1.07,1.07,0,0,0-.45.94v.41Z" transform="translate(-358.13 -162.42)"/><path class="cls-9" d="M816.63,492.59v3.23h2.88v2.9h-2.88v3.07A2.09,2.09,0,0,0,817,503a1.08,1.08,0,0,0,.93.47,3.3,3.3,0,0,0,1.74-.48v2.88a2.81,2.81,0,0,1-1.08.83,4.16,4.16,0,0,1-1.82.35,3.79,3.79,0,0,1-1.89-.47,3.57,3.57,0,0,1-1.38-1.35,4.1,4.1,0,0,1-.53-2.13v-4.42h-1.85v-2.26a5.17,5.17,0,0,0,2.08-1.21,5.54,5.54,0,0,0,1.49-2.66Z" transform="translate(-358.13 -162.42)"/><path class="cls-9" d="M825.39,491.3v15.47H821.7V491.3Z" transform="translate(-358.13 -162.42)"/><path class="cls-9" d="M832.92,495.82v10.95h-3.69v-7.95h-1.79v-3Zm-2.08-6.15a2.3,2.3,0,0,1,1.15.3,2.44,2.44,0,0,1,.85.81,2.12,2.12,0,0,1,0,2.24,2.38,2.38,0,0,1-.85.82,2.3,2.3,0,0,1-1.15.3,2.23,2.23,0,0,1-1.61-.66,2.15,2.15,0,0,1,0-3.16A2.26,2.26,0,0,1,830.84,489.67Z" transform="translate(-358.13 -162.42)"/><path class="cls-9" d="M839.21,495.82v1.41a5.18,5.18,0,0,1,1.25-1.22,3.19,3.19,0,0,1,1.84-.52,3.58,3.58,0,0,1,2.74,1.14A4.78,4.78,0,0,1,846.1,500v6.77h-3.69l0-6.19a1.3,1.3,0,0,0-.46-1.14,1.6,1.6,0,0,0-1-.34,1.63,1.63,0,0,0-1,.31,3.16,3.16,0,0,0-.71.75v6.61h-3.7V495.82Z" transform="translate(-358.13 -162.42)"/><path class="cls-9" d="M853.5,495.82v10.95h-3.69v-7.95H848v-3Zm-2.08-6.15a2.27,2.27,0,0,1,1.15.3,2.44,2.44,0,0,1,.85.81,2.12,2.12,0,0,1,0,2.24,2.38,2.38,0,0,1-.85.82,2.27,2.27,0,0,1-1.15.3,2.24,2.24,0,0,1-1.61-.66,2.15,2.15,0,0,1,0-3.16A2.28,2.28,0,0,1,851.42,489.67Z" transform="translate(-358.13 -162.42)"/><path class="cls-9" d="M861.16,495.49a5.4,5.4,0,0,1,2.75.69,4.82,4.82,0,0,1,1.88,1.92,6,6,0,0,1,.68,2.94v1.26H859a1.91,1.91,0,0,0,.94,1.19,3.44,3.44,0,0,0,1.63.38,6.11,6.11,0,0,0,2.16-.35,11.78,11.78,0,0,0,1.37-.61v3.15a8.21,8.21,0,0,1-1.54.69,6.56,6.56,0,0,1-2.2.34,6.65,6.65,0,0,1-2.25-.38,6.15,6.15,0,0,1-1.94-1.12,5.35,5.35,0,0,1-1.35-1.77,5.43,5.43,0,0,1-.5-2.35,6.07,6.07,0,0,1,.76-3,6,6,0,0,1,2.09-2.17A5.57,5.57,0,0,1,861.16,495.49Zm-.1,3.05a2,2,0,0,0-1.23.38,2.15,2.15,0,0,0-.75,1.15H863a1.27,1.27,0,0,0-.59-1.15A2.45,2.45,0,0,0,861.06,498.54Z" transform="translate(-358.13 -162.42)"/><path class="cls-9" d="M757.1,516a9.28,9.28,0,0,0-1.24,1.85,16.71,16.71,0,0,0-1,2.45,19.75,19.75,0,0,0-.71,2.69,14.08,14.08,0,0,0-.26,2.57,14.52,14.52,0,0,0,.26,2.66,18.53,18.53,0,0,0,.71,2.68,17,17,0,0,0,1,2.4,9.61,9.61,0,0,0,1.24,1.82h-2a10.63,10.63,0,0,1-1.67-2.42,15.49,15.49,0,0,1-1.3-3.34,14.21,14.21,0,0,1-.51-3.8,13.91,13.91,0,0,1,.29-2.79,17,17,0,0,1,.79-2.69,14.93,14.93,0,0,1,1.11-2.34,9.83,9.83,0,0,1,1.29-1.74Z" transform="translate(-358.13 -162.42)"/><path class="cls-9" d="M765.38,522.91h6.34v5.91a7.23,7.23,0,0,1-1.33,1.08,8,8,0,0,1-7.22.61,7.71,7.71,0,0,1-2.41-1.63,7.22,7.22,0,0,1-1.6-2.39,7.71,7.71,0,0,1,0-5.82,7.37,7.37,0,0,1,1.6-2.4,7.52,7.52,0,0,1,2.41-1.62,7.4,7.4,0,0,1,3-.59,6.47,6.47,0,0,1,2.57.43,6.14,6.14,0,0,1,1.75,1.11v2.13c-.31-.23-.67-.48-1.06-.75a6.85,6.85,0,0,0-1.38-.72,5,5,0,0,0-1.88-.31,5.6,5.6,0,0,0-2.87.73,5.29,5.29,0,0,0-2,2,6.07,6.07,0,0,0,0,5.77,5.33,5.33,0,0,0,2,2,5.51,5.51,0,0,0,2.87.75,5.67,5.67,0,0,0,1.77-.23,3.66,3.66,0,0,0,1-.52c.26-.19.46-.35.62-.48l0-3.35h-4.25Z" transform="translate(-358.13 -162.42)"/><path class="cls-9" d="M775.75,520v2.15a5.38,5.38,0,0,1,1.5-1.72,3,3,0,0,1,1.81-.64,2.82,2.82,0,0,1,1.11.21v2a2.66,2.66,0,0,0-1.37-.4,2.22,2.22,0,0,0-1.77.77,10,10,0,0,0-1.28,1.85v6.48H774V520Z" transform="translate(-358.13 -162.42)"/><path class="cls-9" d="M790.8,520v6.36a4.78,4.78,0,0,1-.6,2.45,4.18,4.18,0,0,1-1.64,1.59,5.09,5.09,0,0,1-4.64,0,4.15,4.15,0,0,1-1.63-1.59,4.78,4.78,0,0,1-.6-2.45V520h1.82v6.36a2.73,2.73,0,0,0,.83,2.14,2.81,2.81,0,0,0,3.8,0,2.69,2.69,0,0,0,.83-2.14V520Z" transform="translate(-358.13 -162.42)"/><path class="cls-9" d="M795.47,520v1.7a5.58,5.58,0,0,1,.88-.87,5.51,5.51,0,0,1,1.22-.74,3.42,3.42,0,0,1,1.4-.3,4.19,4.19,0,0,1,2,.48,3.56,3.56,0,0,1,1.44,1.46,5,5,0,0,1,.54,2.46v6.55h-1.76l0-6.38a3.19,3.19,0,0,0-.62-2.12,2.3,2.3,0,0,0-1.88-.73,2.87,2.87,0,0,0-1.71.63,7.68,7.68,0,0,0-1.49,1.47v7.13h-1.76V520Z" transform="translate(-358.13 -162.42)"/><path class="cls-9" d="M815.55,515.31v15.46h-1.76V529a5.3,5.3,0,0,1-1.52,1.5,3.81,3.81,0,0,1-2.18.65,4.75,4.75,0,0,1-2.51-.7,5,5,0,0,1-1.82-1.95,5.93,5.93,0,0,1-.67-2.87,6.57,6.57,0,0,1,.67-3.08,4.81,4.81,0,0,1,1.86-2,5.06,5.06,0,0,1,2.64-.7,4.34,4.34,0,0,1,1.88.44,5,5,0,0,1,1.65,1.21v-6.16Zm-5,6.27a3.35,3.35,0,0,0-2,.57,3.9,3.9,0,0,0-1.26,1.47,4.44,4.44,0,0,0-.44,2,4.34,4.34,0,0,0,.43,1.9,3.4,3.4,0,0,0,1.22,1.38,3.15,3.15,0,0,0,1.81.52,3,3,0,0,0,1.76-.52,3.52,3.52,0,0,0,1.23-1.43,4.41,4.41,0,0,0,.43-2l0-2.06a5.33,5.33,0,0,0-1.43-1.29A3.38,3.38,0,0,0,810.59,521.58Z" transform="translate(-358.13 -162.42)"/><path class="cls-9" d="M820.52,515.31v15.46h-1.76V515.31Z" transform="translate(-358.13 -162.42)"/><path class="cls-9" d="M826.55,520v10.74h-1.76v-9.08h-1.7V520Zm-1.1-5.15a1.37,1.37,0,0,1,1,.44,1.42,1.42,0,0,1,.42,1,1.45,1.45,0,0,1-.42,1,1.44,1.44,0,0,1-2.09,0,1.45,1.45,0,0,1-.42-1,1.42,1.42,0,0,1,.42-1A1.36,1.36,0,0,1,825.45,514.88Z" transform="translate(-358.13 -162.42)"/><path class="cls-9" d="M831.7,520v1.7a5.77,5.77,0,0,1,2.09-1.61,3.43,3.43,0,0,1,1.41-.3,4.22,4.22,0,0,1,2,.48,3.56,3.56,0,0,1,1.44,1.46,5.15,5.15,0,0,1,.53,2.46v6.55h-1.76l0-6.38a3.19,3.19,0,0,0-.61-2.12,2.31,2.31,0,0,0-1.88-.73,2.83,2.83,0,0,0-1.71.63,7.41,7.41,0,0,0-1.49,1.47v7.13h-1.77V520Z" transform="translate(-358.13 -162.42)"/><path class="cls-9" d="M844.88,520v10.74h-1.76v-9.08h-1.7V520Zm-1.1-5.15a1.35,1.35,0,0,1,1,.44,1.42,1.42,0,0,1,.42,1,1.45,1.45,0,0,1-.42,1,1.36,1.36,0,0,1-1,.45,1.37,1.37,0,0,1-1-.45,1.45,1.45,0,0,1-.42-1,1.42,1.42,0,0,1,.42-1A1.36,1.36,0,0,1,843.78,514.88Z" transform="translate(-358.13 -162.42)"/><path class="cls-9" d="M852.69,519.82a5.17,5.17,0,0,1,2.75.68,4.31,4.31,0,0,1,1.64,1.87,6.22,6.22,0,0,1,.55,2.67v1.05h-8.25a4,4,0,0,0,.62,1.66,3.69,3.69,0,0,0,1.29,1.19,3.75,3.75,0,0,0,1.83.44,4.29,4.29,0,0,0,2.17-.59,8,8,0,0,0,1.69-1.3l0,1.91a4.2,4.2,0,0,1-.89.76,5.67,5.67,0,0,1-1.35.67,4.76,4.76,0,0,1-1.6.27,5.4,5.4,0,0,1-2.9-.78,5.51,5.51,0,0,1-2-2.05,5.59,5.59,0,0,1-.72-2.8,6,6,0,0,1,.67-2.82,5.36,5.36,0,0,1,1.83-2.06A4.78,4.78,0,0,1,852.69,519.82Zm0,1.72a2.88,2.88,0,0,0-2.19.89,4,4,0,0,0-1.08,2.16h6.47a3.48,3.48,0,0,0-.59-1.72,3.09,3.09,0,0,0-1.17-1A3.3,3.3,0,0,0,852.69,521.54Z" transform="translate(-358.13 -162.42)"/><path class="cls-9" d="M866.32,515.63l-5.71,19.44h-1.47l5.65-19.44Z" transform="translate(-358.13 -162.42)"/><path class="cls-9" d="M874.17,516a6.78,6.78,0,0,1,2.77.52,4.43,4.43,0,0,1,1.81,1.43,3.5,3.5,0,0,1,.64,2.09,3.31,3.31,0,0,1-.6,1.92,3.82,3.82,0,0,1-1.5,1.3,3.55,3.55,0,0,1,1.27.53,3.51,3.51,0,0,1,1,1.12,3.4,3.4,0,0,1,.42,1.76,3.62,3.62,0,0,1-.69,2.17,4.65,4.65,0,0,1-2,1.54,7.4,7.4,0,0,1-3,.57,24.74,24.74,0,0,1-2.79-.16c-1-.11-1.78-.23-2.46-.38V516.57a20.44,20.44,0,0,1,2.44-.39A23.3,23.3,0,0,1,874.17,516Zm-.13,1.82a15.86,15.86,0,0,0-1.62.07,11.77,11.77,0,0,0-1.38.19v4.51h3.37a3.11,3.11,0,0,0,2.23-.74,2.31,2.31,0,0,0,.78-1.73,1.84,1.84,0,0,0-.47-1.28,3,3,0,0,0-1.24-.76A5.22,5.22,0,0,0,874,517.86Zm-3,11a13.37,13.37,0,0,0,1.72.2c.63,0,1.14,0,1.54,0a5,5,0,0,0,2.68-.66,2,2,0,0,0,1.06-1.79,1.93,1.93,0,0,0-1-1.77,5.14,5.14,0,0,0-2.55-.59H871Z" transform="translate(-358.13 -162.42)"/><path class="cls-9" d="M887.29,519.82a4.37,4.37,0,0,1,1.88.44,4.83,4.83,0,0,1,1.64,1.21V520h1.77v10.74h-1.77V529a5.26,5.26,0,0,1-1.51,1.5,3.81,3.81,0,0,1-2.18.65,4.72,4.72,0,0,1-2.51-.7,5,5,0,0,1-1.82-1.95,5.94,5.94,0,0,1-.68-2.87,6.57,6.57,0,0,1,.68-3.08,4.81,4.81,0,0,1,1.86-2A5.06,5.06,0,0,1,887.29,519.82Zm.32,1.72a3.28,3.28,0,0,0-2,.58,3.72,3.72,0,0,0-1.26,1.49,4.51,4.51,0,0,0-.44,2,4.21,4.21,0,0,0,.43,1.9,3.45,3.45,0,0,0,1.21,1.38,3.21,3.21,0,0,0,1.82.52,3.06,3.06,0,0,0,1.76-.52,3.5,3.5,0,0,0,1.22-1.43,4.17,4.17,0,0,0,.43-2l0-2.06a5.44,5.44,0,0,0-1.43-1.31A3.19,3.19,0,0,0,887.61,521.54Z" transform="translate(-358.13 -162.42)"/><path class="cls-9" d="M899,519.82a5.55,5.55,0,0,1,1.76.27,4.26,4.26,0,0,1,1.18.54v1.89a5.86,5.86,0,0,0-1.22-.66,4,4,0,0,0-1.59-.32,2.15,2.15,0,0,0-1.52.47,1.36,1.36,0,0,0-.5,1,1.46,1.46,0,0,0,.29.82,2,2,0,0,0,1,.68l1.8.65a3.12,3.12,0,0,1,1.57,1.05,2.57,2.57,0,0,1,.52,1.61,2.87,2.87,0,0,1-.51,1.65,3.48,3.48,0,0,1-1.39,1.2,4.64,4.64,0,0,1-2,.44,6,6,0,0,1-1.3-.16,8,8,0,0,1-1.22-.39,4.33,4.33,0,0,1-.79-.4v-1.89a5.45,5.45,0,0,0,.85.48,7.7,7.7,0,0,0,1.17.46,4.15,4.15,0,0,0,1.16.18,2.6,2.6,0,0,0,1.6-.45,1.38,1.38,0,0,0,.59-1.12,1,1,0,0,0-.4-.82,4.68,4.68,0,0,0-1.15-.58l-1.59-.58a3,3,0,0,1-1.65-1.19,3.2,3.2,0,0,1-.41-1.64,2.89,2.89,0,0,1,1-2.28A4,4,0,0,1,899,519.82Z" transform="translate(-358.13 -162.42)"/><path class="cls-9" d="M909,519.82a5.17,5.17,0,0,1,2.75.68,4.39,4.39,0,0,1,1.65,1.87,6.37,6.37,0,0,1,.54,2.67v1.05h-8.25a4.15,4.15,0,0,0,.63,1.66,3.61,3.61,0,0,0,3.11,1.63,4.24,4.24,0,0,0,2.17-.59,8.35,8.35,0,0,0,1.7-1.3l0,1.91a4.2,4.2,0,0,1-.89.76,5.94,5.94,0,0,1-1.36.67,4.76,4.76,0,0,1-1.6.27,5.43,5.43,0,0,1-2.9-.78,5.6,5.6,0,0,1-2.71-4.85,6.11,6.11,0,0,1,.67-2.82,5.39,5.39,0,0,1,1.84-2.06A4.77,4.77,0,0,1,909,519.82Zm0,1.72a2.88,2.88,0,0,0-2.19.89,4,4,0,0,0-1.07,2.16h6.46a3.48,3.48,0,0,0-.59-1.72,3,3,0,0,0-1.17-1A3.3,3.3,0,0,0,909,521.54Z" transform="translate(-358.13 -162.42)"/><path class="cls-9" d="M924.21,515.31v15.46h-1.77V515.31Z" transform="translate(-358.13 -162.42)"/><path class="cls-9" d="M930.23,520v10.74h-1.76v-9.08h-1.7V520Zm-1.09-5.15a1.36,1.36,0,0,1,1,.44,1.42,1.42,0,0,1,.42,1,1.45,1.45,0,0,1-.42,1,1.44,1.44,0,0,1-2.09,0,1.45,1.45,0,0,1-.42-1,1.42,1.42,0,0,1,.42-1A1.37,1.37,0,0,1,929.14,514.88Z" transform="translate(-358.13 -162.42)"/><path class="cls-9" d="M935.38,520v1.7a5.58,5.58,0,0,1,.88-.87,5.44,5.44,0,0,1,1.21-.74,3.43,3.43,0,0,1,1.41-.3,4.19,4.19,0,0,1,2,.48,3.56,3.56,0,0,1,1.44,1.46,5.15,5.15,0,0,1,.53,2.46v6.55h-1.76l0-6.38a3.19,3.19,0,0,0-.61-2.12,2.31,2.31,0,0,0-1.88-.73,2.87,2.87,0,0,0-1.71.63,7.41,7.41,0,0,0-1.49,1.47v7.13h-1.76V520Z" transform="translate(-358.13 -162.42)"/><path class="cls-9" d="M950.17,519.82a5.17,5.17,0,0,1,2.75.68,4.31,4.31,0,0,1,1.64,1.87,6.22,6.22,0,0,1,.55,2.67v1.05h-8.25a4.15,4.15,0,0,0,.63,1.66,3.57,3.57,0,0,0,1.28,1.19,3.75,3.75,0,0,0,1.83.44,4.26,4.26,0,0,0,2.17-.59,8.35,8.35,0,0,0,1.7-1.3l0,1.91a4,4,0,0,1-.9.76,5.67,5.67,0,0,1-1.35.67,4.76,4.76,0,0,1-1.6.27,5.4,5.4,0,0,1-2.9-.78,5.51,5.51,0,0,1-2-2.05,5.59,5.59,0,0,1-.72-2.8,6,6,0,0,1,.67-2.82,5.31,5.31,0,0,1,1.84-2.06A4.77,4.77,0,0,1,950.17,519.82Zm0,1.72a2.88,2.88,0,0,0-2.19.89,4,4,0,0,0-1.07,2.16h6.46a3.48,3.48,0,0,0-.59-1.72,3,3,0,0,0-1.17-1A3.3,3.3,0,0,0,950.17,521.54Z" transform="translate(-358.13 -162.42)"/><path class="cls-9" d="M959.23,516a9.83,9.83,0,0,1,1.29,1.74,15.88,15.88,0,0,1,1.11,2.34,18.16,18.16,0,0,1,.79,2.69,13.91,13.91,0,0,1,.29,2.79,14.21,14.21,0,0,1-.51,3.8,15.49,15.49,0,0,1-1.3,3.34,11,11,0,0,1-1.67,2.42h-2a10.1,10.1,0,0,0,1.24-1.82,17,17,0,0,0,1-2.4,18.53,18.53,0,0,0,.71-2.68,14.52,14.52,0,0,0,.26-2.66,14.08,14.08,0,0,0-.26-2.57,19.75,19.75,0,0,0-.71-2.69,16.71,16.71,0,0,0-1-2.45,9.73,9.73,0,0,0-1.24-1.85Z" transform="translate(-358.13 -162.42)"/><g class="cls-6"><path class="cls-9" d="M715.28,530.14a18.57,18.57,0,1,0-18.56-18.56,18.56,18.56,0,0,0,18.56,18.56" transform="translate(-358.13 -162.42)"/></g><path class="cls-8" d="M714.1,499.17a10.73,10.73,0,0,1,4.17.76,6.76,6.76,0,0,1,2.86,2.13,5,5,0,0,1,1,3.14,4.59,4.59,0,0,1-1.19,3.32A4.86,4.86,0,0,1,718.1,510a5.57,5.57,0,0,1,2.87,1.44,4.27,4.27,0,0,1,1.19,3.25A5.17,5.17,0,0,1,721,518a7.42,7.42,0,0,1-3,2.22,10.36,10.36,0,0,1-4.09.8,11,11,0,0,1-3-.41,6.92,6.92,0,0,1-2.33-1.06v-5.09a9.16,9.16,0,0,0,2.11,1,6.72,6.72,0,0,0,2.2.36,4.69,4.69,0,0,0,2.28-.51,1.76,1.76,0,0,0,.94-1.67,1.28,1.28,0,0,0-.47-1.08,2.54,2.54,0,0,0-1.23-.47,11.86,11.86,0,0,0-1.61-.11h-1.57v-4.25h3.18a2.44,2.44,0,0,0,1.23-.27,1.05,1.05,0,0,0,.47-1,1.74,1.74,0,0,0-1-1.67,4.72,4.72,0,0,0-2.22-.52A5.42,5.42,0,0,0,709.1,506v-5a6.59,6.59,0,0,1,2-1.25A7.77,7.77,0,0,1,714.1,499.17Z" transform="translate(-358.13 -162.42)"/></svg>