<svg xmlns="http://www.w3.org/2000/svg" viewBox="0 0 350 240"><defs><style>.cls-1{font-size:50px;font-family:Inter-Regular, Inter;letter-spacing:0.01em;}.cls-1,.cls-5{fill:#fff;}.cls-2{letter-spacing:-0.08em;}.cls-3{letter-spacing:-0.08em;}.cls-4{letter-spacing:-0.08em;}.cls-6{fill:#045d7a;}.cls-7{fill:#fff;}</style></defs><g id="Ebene_1" data-name="Ebene 1"><text class="cls-1" transform="translate(36.5 129.71)">g<tspan class="cls-2" x="31.22" y="0"> </tspan><tspan x="41.37" y="0">e</tspan><tspan class="cls-2" x="71.24" y="0"> </tspan><tspan x="81.39" y="0">s</tspan><tspan class="cls-3" x="108.27" y="0"> </tspan><tspan x="118.42" y="0">p</tspan><tspan class="cls-4" x="149.64" y="0"> </tspan><tspan x="159.79" y="0">e</tspan><tspan class="cls-3" x="189.66" y="0"> </tspan><tspan x="199.81" y="0">r</tspan><tspan class="cls-3" x="219.17" y="0"> </tspan><tspan x="229.32" y="0">r</tspan><tspan class="cls-4" x="248.68" y="0"> </tspan><tspan x="258.83" y="0">t</tspan></text></g><g id="Ebene_3" data-name="Ebene 3"><rect class="cls-5" x="36.45" y="71.2" width="30.49" height="97.6"/><rect class="cls-6" x="66.95" y="71.2" width="11.02" height="97.61"/><rect class="cls-6" x="107.13" y="71.2" width="11.02" height="97.61"/><rect class="cls-5" x="77.97" y="71.2" width="29.16" height="97.61"/><rect class="cls-5" x="118.01" y="71.2" width="25.81" height="97.61"/><rect class="cls-6" x="143.97" y="71.2" width="11.02" height="97.61"/><rect class="cls-5" x="154.91" y="71.2" width="30.28" height="97.6"/><rect class="cls-6" x="185.27" y="71.2" width="11.02" height="97.61"/><rect class="cls-5" x="196.24" y="71.2" width="28.94" height="97.6"/><rect class="cls-6" x="225.24" y="71.19" width="11.02" height="97.61"/><rect class="cls-5" x="236.26" y="71.2" width="18.64" height="97.61"/><rect class="cls-5" x="265.86" y="71.2" width="18.63" height="97.6"/><rect class="cls-6" x="254.9" y="71.2" width="11.02" height="97.61"/><rect class="cls-6" x="284.56" y="71.2" width="11.02" height="97.61"/><rect class="cls-5" x="295.49" y="71.2" width="17.99" height="97.61"/><path class="cls-7" d="M40.16,135l3.34-2.34a8.54,8.54,0,0,0,7.81,4.12c4.41,0,7.61-2.06,7.61-6.61v-5.54h-.36a8.3,8.3,0,0,1-8,4.62C44,129.29,39,124.46,39,115.93s4.76-13.85,11.65-13.85c5.33,0,7,3.27,8,4.69h.43v-4.34h4V130.5c0,7-5.26,10-11.8,10C45.22,140.51,41.87,137.9,40.16,135ZM59,115.86c0-5.9-2.7-10-7.82-10-5.33,0-8,4.48-8,10s2.71,9.66,8,9.66C56.22,125.52,59,121.9,59,115.86Z"/><path class="cls-7" d="M80.55,116.29c0-8.39,4.9-14.21,12.29-14.21,5.68,0,11.72,3.48,11.72,13.64v1.78H84.76c.19,5.84,3.59,9,8.51,9,3.28,0,5.75-1.42,6.82-4.27l4,1.14c-1.28,4.12-5.33,6.89-10.87,6.89C85.38,130.28,80.55,124.67,80.55,116.29Zm19.75-2.42c0-4.62-2.91-8-7.46-8-4.8,0-7.8,3.79-8.08,8Z"/><path class="cls-7" d="M137.24,109.61a5.74,5.74,0,0,0-5.89-3.91c-3.34,0-5.83,1.71-5.83,4,0,2.1,1.46,3.18,4.69,4l4,1c4.87,1.19,7.24,3.59,7.24,7.39,0,4.71-4.31,8.17-10.65,8.17-5.58,0-9.4-2.47-10.37-7.1l4-1c.75,2.93,2.9,4.41,6.33,4.41,3.9,0,6.39-1.92,6.39-4.26,0-1.89-1.29-3.2-4-3.84l-4.54-1.07c-5-1.17-7.25-3.69-7.25-7.46,0-4.61,4.26-7.88,10-7.88,5.4,0,8.34,2.59,9.66,6.46Z"/><path class="cls-7" d="M158.66,102.43h4.05v4.34h.49c.93-1.42,2.56-4.69,7.89-4.69,6.89,0,11.65,5.47,11.65,14.07s-4.76,14.13-11.58,14.13c-5.26,0-7-3.26-8-4.76h-.35V140h-4.19Zm11.93,24.09c5.26,0,8-4.62,8-10.45s-2.63-10.23-8-10.23c-5.11,0-7.81,4.12-7.81,10.23S165.55,126.52,170.59,126.52Z"/><path class="cls-7" d="M240.11,102.43h4v4.12h.29a7.41,7.41,0,0,1,7.1-4.54c.62,0,1.72,0,2.2.07v4.26a12.84,12.84,0,0,0-2.55-.28c-4,0-6.9,2.7-6.9,6.39v17.26h-4.19Z"/><path class="cls-7" d="M311.09,106h-5.82V121.9c0,3.55,1.78,4.12,3.62,4.12a8.22,8.22,0,0,0,1.85-.21l.85,3.76a8.53,8.53,0,0,1-3.12.5c-3.56,0-7.39-2.27-7.39-7V106H297v-3.56h4.12V95.9h4.19v6.53h5.82Z"/><path class="cls-7" d="M198.71,116.29c0-8.39,4.9-14.21,12.29-14.21,5.68,0,11.72,3.48,11.72,13.64v1.78h-19.8c.19,5.84,3.58,9,8.5,9,3.29,0,5.76-1.42,6.83-4.27l4.05,1.14c-1.28,4.12-5.33,6.89-10.88,6.89C203.54,130.28,198.71,124.67,198.71,116.29Zm19.75-2.42c0-4.62-2.91-8-7.46-8-4.8,0-7.8,3.79-8.08,8Z"/><path class="cls-7" d="M269.71,102.43h4.05v4.12h.29a7.41,7.41,0,0,1,7.1-4.54c.62,0,1.72,0,2.2.07v4.26a13,13,0,0,0-2.56-.28c-4,0-6.89,2.7-6.89,6.39v17.26h-4.19Z"/></g></svg>
