<svg xmlns="http://www.w3.org/2000/svg" viewBox="0 0 350 240"><defs><style>.cls-1{fill:#1d1d1b;}.cls-2{fill:#fff;}</style></defs><g id="Ebene_2" data-name="Ebene 2"><rect class="cls-1" x="93.75" y="72.14" width="29.29" height="95.48"/><rect class="cls-1" x="123.32" y="72.14" width="29.29" height="95.48"/><rect class="cls-1" x="152.89" y="72.14" width="18.84" height="95.48"/><rect class="cls-1" x="172.02" y="72.14" width="43.33" height="95.48"/><rect class="cls-1" x="215.63" y="72.14" width="28.34" height="95.48"/><rect class="cls-1" x="244.26" y="72.17" width="11.99" height="95.48"/><path class="cls-2" d="M101.79,138.88h-4.2V111.6h4v4.26H102c1.28-2.77,3.84-4.62,8-4.62,5.52,0,9.23,3.34,9.23,10.3v17.34H115v-17c0-4.28-2.36-6.82-6.25-6.82s-7,2.7-7,7.46Z"/><path class="cls-2" d="M125.6,125.38c0-8.53,5-14.14,12.37-14.14s12.36,5.61,12.36,14.14-5,14.07-12.36,14.07S125.6,133.83,125.6,125.38Zm20.54,0c0-5.47-2.56-10.37-8.17-10.37s-8.17,4.9-8.17,10.37,2.55,10.3,8.17,10.3S146.14,130.85,146.14,125.38Z"/><path class="cls-2" d="M156.84,111.6h4v4.12h.29a7.41,7.41,0,0,1,7.1-4.55c.62,0,1.72,0,2.2.07v4.26a13,13,0,0,0-2.55-.28c-4,0-6.9,2.7-6.9,6.39v17.27h-4.19Z"/><path class="cls-2" d="M175.64,111.6h4.05v4.26h.36c1.13-2.91,3.76-4.62,7.31-4.62a7.51,7.51,0,0,1,7.32,4.62H195c1.41-2.82,4.27-4.62,8.17-4.62,4.87,0,8.32,3,8.32,9.38v18.26h-4.19V120.62c0-4-2.56-5.61-5.55-5.61-3.83,0-6,2.59-6,6.11v17.76h-4.27V120.19A5,5,0,0,0,186,115c-3.26,0-6.18,2.82-6.18,6.82v17h-4.19Z"/><path class="cls-2" d="M218.26,131.13c0-6.25,5.53-7.37,10.59-8s7-.47,7-2.49v-.14c0-3.5-1.9-5.54-5.75-5.54-4,0-6.18,2.13-7.11,4.12l-4-1.42c2.14-5,6.82-6.4,11-6.4,3.48,0,10.08,1,10.08,9.66v18h-4.19v-3.7h-.21c-.85,1.78-3.34,4.34-8.1,4.34C222.38,139.52,218.26,136.46,218.26,131.13ZM235.88,129v-3.83c-.71.85-5.47,1.35-7.25,1.56-3.26.43-6.18,1.42-6.18,4.62,0,2.91,2.42,4.4,5.76,4.4C233.18,135.75,235.88,132.41,235.88,129Z"/><path class="cls-2" d="M252.33,139.11h-4.19V102.73h4.19Z"/></g></svg>