<svg xmlns="http://www.w3.org/2000/svg" viewBox="0 0 350 240"><defs><style>.cls-1{font-size:50px;font-family:Inter-Regular, Inter;letter-spacing:0.01em;}.cls-1,.cls-4{fill:#1d1d1b;}.cls-2{letter-spacing:0.05em;}.cls-3{fill:#045d7a;}.cls-A{fill:#fff;}</style></defs><g id="Ebene_1" data-name="Ebene 1"><text class="cls-1" transform="translate(44.55 131.3)">spationie<tspan class="cls-2" x="221.66" y="0">r</tspan><tspan x="242.73" y="0">t</tspan></text></g><g id="Ebene_3" data-name="Ebene 3"><rect class="cls-3" x="65.13" y="71.19" width="1.98" height="97.62"/><rect class="cls-3" x="97.57" y="71.19" width="1.98" height="97.62"/><rect class="cls-3" x="127.15" y="71.19" width="2.1" height="97.62"/><rect class="cls-3" x="147.25" y="71.19" width="1.91" height="97.62" transform="translate(296.4 240) rotate(180)"/><rect class="cls-3" x="160.79" y="71.19" width="1.98" height="97.62"/><rect class="cls-3" x="192.46" y="71.19" width="2.06" height="97.62"/><rect class="cls-4" x="225.2" y="71.19" width="12" height="97.62"/><rect class="cls-3" x="223.4" y="71.19" width="2.03" height="97.62"/><rect class="cls-4" x="238.99" y="71.19" width="28.95" height="97.62"/><rect class="cls-3" x="237.2" y="71.19" width="2.05" height="97.62"/><rect class="cls-3" x="267.94" y="71.19" width="1.87" height="97.62"/><rect class="cls-3" x="288.36" y="71.19" width="1.91" height="97.62"/><rect class="cls-4" x="38.98" y="71.19" width="26.15" height="97.62"/><path class="cls-A" d="M58.38,112.38a5.73,5.73,0,0,0-5.89-3.91c-3.34,0-5.83,1.71-5.83,4,0,2.1,1.46,3.18,4.69,4l4,1c4.87,1.19,7.25,3.58,7.25,7.38,0,4.71-4.32,8.17-10.66,8.17-5.58,0-9.4-2.46-10.37-7.1l4-1c.74,2.94,2.89,4.41,6.32,4.41,3.91,0,6.39-1.92,6.39-4.26,0-1.89-1.29-3.2-4.05-3.84l-4.54-1.06c-5-1.18-7.25-3.7-7.25-7.46,0-4.62,4.26-7.89,10-7.89,5.4,0,8.34,2.59,9.66,6.46Z"/><rect class="cls-4" x="67.1" y="71.19" width="30.47" height="97.62"/><path class="cls-A" d="M70.94,105.2h4v4.34h.5c.92-1.42,2.56-4.69,7.88-4.69,6.9,0,11.66,5.47,11.66,14.07s-4.76,14.13-11.58,14.13a8.42,8.42,0,0,1-8-4.76h-.36v14.43H70.94Zm11.94,24.09c5.25,0,8-4.62,8-10.44s-2.62-10.23-8-10.23c-5.12,0-7.82,4.12-7.82,10.23S77.83,129.29,82.88,129.29Z"/><rect class="cls-4" x="99.42" y="71.19" width="27.72" height="97.62"/><path class="cls-A" d="M101.75,124.74c0-6.25,5.52-7.37,10.58-8s7-.46,7-2.48v-.14c0-3.5-1.9-5.55-5.75-5.55-4,0-6.18,2.14-7.1,4.12l-4-1.42c2.13-5,6.82-6.39,10.94-6.39,3.48,0,10.09,1,10.09,9.66v18h-4.2v-3.7h-.21c-.85,1.78-3.34,4.33-8.1,4.33C105.87,133.12,101.75,130.07,101.75,124.74Zm17.61-2.13v-3.84c-.71.86-5.47,1.35-7.24,1.57-3.27.42-6.18,1.42-6.18,4.61,0,2.92,2.41,4.41,5.75,4.41C116.66,129.36,119.36,126,119.36,122.61Z"/><rect class="cls-4" x="129.15" y="71.19" width="18.1" height="97.62"/><path class="cls-A" d="M144.81,108.76H139v15.91c0,3.55,1.78,4.12,3.62,4.12a8.14,8.14,0,0,0,1.85-.21l.85,3.76a8.49,8.49,0,0,1-3.12.5c-3.55,0-7.39-2.27-7.39-7v-17h-4.12V105.2h4.12V98.67H139v6.53h5.83Z"/><rect class="cls-4" x="149.16" y="71.19" width="11.63" height="97.62"/><path class="cls-A" d="M152,97.82a3,3,0,1,1,3,2.84A2.93,2.93,0,0,1,152,97.82Zm.85,7.38h4.19v27.29h-4.19Z"/><rect class="cls-4" x="162.52" y="71.19" width="29.94" height="97.62"/><path class="cls-A" d="M165.14,119c0-8.53,5-14.14,12.36-14.14s12.36,5.61,12.36,14.14-5,14.06-12.36,14.06S165.14,127.44,165.14,119Zm20.53,0c0-5.47-2.56-10.37-8.17-10.37s-8.17,4.9-8.17,10.37,2.56,10.3,8.17,10.3S185.67,124.46,185.67,119Z"/><rect class="cls-4" x="194.31" y="71.19" width="29.09" height="97.62"/><path class="cls-A" d="M202.25,132.49h-4.19V105.2h4.05v4.27h.36c1.27-2.77,3.83-4.62,7.95-4.62,5.53,0,9.24,3.34,9.24,10.3v17.34h-4.19V115.44c0-4.28-2.36-6.82-6.25-6.82s-7,2.69-7,7.45Z"/><path class="cls-A" d="M241.47,119.06c0-8.38,4.9-14.21,12.29-14.21,5.68,0,11.72,3.48,11.72,13.64v1.78h-19.8c.19,5.84,3.58,9,8.5,9,3.29,0,5.76-1.42,6.82-4.26l4.05,1.13c-1.27,4.12-5.32,6.89-10.87,6.89C246.3,133.05,241.47,127.44,241.47,119.06Zm19.75-2.42c0-4.61-2.92-8-7.46-8-4.8,0-7.8,3.78-8.08,8Z"/><rect class="cls-4" x="269.81" y="71.19" width="18.51" height="97.62"/><path class="cls-A" d="M273.6,105.2h4v4.13h.29a7.41,7.41,0,0,1,7.1-4.55c.62,0,1.72,0,2.2.07v4.26a13,13,0,0,0-2.56-.28c-4,0-6.89,2.7-6.89,6.39v17.27H273.6Z"/><rect class="cls-4" x="290.27" y="71.19" width="20.74" height="97.62"/><path class="cls-A" d="M307.26,108.76h-5.83v15.91c0,3.55,1.78,4.12,3.62,4.12a8.22,8.22,0,0,0,1.85-.21l.85,3.76a8.53,8.53,0,0,1-3.12.5c-3.56,0-7.39-2.27-7.39-7v-17h-4.12V105.2h4.12V98.67h4.19v6.53h5.83Z"/><path class="cls-A" d="M228.25,97.82a3,3,0,1,1,3,2.84A2.93,2.93,0,0,1,228.25,97.82Zm.85,7.38h4.2v27.29h-4.2Z"/></g></svg>
