<?xml version="1.0" encoding="utf-8"?>
<!-- Generator: Adobe Illustrator 24.0.3, SVG Export Plug-In . SVG Version: 6.00 Build 0)  -->
<svg version="1.1" id="Ebene_1" xmlns="http://www.w3.org/2000/svg" xmlns:xlink="http://www.w3.org/1999/xlink" x="0px" y="0px"
	 viewBox="0 0 228.5 288.8" style="enable-background:new 0 0 228.5 288.8;" xml:space="preserve">
<style type="text/css">
	.st0{fill-rule:evenodd;clip-rule:evenodd;fill:url(#SVGID_1_);}
	
		.st1{fill-rule:evenodd;clip-rule:evenodd;fill:#C5C5D3;stroke:#000000;stroke-width:0.283;stroke-linecap:round;stroke-linejoin:round;stroke-miterlimit:3.864;}
	.st2{fill:#808099;stroke:#000000;stroke-width:0.283;stroke-linecap:round;stroke-linejoin:round;stroke-miterlimit:3.864;}
	
		.st3{fill-rule:evenodd;clip-rule:evenodd;fill:#808099;stroke:#000000;stroke-width:0.283;stroke-linecap:round;stroke-linejoin:round;stroke-miterlimit:3.864;}
	
		.st4{fill-rule:evenodd;clip-rule:evenodd;fill:url(#SVGID_2_);stroke:#000000;stroke-width:0.283;stroke-linecap:round;stroke-linejoin:round;stroke-miterlimit:3.864;}
	.st5{fill-rule:evenodd;clip-rule:evenodd;fill:#808099;}
	.st6{fill:none;stroke:#FFFFFF;stroke-width:2;stroke-linecap:round;stroke-linejoin:round;stroke-miterlimit:3.864;}
	
		.st7{fill-rule:evenodd;clip-rule:evenodd;fill:url(#SVGID_3_);stroke:#000000;stroke-width:0.3;stroke-linecap:round;stroke-linejoin:round;stroke-miterlimit:3.864;}
	.st8{fill:url(#a_2_);}
	.st9{clip-path:url(#SVGID_5_);}
	.st10{fill:#808099;}
	.st11{fill:#876D75;}
	.st12{fill:#8D747B;}
	.st13{fill:#9B8388;}
	.st14{fill:#A28B8F;}
	.st15{fill:#A89396;}
	.st16{fill:#AF9B9D;}
	.st17{fill:#BDACAC;}
	.st18{fill:#D2C5C5;}
	.st19{fill:none;stroke:#000000;stroke-width:0.283;stroke-linecap:round;stroke-linejoin:round;stroke-miterlimit:3.864;}
	.st20{fill-rule:evenodd;clip-rule:evenodd;fill:url(#SVGID_6_);}
	.st21{fill:none;stroke:#000000;stroke-width:0.3;stroke-linecap:round;stroke-linejoin:round;stroke-miterlimit:3.864;}
	.st22{fill:none;stroke:#000000;stroke-width:1.5;stroke-linecap:round;stroke-linejoin:round;stroke-miterlimit:3.864;}
	.st23{fill:none;stroke:#CD113F;stroke-width:2;stroke-linecap:round;stroke-linejoin:round;stroke-miterlimit:3.864;}
</style>
<linearGradient id="SVGID_1_" gradientUnits="userSpaceOnUse" x1="75.573" y1="25.5994" x2="75.573" y2="249.1294" gradientTransform="matrix(1 0 0 -1 0 312.2452)">
	<stop  offset="0" style="stop-color:#FFFFFF"/>
	<stop  offset="1" style="stop-color:#9696B2"/>
</linearGradient>
<path class="st0" d="M30.2,225.8V63.1l90.7,60.9v162.7l-29.1-19.6l-2.9-7.7l-34.3-22.9l-2.5,4L30.2,225.8z"/>
<path class="st1" d="M84.5,26.5V47l37.9,25.4l16-12.2L84.5,26.5z"/>
<path class="st2" d="M57.4,44.7l27.1-18.2V47l-8,5.3C63.3,61.2,64.5,65,78.4,77L57.4,44.7z"/>
<g>
	<path class="st3" d="M190.3,240.1V194l-69.4,46.5v46.1L190.3,240.1z M190.3,171.2V77.5L120.9,124v93.8L190.3,171.2z M109.1,10
		l4.1,18.7l-11.5,4.4l-6.2-13.9L109.1,10z"/>
	<path class="st1" d="M68.7,63l4.1-17.8L105.3,67v20.5L68.7,63z"/>
	<path class="st3" d="M130.7,92.7V72.2l35.5-23.8l4.1,17.8L130.7,92.7z"/>
	<path class="st1" d="M40.6,46.3l26.5,17.8v20.5L36.5,64L40.6,46.3z"/>
	<path class="st3" d="M74.3,59.2L78.4,77l-11.3,7.6V64.1L74.3,59.2z"/>
	
		<linearGradient id="SVGID_2_" gradientUnits="userSpaceOnUse" x1="119.435" y1="232.2104" x2="130.743" y2="232.2104" gradientTransform="matrix(1 0 0 -1 0 312.2452)">
		<stop  offset="0" style="stop-color:#C5C5D3"/>
		<stop  offset="1" style="stop-color:#C5C5D3"/>
	</linearGradient>
	<path class="st4" d="M123.6,67.4l7.2,4.8v20.5l-11.3-7.6L123.6,67.4z"/>
	<path class="st5" d="M111.9,44.9v21L96.1,52.7"/>
	<path class="st6" d="M111.9,44.9v19.4"/>
	<path class="st3" d="M105.3,67v20.5l11.3-7.6l-4.1-17.8L105.3,67z"/>
	<path class="st6" d="M130.7,72.2v20.5 M67.1,64.1v20.5 M84.5,26.5v19.4 M105.3,67v20.5"/>
	
		<linearGradient id="SVGID_3_" gradientUnits="userSpaceOnUse" x1="40.624" y1="273.5354" x2="166.284" y2="273.5354" gradientTransform="matrix(1 0 0 -1 0 312.2452)">
		<stop  offset="0" style="stop-color:#C5C5D3"/>
		<stop  offset="0.556" style="stop-color:#FFFFFF"/>
		<stop  offset="1" style="stop-color:#C5C5D3"/>
	</linearGradient>
	<path class="st7" d="M130.7,72.2l-7.2-4.8l4.9-3.3c4.5-3,4.8-5,1.1-7.5l-17.6-11.8l-4,2.7c-6,4-6,7.5,0.9,12.2l3.7,2.5l-7.2,4.8
		L72.9,45.2l7.2-4.8l2.5,1.7c5,3.3,11.4,5.1,17.6,1l4.6-3.1L84.5,26.5l-10.9,7.3c-13.2,8.8-13.3,13.5,0.7,25.4l-7.2,4.8L40.6,46.3
		l61.3-41.1l7.2,4.8l-6.4,4.3c-2.9,2-3.3,3.9-1,5.5l41.6,27.8c2.7,1.8,6.3,2.3,9.8-0.1l6-4l7.2,4.8L130.7,72.2z"/>
	<path class="st6" d="M120.9,124v162.7"/>
</g>
<g>
	
		<linearGradient id="a_2_" gradientUnits="userSpaceOnUse" x1="142.6272" y1="113.4048" x2="155.3129" y2="94.5977" gradientTransform="matrix(1 0 0 -1 0 312.2452)">
		<stop  offset="0" style="stop-color:#808099"/>
		<stop  offset="0.438" style="stop-color:#808099"/>
		<stop  offset="0.916" style="stop-color:#FFFFFF"/>
		<stop  offset="1" style="stop-color:#FFFFFF"/>
	</linearGradient>
	<path id="a" class="st8" d="M190.3,194l-69.4,46.5c0,0-9.4-3.4-9.4-15.4c0-11.3,9.4-7.4,9.4-7.4l60.1-40.2c0,0.3,0,0.7,0,1.1
		C180.9,190.7,190.3,194,190.3,194z"/>
</g>
<g>
	<defs>
		<path id="SVGID_4_" d="M190.3,194l-69.4,46.5c0,0-9.4-3.4-9.4-15.4c0-11.3,9.4-7.4,9.4-7.4l60.1-40.2c0,0.3,0,0.7,0,1.1
			C180.9,190.7,190.3,194,190.3,194z"/>
	</defs>
	<clipPath id="SVGID_5_">
		<use xlink:href="#SVGID_4_"  style="overflow:visible;"/>
	</clipPath>
	<g class="st9">
		<path class="st10" d="M113.9,234.9l-0.3-0.4"/>
		<path class="st11" d="M114.2,235.3l-0.3-0.4"/>
		<path class="st12" d="M114.5,235.7l-0.3-0.4"/>
		<path class="st13" d="M115,236.5l-0.3-0.4"/>
		<path class="st14" d="M115.3,236.9l-0.3-0.4"/>
		<path class="st15" d="M115.6,237.3l-0.3-0.4"/>
		<path class="st16" d="M115.8,237.7l-0.3-0.4"/>
		<path class="st17" d="M116.4,238.5l-0.3-0.4"/>
		<path class="st18" d="M117.2,239.7l-0.3-0.4"/>
	</g>
</g>
<g>
	<path id="a_1_" class="st19" d="M190.3,194l-69.4,46.5c0,0-9.4-3.4-9.4-15.4c0-11.3,9.4-7.4,9.4-7.4l60.1-40.2c0,0.3,0,0.7,0,1.1
		C180.9,190.7,190.3,194,190.3,194z"/>
</g>
<linearGradient id="SVGID_6_" gradientUnits="userSpaceOnUse" x1="30.239" y1="237.6774" x2="190.327" y2="237.6774" gradientTransform="matrix(1 0 0 -1 0 312.2452)">
	<stop  offset="7.300000e-02" style="stop-color:#C5C5D3"/>
	<stop  offset="0.511" style="stop-color:#FFFFFF"/>
	<stop  offset="0.944" style="stop-color:#C5C5D3"/>
</linearGradient>
<path class="st20" d="M169.8,63.7l20.5,13.7L120.9,124L30.2,63.1l7.7-5.1L36.5,64l30.6,20.5l11.3-7.6l-2-8.8l28.9,19.4l11.3-7.6
	l-3.1-13.5l8.9,6l-3,12.7l11.3,7.6l39.7-26.6L169.8,63.7z M112.4,25.2l35.8,24c-1.8,0-3.5-0.6-4.9-1.5l-30.4-20.4L112.4,25.2z"/>
<path class="st21" d="M169.8,63.7l20.5,13.7L120.9,124L30.2,63.1l7.7-5.1L36.5,64l30.6,20.5l11.3-7.6l-2-8.8l28.9,19.4l11.3-7.6
	l-3.1-13.5l8.9,6l-3,12.7l11.3,7.6l39.7-26.6L169.8,63.7z M112.4,25.2l35.8,24c-1.8,0-3.5-0.6-4.9-1.5l-30.4-20.4L112.4,25.2z"/>
<path class="st22" d="M40.6,46.3l61.3-41.1l7.2,4.8l3.3,15.1l35.8,24c1.6,0,3.2-0.5,4.9-1.6l6-4l7.2,4.8l3.6,15.3l20.5,13.7v93.8
	l-9.4,6.3c0,0.3,0,0.7,0,1.1c0,12.1,9.4,15.4,9.4,15.4v46.1l-69.4,46.5l-29.1-19.6l-2.9-7.7l-34.3-22.9l-2.5,4l-21.8-14.7V63.1
	l7.7-5.1L40.6,46.3z"/>
<line class="st23" x1="30.2" y1="63.1" x2="120.9" y2="124"/>
<line class="st23" x1="128" y1="119.4" x2="113.3" y2="128.8"/>
<line class="st23" x1="36.3" y1="59.2" x2="23.1" y2="67.7"/>
</svg>
