<?xml version="1.0" encoding="utf-8"?>
<!-- Generator: Adobe Illustrator 24.0.3, SVG Export Plug-In . SVG Version: 6.00 Build 0)  -->
<svg version="1.1" id="Ebene_1" xmlns="http://www.w3.org/2000/svg" xmlns:xlink="http://www.w3.org/1999/xlink" x="0px" y="0px"
	 viewBox="0 0 841.9 595.3" style="enable-background:new 0 0 841.9 595.3;" xml:space="preserve">
<style type="text/css">
	.st0{fill:#A5A5C4;stroke:#A5A5C4;stroke-miterlimit:4.9212;}
	.st1{opacity:0.68;fill:none;stroke:#000000;stroke-miterlimit:4.9212;}
</style>
<title>CSS: font-size Minimum ist 9 px</title>
<g>
	<rect x="217.3" y="451.8" class="st0" width="55.4" height="55.4"/>
	<rect x="95" y="513.3" class="st0" width="55.4" height="55.4"/>
	<rect x="156.1" y="513.3" class="st0" width="55.4" height="55.4"/>
	<rect x="217.3" y="513.3" class="st0" width="55.4" height="55.4"/>
	<rect x="217.3" y="144.5" class="st0" width="55.4" height="55.4"/>
	<rect x="217.3" y="206" class="st0" width="55.4" height="55.4"/>
	<rect x="217.3" y="267.4" class="st0" width="55.4" height="55.4"/>
	<rect x="217.3" y="328.9" class="st0" width="55.4" height="55.4"/>
	<rect x="217.3" y="390.4" class="st0" width="55.4" height="55.4"/>
	<rect x="154.9" y="144.5" class="st0" width="55.4" height="55.4"/>
	<rect x="154.9" y="390.4" class="st0" width="55.4" height="55.4"/>
	<rect x="90.8" y="144.5" class="st0" width="55.4" height="55.4"/>
	<rect x="90.8" y="206" class="st0" width="55.4" height="55.4"/>
	<rect x="90.8" y="267.4" class="st0" width="55.4" height="55.4"/>
	<rect x="90.8" y="328.9" class="st0" width="55.4" height="55.4"/>
	<rect x="90.8" y="390.4" class="st0" width="55.4" height="55.4"/>
	<rect x="323" y="22.1" class="st0" width="55.4" height="55.4"/>
	<rect x="323" y="83.6" class="st0" width="55.4" height="55.4"/>
	<rect x="323" y="145" class="st0" width="55.4" height="55.4"/>
	<rect x="323" y="206.5" class="st0" width="55.4" height="55.4"/>
	<rect x="323" y="268" class="st0" width="55.4" height="55.4"/>
	<rect x="323" y="327.8" class="st0" width="55.4" height="55.4"/>
	<rect x="323" y="389.3" class="st0" width="55.4" height="55.4"/>
	<rect x="384.7" y="388.4" class="st0" width="55.4" height="55.4"/>
	<rect x="445.9" y="388.4" class="st0" width="55.4" height="55.4"/>
	<rect x="446.2" y="145" class="st0" width="55.4" height="55.4"/>
	<rect x="446.2" y="206.5" class="st0" width="55.4" height="55.4"/>
	<rect x="446.2" y="268" class="st0" width="55.4" height="55.4"/>
	<rect x="446.2" y="327.8" class="st0" width="55.4" height="55.4"/>
	<rect x="385.5" y="145" class="st0" width="55.4" height="55.4"/>
	<rect x="562.7" y="388.4" class="st0" width="55.4" height="55.4"/>
	<rect x="563.1" y="145" class="st0" width="55.4" height="55.4"/>
	<rect x="563.1" y="206.5" class="st0" width="55.4" height="55.4"/>
	<rect x="563.1" y="268" class="st0" width="55.4" height="55.4"/>
	<rect x="563.1" y="327.8" class="st0" width="55.4" height="55.4"/>
	<rect x="622.8" y="388.4" class="st0" width="55.4" height="55.4"/>
	<rect x="623.1" y="145" class="st0" width="55.4" height="55.4"/>
	<rect x="623.1" y="268" class="st0" width="55.4" height="55.4"/>
	<rect x="685.2" y="388.4" class="st0" width="55.4" height="55.4"/>
	<rect x="685.5" y="145" class="st0" width="55.4" height="55.4"/>
	<rect x="685.5" y="206.5" class="st0" width="55.4" height="55.4"/>
	<rect x="685.5" y="268" class="st0" width="55.4" height="55.4"/>
</g>
<g>
	<path class="st1" d="M-3.3,19.5h841.5"/>
	<path class="st1" d="M0.7,141.5h841.5"/>
	<path class="st1" d="M-3.3,448.2h841.5"/>
	<path class="st1" d="M-3.3,574.9h841.5"/>
</g>
</svg>
