<svg id="Ebene_3" data-name="Ebene 3" xmlns="http://www.w3.org/2000/svg" viewBox="0 0 691.75 316.61"><defs><style>.cls-1{fill:#ededed;}.cls-2,.cls-3,.cls-4,.cls-8{fill:none;}.cls-2{stroke:#b2b2b2;}.cls-2,.cls-3,.cls-4{stroke-linecap:square;}.cls-2,.cls-3{stroke-width:3px;}.cls-3{stroke:#ff7d5d;}.cls-4{stroke:#50e0ff;stroke-width:2.64px;}.cls-5{fill:#ff7d5d;}.cls-6{fill:#50e0ff;}.cls-7{fill:#89e650;}.cls-8{stroke:#89e650;stroke-width:2px;}</style></defs><polygon class="cls-1" points="349.92 83.45 349.92 232.51 376.21 232.51 376.21 203.94 389.25 190.9 420.93 232.51 454.05 232.51 406.64 173.3 451.77 127.96 418.86 127.96 376.21 174.54 376.21 83.45 349.92 83.45"/><path class="cls-1" d="M549.53,282q7.14,8.09,7.14,19.88a33.88,33.88,0,0,1-3.31,14.8A29.19,29.19,0,0,1,544.05,328,23.38,23.38,0,0,1,530,332.33a27.41,27.41,0,0,1-14.18-3.83,56.54,56.54,0,0,1-12.12-9.63V303.76q-.19-9.31,3.63-15.94a27.53,27.53,0,0,1,10-10.25A25.9,25.9,0,0,1,530.59,274q11.8,0,18.94,8.07m-32.61-28.46a40.56,40.56,0,0,0-13.25,14.38V250.35H477.38V404.58h26.29V343.1a47.44,47.44,0,0,0,14.39,10.66A38.7,38.7,0,0,0,535.35,358a46.28,46.28,0,0,0,24.53-6.73,47.43,47.43,0,0,0,17.6-19.35q6.53-12.63,6.52-30t-6.52-29.5A46.34,46.34,0,0,0,560.3,254a44.53,44.53,0,0,0-23.09-6.31,35.22,35.22,0,0,0-20.29,5.9" transform="translate(-259.14 -122.38)"/><line class="cls-2" x1="145.73" y1="92.35" x2="523.91" y2="92.35"/><line class="cls-2" x1="145.73" y1="81.94" x2="523.91" y2="81.94"/><line class="cls-3" x1="145.73" y1="57.52" x2="523.91" y2="57.52"/><line class="cls-3" x1="145.73" y1="307.96" x2="523.91" y2="307.96"/><line class="cls-2" x1="145.73" y1="126.49" x2="523.91" y2="126.49"/><line class="cls-4" x1="145.55" y1="233.79" x2="524.24" y2="233.79"/><line class="cls-2" x1="145.73" y1="283.7" x2="523.91" y2="283.7"/><path class="cls-5" d="M272.09,175v3.6l3-3.6h3.3l-3.55,4,4,5.78h-3.49L273,181.12l-.89,1v2.68h-2.74V175Z" transform="translate(-259.14 -122.38)"/><path class="cls-5" d="M283.3,177.12a3.75,3.75,0,0,1,1.88.47,3.29,3.29,0,0,1,1.28,1.31,4.1,4.1,0,0,1,.46,2v.87h-5.08a1.29,1.29,0,0,0,.64.8,2.29,2.29,0,0,0,1.12.27,4.12,4.12,0,0,0,1.47-.24q.62-.25.93-.42v2.15a5.34,5.34,0,0,1-1.05.47,4.54,4.54,0,0,1-4.36-.79,3.67,3.67,0,0,1-.92-1.21,3.76,3.76,0,0,1-.34-1.6,4.13,4.13,0,0,1,.52-2,4,4,0,0,1,1.42-1.48A3.83,3.83,0,0,1,283.3,177.12Zm-.07,2.08a1.37,1.37,0,0,0-.83.26,1.44,1.44,0,0,0-.52.78h2.65a.85.85,0,0,0-.4-.78A1.66,1.66,0,0,0,283.23,179.2Z" transform="translate(-259.14 -122.38)"/><path class="cls-5" d="M290.87,177.12A3,3,0,0,1,293,178v-.69h2.52v7.25a3.68,3.68,0,0,1-.59,2.08,4,4,0,0,1-1.55,1.38,4.57,4.57,0,0,1-2.12.5,4.68,4.68,0,0,1-1.63-.26,6.47,6.47,0,0,1-1.38-.71v-2.22l.86.46a3.87,3.87,0,0,0,.84.33,3.82,3.82,0,0,0,1.07.13,2,2,0,0,0,1.45-.51,1.61,1.61,0,0,0,.53-1.16v-1a2.66,2.66,0,0,1-.85,1,2.26,2.26,0,0,1-1.38.42,3.07,3.07,0,0,1-1.56-.42,3.13,3.13,0,0,1-1.2-1.31,4.8,4.8,0,0,1-.46-2.24,4.47,4.47,0,0,1,.46-2.13,3.27,3.27,0,0,1,1.23-1.34A3.2,3.2,0,0,1,290.87,177.12Zm.53,2.46a1.13,1.13,0,0,0-.9.44,1.6,1.6,0,0,0-.36,1,1.47,1.47,0,0,0,.36,1,1.23,1.23,0,0,0,1,.41,1.49,1.49,0,0,0,.66-.16,1.68,1.68,0,0,0,.58-.52,1.5,1.5,0,0,0,.24-.88v-.72a3.15,3.15,0,0,0-.73-.44A2,2,0,0,0,291.4,179.58Z" transform="translate(-259.14 -122.38)"/><path class="cls-5" d="M300.69,177.12a3.75,3.75,0,0,1,1.88.47,3.36,3.36,0,0,1,1.28,1.31,4.1,4.1,0,0,1,.46,2v.87h-5.08a1.26,1.26,0,0,0,.64.8,2.26,2.26,0,0,0,1.12.27,4.12,4.12,0,0,0,1.47-.24q.62-.25.93-.42v2.15a5.94,5.94,0,0,1-1.05.47,4.81,4.81,0,0,1-3,0A4.27,4.27,0,0,1,298,184a3.54,3.54,0,0,1-.92-1.21,3.61,3.61,0,0,1-.34-1.6,4.13,4.13,0,0,1,.52-2,4,4,0,0,1,1.42-1.48A3.8,3.8,0,0,1,300.69,177.12Zm-.07,2.08a1.42,1.42,0,0,0-.84.26,1.49,1.49,0,0,0-.51.78h2.65a.85.85,0,0,0-.4-.78A1.66,1.66,0,0,0,300.62,179.2Z" transform="translate(-259.14 -122.38)"/><path class="cls-5" d="M307.92,174.27v10.54H305.4V174.27Z" transform="translate(-259.14 -122.38)"/><path class="cls-5" d="M313.28,177.12a3.9,3.9,0,0,1,1.5.3,4.3,4.3,0,0,1,1.32.82,4,4,0,0,1,.93,1.25,3.79,3.79,0,0,1,0,3.18,4,4,0,0,1-.93,1.25,4.3,4.3,0,0,1-1.32.82,3.89,3.89,0,0,1-1.5.29,3.94,3.94,0,0,1-1.51-.29,4.3,4.3,0,0,1-1.32-.82,4,4,0,0,1-.93-1.25,3.79,3.79,0,0,1,0-3.18,4,4,0,0,1,.93-1.25,4.3,4.3,0,0,1,1.32-.82A4,4,0,0,1,313.28,177.12Zm0,2.42a1.77,1.77,0,0,0-.6.12,1.13,1.13,0,0,0-.56.44,2.1,2.1,0,0,0,0,2,1.15,1.15,0,0,0,.56.45,1.56,1.56,0,0,0,1.2,0,1.18,1.18,0,0,0,.55-.45,2.1,2.1,0,0,0,0-2,1.15,1.15,0,0,0-.55-.44A1.77,1.77,0,0,0,313.28,179.54Z" transform="translate(-259.14 -122.38)"/><path class="cls-5" d="M323.22,177.12a3.25,3.25,0,0,1,2.9,1.81,4.47,4.47,0,0,1,.46,2.13,4.93,4.93,0,0,1-.45,2.24,3.05,3.05,0,0,1-1.19,1.31,3.17,3.17,0,0,1-1.58.42,2.28,2.28,0,0,1-1.38-.42,2.55,2.55,0,0,1-.84-1v1.24h-2.52V174.27h2.52V178a2.81,2.81,0,0,1,.93-.65A2.72,2.72,0,0,1,323.22,177.12Zm-.53,2.46a1.91,1.91,0,0,0-.81.18,3.22,3.22,0,0,0-.74.44v.72a1.5,1.5,0,0,0,.24.88,1.6,1.6,0,0,0,.58.52,1.51,1.51,0,0,0,.65.16,1.2,1.2,0,0,0,1-.41,1.43,1.43,0,0,0,.37-1,1.65,1.65,0,0,0-.35-1A1.13,1.13,0,0,0,322.69,179.58Z" transform="translate(-259.14 -122.38)"/><path class="cls-5" d="M331.29,177.12a3.75,3.75,0,0,1,1.88.47,3.29,3.29,0,0,1,1.28,1.31,4.1,4.1,0,0,1,.46,2v.87h-5.08a1.29,1.29,0,0,0,.64.8,2.29,2.29,0,0,0,1.12.27,4.12,4.12,0,0,0,1.47-.24q.62-.25.93-.42v2.15a5.34,5.34,0,0,1-1.05.47,4.81,4.81,0,0,1-3,0,4.51,4.51,0,0,1-1.33-.76,3.67,3.67,0,0,1-.92-1.21,3.76,3.76,0,0,1-.34-1.6,4.13,4.13,0,0,1,.52-2,4.06,4.06,0,0,1,1.43-1.48A3.77,3.77,0,0,1,331.29,177.12Zm-.07,2.08a1.37,1.37,0,0,0-.83.26,1.44,1.44,0,0,0-.52.78h2.65a.85.85,0,0,0-.4-.78A1.66,1.66,0,0,0,331.22,179.2Z" transform="translate(-259.14 -122.38)"/><path class="cls-5" d="M341.1,180.11a1.83,1.83,0,0,0-.46-.18,1.91,1.91,0,0,0-.56-.07,1.45,1.45,0,0,0-.91.31,2.28,2.28,0,0,0-.65.81v3.83H336v-7.47h2.52v1.34a5.36,5.36,0,0,1,.79-1,1.48,1.48,0,0,1,1.13-.44,1.47,1.47,0,0,1,.66.13Z" transform="translate(-259.14 -122.38)"/><path class="cls-5" d="M344.65,174.27v6.08l2.39-3h3l-3,3.23,3.15,4.24H347l-1.58-2.52-.81.85v1.67h-2.51V174.27Z" transform="translate(-259.14 -122.38)"/><path class="cls-5" d="M353.29,177.12a2.75,2.75,0,0,1,1.15.26,2.81,2.81,0,0,1,.93.65v-.69h2.52v7.47h-2.52v-1.24a2.58,2.58,0,0,1-.85,1,2.25,2.25,0,0,1-1.37.42,3,3,0,0,1-2.77-1.73,4.93,4.93,0,0,1-.46-2.24,4.59,4.59,0,0,1,.46-2.13,3.27,3.27,0,0,1,1.23-1.34A3.23,3.23,0,0,1,353.29,177.12Zm.53,2.46a1.13,1.13,0,0,0-.9.44,1.6,1.6,0,0,0-.36,1,1.43,1.43,0,0,0,.37,1,1.19,1.19,0,0,0,1,.41,1.46,1.46,0,0,0,.66-.16,1.6,1.6,0,0,0,.58-.52,1.5,1.5,0,0,0,.24-.88v-.72a2.89,2.89,0,0,0-.72-.44A2,2,0,0,0,353.82,179.58Z" transform="translate(-259.14 -122.38)"/><path class="cls-5" d="M362.18,177.34v1a3.53,3.53,0,0,1,.85-.83,2.13,2.13,0,0,1,1.26-.36,2.42,2.42,0,0,1,1.86.78,3.22,3.22,0,0,1,.73,2.3v4.61h-2.52l0-4.21a.92.92,0,0,0-.3-.79,1.17,1.17,0,0,0-.69-.23,1.12,1.12,0,0,0-.69.22,2.07,2.07,0,0,0-.48.5v4.51h-2.52v-7.47Z" transform="translate(-259.14 -122.38)"/><path class="cls-5" d="M371.46,175.15v2.19h2v2h-2v2.1a1.43,1.43,0,0,0,.23.85.74.74,0,0,0,.64.32,2.32,2.32,0,0,0,1.18-.32v2a1.87,1.87,0,0,1-.74.56,2.86,2.86,0,0,1-1.24.24,2.56,2.56,0,0,1-1.28-.32,2.4,2.4,0,0,1-.95-.92,2.79,2.79,0,0,1-.36-1.45v-3h-1.26v-1.54a3.34,3.34,0,0,0,1.42-.83,3.66,3.66,0,0,0,1-1.8Z" transform="translate(-259.14 -122.38)"/><path class="cls-5" d="M378.22,177.12a3.71,3.71,0,0,1,1.87.47,3.32,3.32,0,0,1,1.29,1.31,4.22,4.22,0,0,1,.46,2v.87h-5.09a1.31,1.31,0,0,0,.65.8,2.23,2.23,0,0,0,1.11.27,4,4,0,0,0,1.47-.24,9.42,9.42,0,0,0,.93-.42v2.15a5.49,5.49,0,0,1-1,.47,4.84,4.84,0,0,1-3,0,4.33,4.33,0,0,1-1.32-.76,3.54,3.54,0,0,1-.92-1.21,3.61,3.61,0,0,1-.34-1.6,4.08,4.08,0,0,1,1.94-3.52A3.8,3.8,0,0,1,378.22,177.12Zm-.07,2.08a1.38,1.38,0,0,0-.84.26,1.43,1.43,0,0,0-.51.78h2.65a.87.87,0,0,0-.4-.78A1.66,1.66,0,0,0,378.15,179.2Z" transform="translate(-259.14 -122.38)"/><path class="cls-5" d="M266.39,425.44V429l3-3.6h3.3l-3.55,4,4,5.78h-3.49l-2.36-3.69-.89,1v2.68h-2.74v-9.81Z" transform="translate(-259.14 -122.38)"/><path class="cls-5" d="M277.6,427.56a3.75,3.75,0,0,1,1.88.47,3.36,3.36,0,0,1,1.28,1.31,4.1,4.1,0,0,1,.46,2v.87h-5.08a1.29,1.29,0,0,0,.64.8,2.29,2.29,0,0,0,1.12.27,4.12,4.12,0,0,0,1.47-.24,9.24,9.24,0,0,0,.93-.42v2.15a5.34,5.34,0,0,1-1.05.47,4.81,4.81,0,0,1-3,0,4.18,4.18,0,0,1-1.33-.76,3.67,3.67,0,0,1-.92-1.21,3.76,3.76,0,0,1-.34-1.6,4.15,4.15,0,0,1,.52-2,4.06,4.06,0,0,1,1.43-1.48A3.77,3.77,0,0,1,277.6,427.56Zm-.07,2.08a1.37,1.37,0,0,0-.83.26,1.44,1.44,0,0,0-.52.78h2.65a.85.85,0,0,0-.4-.78A1.66,1.66,0,0,0,277.53,429.64Z" transform="translate(-259.14 -122.38)"/><path class="cls-5" d="M285.17,427.56a3,3,0,0,1,2.08.91v-.69h2.52V435a3.67,3.67,0,0,1-.59,2.07,4,4,0,0,1-1.55,1.38,4.57,4.57,0,0,1-2.12.5,4.68,4.68,0,0,1-1.63-.26,6.47,6.47,0,0,1-1.38-.71V435.8l.86.47a4.43,4.43,0,0,0,.84.32,3.82,3.82,0,0,0,1.07.13,2,2,0,0,0,1.45-.51,1.59,1.59,0,0,0,.53-1.16v-1a2.66,2.66,0,0,1-.85,1,2.26,2.26,0,0,1-1.38.42,3.07,3.07,0,0,1-1.56-.42,3.13,3.13,0,0,1-1.2-1.31,4.8,4.8,0,0,1-.46-2.24,4.5,4.5,0,0,1,.46-2.13,3.27,3.27,0,0,1,1.23-1.34A3.2,3.2,0,0,1,285.17,427.56Zm.53,2.47a1.12,1.12,0,0,0-.9.43,1.6,1.6,0,0,0-.36,1,1.5,1.5,0,0,0,.36,1,1.26,1.26,0,0,0,1,.41,1.47,1.47,0,0,0,.66-.17,1.65,1.65,0,0,0,.58-.51,1.53,1.53,0,0,0,.24-.89v-.72a3,3,0,0,0-.73-.44A2,2,0,0,0,285.7,430Z" transform="translate(-259.14 -122.38)"/><path class="cls-5" d="M295,427.56a3.75,3.75,0,0,1,1.88.47,3.43,3.43,0,0,1,1.28,1.31,4.1,4.1,0,0,1,.46,2v.87h-5.08a1.29,1.29,0,0,0,.64.8,2.26,2.26,0,0,0,1.12.27,4.12,4.12,0,0,0,1.47-.24,9.24,9.24,0,0,0,.93-.42v2.15a5.94,5.94,0,0,1-1.05.47,4.81,4.81,0,0,1-3,0,4.18,4.18,0,0,1-1.33-.76,3.54,3.54,0,0,1-.92-1.21,3.76,3.76,0,0,1-.34-1.6,4.15,4.15,0,0,1,.52-2,4.11,4.11,0,0,1,1.42-1.48A3.8,3.8,0,0,1,295,427.56Zm-.07,2.08a1.42,1.42,0,0,0-.84.26,1.49,1.49,0,0,0-.51.78h2.65a.85.85,0,0,0-.4-.78A1.66,1.66,0,0,0,294.92,429.64Z" transform="translate(-259.14 -122.38)"/><path class="cls-5" d="M302.22,424.71v10.54H299.7V424.71Z" transform="translate(-259.14 -122.38)"/><path class="cls-5" d="M311.06,427.78v4.49a3.13,3.13,0,0,1-.46,1.73,3,3,0,0,1-1.27,1.09,4.15,4.15,0,0,1-1.84.38,4.19,4.19,0,0,1-1.85-.38,3,3,0,0,1-1.26-1.09,3.13,3.13,0,0,1-.47-1.73v-4.49h2.52l0,3.81a2,2,0,0,0,.24,1.12,1.09,1.09,0,0,0,1.6,0,2,2,0,0,0,.24-1.12v-3.81Z" transform="translate(-259.14 -122.38)"/><path class="cls-5" d="M315.26,427.78v1a3.4,3.4,0,0,1,.86-.83,2.08,2.08,0,0,1,1.25-.36,2.45,2.45,0,0,1,1.87.78,3.27,3.27,0,0,1,.72,2.3v4.61h-2.52V431a.91.91,0,0,0-.31-.79,1.12,1.12,0,0,0-.69-.22,1.13,1.13,0,0,0-.69.21,2.53,2.53,0,0,0-.48.5v4.51h-2.52v-7.47Z" transform="translate(-259.14 -122.38)"/><path class="cls-5" d="M324.54,425.59v2.19h2v2h-2v2.1a1.43,1.43,0,0,0,.23.85.75.75,0,0,0,.64.32,2.36,2.36,0,0,0,1.19-.32v2a2,2,0,0,1-.74.56,2.89,2.89,0,0,1-1.24.24,2.57,2.57,0,0,1-1.29-.32,2.47,2.47,0,0,1-.95-.92,2.76,2.76,0,0,1-.36-1.45v-3h-1.25v-1.54a3.45,3.45,0,0,0,1.41-.82,3.83,3.83,0,0,0,1-1.81Z" transform="translate(-259.14 -122.38)"/><path class="cls-5" d="M331.3,427.56a3.77,3.77,0,0,1,1.88.47,3.43,3.43,0,0,1,1.28,1.31,4.1,4.1,0,0,1,.46,2v.87h-5.08a1.26,1.26,0,0,0,.64.8,2.23,2.23,0,0,0,1.11.27,4.14,4.14,0,0,0,1.48-.24,9.24,9.24,0,0,0,.93-.42v2.15a5.94,5.94,0,0,1-1.05.47,4.81,4.81,0,0,1-3,0,4.08,4.08,0,0,1-1.33-.76,3.54,3.54,0,0,1-.92-1.21,3.61,3.61,0,0,1-.34-1.6,4.15,4.15,0,0,1,.52-2,4.11,4.11,0,0,1,1.42-1.48A3.8,3.8,0,0,1,331.3,427.56Zm-.07,2.08a1.42,1.42,0,0,0-.84.26,1.49,1.49,0,0,0-.51.78h2.65a.85.85,0,0,0-.4-.78A1.66,1.66,0,0,0,331.23,429.64Z" transform="translate(-259.14 -122.38)"/><path class="cls-5" d="M341.11,430.55a2,2,0,0,0-.46-.18,2.34,2.34,0,0,0-.57-.07,1.44,1.44,0,0,0-.9.31,2.28,2.28,0,0,0-.65.81v3.83H336v-7.47h2.52v1.34a5.76,5.76,0,0,1,.78-1,1.51,1.51,0,0,1,1.14-.44,1.53,1.53,0,0,1,.66.13Z" transform="translate(-259.14 -122.38)"/><path class="cls-5" d="M344.66,424.71v6.08l2.39-3h3.05l-3,3.23,3.15,4.24h-3.18l-1.58-2.51-.81.84v1.67h-2.52V424.71Z" transform="translate(-259.14 -122.38)"/><path class="cls-5" d="M353.3,427.56a2.79,2.79,0,0,1,1.15.26,3,3,0,0,1,.93.65v-.69h2.52v7.47h-2.52V434a2.66,2.66,0,0,1-.85,1,2.26,2.26,0,0,1-1.38.42,3.13,3.13,0,0,1-1.57-.42,3.18,3.18,0,0,1-1.19-1.31,4.8,4.8,0,0,1-.46-2.24,4.5,4.5,0,0,1,.46-2.13,3.27,3.27,0,0,1,1.23-1.34A3.18,3.18,0,0,1,353.3,427.56Zm.53,2.47a1.12,1.12,0,0,0-.91.43,1.65,1.65,0,0,0-.35,1,1.5,1.5,0,0,0,.36,1,1.26,1.26,0,0,0,1,.41,1.54,1.54,0,0,0,.66-.17,1.65,1.65,0,0,0,.58-.51,1.53,1.53,0,0,0,.24-.89v-.72a3.15,3.15,0,0,0-.73-.44A2,2,0,0,0,353.83,430Z" transform="translate(-259.14 -122.38)"/><path class="cls-5" d="M362.18,427.78v1a3.57,3.57,0,0,1,.86-.83,2.1,2.1,0,0,1,1.25-.36,2.44,2.44,0,0,1,1.87.78,3.27,3.27,0,0,1,.73,2.3v4.61h-2.52l0-4.21a.91.91,0,0,0-.31-.79,1.11,1.11,0,0,0-.68-.22,1.09,1.09,0,0,0-.69.21,2.32,2.32,0,0,0-.49.5v4.51h-2.52v-7.47Z" transform="translate(-259.14 -122.38)"/><path class="cls-5" d="M371.47,425.59v2.19h2v2h-2v2.1a1.43,1.43,0,0,0,.22.85.76.76,0,0,0,.64.32,2.33,2.33,0,0,0,1.19-.32v2a2,2,0,0,1-.74.56,2.89,2.89,0,0,1-1.24.24,2.57,2.57,0,0,1-1.29-.32,2.44,2.44,0,0,1-.94-.92,2.76,2.76,0,0,1-.36-1.45v-3h-1.26v-1.54a3.33,3.33,0,0,0,1.41-.82,3.67,3.67,0,0,0,1-1.81Z" transform="translate(-259.14 -122.38)"/><path class="cls-5" d="M378.23,427.56a3.74,3.74,0,0,1,1.87.47,3.36,3.36,0,0,1,1.28,1.31,4.1,4.1,0,0,1,.46,2v.87h-5.08a1.29,1.29,0,0,0,.64.8,2.29,2.29,0,0,0,1.12.27A4.08,4.08,0,0,0,380,433a7.52,7.52,0,0,0,.93-.42v2.15a5.34,5.34,0,0,1-1.05.47,4.81,4.81,0,0,1-3,0,4.14,4.14,0,0,1-1.32-.76,3.57,3.57,0,0,1-.93-1.21,3.75,3.75,0,0,1-.33-1.6,4.08,4.08,0,0,1,1.94-3.52A3.78,3.78,0,0,1,378.23,427.56Zm-.08,2.08a1.37,1.37,0,0,0-.83.26,1.44,1.44,0,0,0-.52.78h2.66a.86.86,0,0,0-.41-.78A1.66,1.66,0,0,0,378.15,429.64Z" transform="translate(-259.14 -122.38)"/><path class="cls-6" d="M810.25,342.56a7,7,0,0,1,1.71.21,4.42,4.42,0,0,1,1.36.56V346a13.31,13.31,0,0,0-1.25-.63,3.57,3.57,0,0,0-1.45-.27,2.09,2.09,0,0,0-.83.14.51.51,0,0,0-.36.49.59.59,0,0,0,.43.54c.28.13.63.27,1,.42l1.05.4a2.94,2.94,0,0,1,1.52,1.11,2.6,2.6,0,0,1,.45,1.41,2.71,2.71,0,0,1-.54,1.66,3.76,3.76,0,0,1-1.47,1.14,4.94,4.94,0,0,1-2.07.42,5.07,5.07,0,0,1-1.74-.31,6.28,6.28,0,0,1-1.51-.76v-2.65a6.91,6.91,0,0,0,1.52.86,4.15,4.15,0,0,0,1.63.34,2.39,2.39,0,0,0,.83-.12.45.45,0,0,0,.31-.44.46.46,0,0,0-.23-.38,2.68,2.68,0,0,0-.63-.28l-1.39-.44a3.13,3.13,0,0,1-1.28-.71,2.56,2.56,0,0,1-.63-1,4.11,4.11,0,0,1-.17-1.15,2.8,2.8,0,0,1,.53-1.75,3.41,3.41,0,0,1,1.37-1.08A4.59,4.59,0,0,1,810.25,342.56Z" transform="translate(-259.14 -122.38)"/><path class="cls-6" d="M818.52,344.9a2.67,2.67,0,0,1,1.33.27,8.17,8.17,0,0,1,.84.56v2.2a2.66,2.66,0,0,0-.77-.39,3.26,3.26,0,0,0-1.06-.15,1.79,1.79,0,0,0-1.32.68,1.39,1.39,0,0,0-.25.83,1.34,1.34,0,0,0,.47,1.11,1.67,1.67,0,0,0,1.1.38,3.26,3.26,0,0,0,1.06-.15,2.93,2.93,0,0,0,.77-.39v2.2a5.74,5.74,0,0,1-.84.53,3.11,3.11,0,0,1-1.33.23,3.84,3.84,0,0,1-1.55-.32,3.73,3.73,0,0,1-1.25-.86,4,4,0,0,1-.84-1.25,3.73,3.73,0,0,1-.3-1.48,3.86,3.86,0,0,1,.3-1.5,4.3,4.3,0,0,1,.84-1.28,4.13,4.13,0,0,1,1.25-.89A3.69,3.69,0,0,1,818.52,344.9Z" transform="translate(-259.14 -122.38)"/><path class="cls-6" d="M826.35,344.9a2.42,2.42,0,0,1,1.87.78A3.21,3.21,0,0,1,829,348v4.61h-2.52l0-4.22a.91.91,0,0,0-.3-.78,1.17,1.17,0,0,0-.69-.23,1.09,1.09,0,0,0-.69.21,1.94,1.94,0,0,0-.48.51v4.51h-2.52V342h2.52v4a3.57,3.57,0,0,1,.85-.84A2.19,2.19,0,0,1,826.35,344.9Z" transform="translate(-259.14 -122.38)"/><path class="cls-6" d="M835.72,347.89a1.83,1.83,0,0,0-.46-.18,1.91,1.91,0,0,0-.56-.07,1.41,1.41,0,0,0-.91.31,2.36,2.36,0,0,0-.65.8v3.84h-2.52v-7.47h2.52v1.33a5.68,5.68,0,0,1,.79-1,1.52,1.52,0,0,1,1.13-.44,1.62,1.62,0,0,1,.66.13Z" transform="translate(-259.14 -122.38)"/><path class="cls-6" d="M840.12,345.12v7.47h-2.51v-5.42h-1.22v-2.05Zm-1.42-4.19a1.63,1.63,0,0,1,.79.2,1.8,1.8,0,0,1,.58.55,1.47,1.47,0,0,1,.22.77,1.43,1.43,0,0,1-.22.76,1.64,1.64,0,0,1-.58.56,1.53,1.53,0,0,1-.79.21,1.51,1.51,0,0,1-1.09-.45,1.42,1.42,0,0,1-.47-1.08,1.39,1.39,0,0,1,.47-1.08A1.54,1.54,0,0,1,838.7,340.93Z" transform="translate(-259.14 -122.38)"/><path class="cls-6" d="M846.78,345.12v2h-1.7v5.49h-2.52V347.1h-1.11v-2h1.11v-.38a2.84,2.84,0,0,1,.39-1.5,2.81,2.81,0,0,1,1-1,2.92,2.92,0,0,1,1.49-.38,3.84,3.84,0,0,1,1,.11,2.42,2.42,0,0,1,.69.26v2.05A2.17,2.17,0,0,0,846,344a1.14,1.14,0,0,0-.65.21.76.76,0,0,0-.31.64v.28Z" transform="translate(-259.14 -122.38)"/><path class="cls-6" d="M851.29,342.92v2.2h2v2h-2v2.09a1.46,1.46,0,0,0,.22.86.76.76,0,0,0,.64.31,2.24,2.24,0,0,0,1.19-.32v2a1.86,1.86,0,0,1-.74.57,2.89,2.89,0,0,1-1.24.24,2.68,2.68,0,0,1-1.29-.32,2.54,2.54,0,0,1-.94-.93,2.76,2.76,0,0,1-.36-1.45v-3h-1.26v-1.54a3.36,3.36,0,0,0,1.41-.83,3.63,3.63,0,0,0,1-1.81Z" transform="translate(-259.14 -122.38)"/><path class="cls-6" d="M857.26,342v10.55h-2.52V342Z" transform="translate(-259.14 -122.38)"/><path class="cls-6" d="M862.39,345.12v7.47h-2.52v-5.42h-1.21v-2.05ZM861,340.93a1.56,1.56,0,0,1,1.36.75,1.38,1.38,0,0,1,.22.77,1.35,1.35,0,0,1-.22.76,1.53,1.53,0,0,1-.57.56,1.58,1.58,0,0,1-1.89-.24,1.45,1.45,0,0,1-.47-1.08,1.42,1.42,0,0,1,.47-1.08A1.58,1.58,0,0,1,861,340.93Z" transform="translate(-259.14 -122.38)"/><path class="cls-6" d="M866.68,345.12v1a3.44,3.44,0,0,1,.86-.84,2.14,2.14,0,0,1,1.25-.35,2.45,2.45,0,0,1,1.87.78,3.25,3.25,0,0,1,.72,2.3v4.61h-2.52v-4.22a.92.92,0,0,0-.31-.78,1.17,1.17,0,0,0-.69-.23,1.13,1.13,0,0,0-.69.21,2.12,2.12,0,0,0-.48.51v4.51h-2.52v-7.47Z" transform="translate(-259.14 -122.38)"/><path class="cls-6" d="M876.43,345.12v7.47h-2.52v-5.42h-1.22v-2.05ZM875,340.93a1.62,1.62,0,0,1,.78.2,1.8,1.8,0,0,1,.58.55,1.47,1.47,0,0,1,.22.77,1.43,1.43,0,0,1-.22.76,1.64,1.64,0,0,1-.58.56,1.56,1.56,0,0,1-1.88-.24,1.42,1.42,0,0,1-.47-1.08,1.39,1.39,0,0,1,.47-1.08A1.57,1.57,0,0,1,875,340.93Z" transform="translate(-259.14 -122.38)"/><path class="cls-6" d="M881.65,344.9a3.71,3.71,0,0,1,1.87.47,3.32,3.32,0,0,1,1.29,1.31,4.19,4.19,0,0,1,.46,2v.86h-5.09a1.35,1.35,0,0,0,.65.81,2.33,2.33,0,0,0,1.11.26,4,4,0,0,0,1.47-.24,6.26,6.26,0,0,0,.93-.42v2.16a6.21,6.21,0,0,1-1,.47,4.84,4.84,0,0,1-3,0,4.16,4.16,0,0,1-1.32-.77,3.5,3.5,0,0,1-.92-1.2,3.66,3.66,0,0,1-.34-1.61,4.08,4.08,0,0,1,1.94-3.51A3.71,3.71,0,0,1,881.65,344.9Zm-.07,2.08a1.4,1.4,0,0,0-.84.26,1.49,1.49,0,0,0-.51.78h2.65a.85.85,0,0,0-.4-.78A1.66,1.66,0,0,0,881.58,347Z" transform="translate(-259.14 -122.38)"/><path class="cls-6" d="M810.69,359.48a6.55,6.55,0,0,0-.84,1.26,11.64,11.64,0,0,0-.71,1.67,14.63,14.63,0,0,0-.48,1.84,9.2,9.2,0,0,0-.18,1.75,9.57,9.57,0,0,0,.18,1.81,13.65,13.65,0,0,0,.48,1.83,11.6,11.6,0,0,0,.71,1.63,6.68,6.68,0,0,0,.84,1.24h-1.33a7.57,7.57,0,0,1-1.14-1.64,11.16,11.16,0,0,1-.89-2.28A9.8,9.8,0,0,1,807,366a8.86,8.86,0,0,1,.2-1.91,12.42,12.42,0,0,1,.53-1.83,11.33,11.33,0,0,1,.76-1.6,7,7,0,0,1,.88-1.18Z" transform="translate(-259.14 -122.38)"/><path class="cls-6" d="M816.34,364.22h4.32v4a4.17,4.17,0,0,1-.91.74,5,5,0,0,1-1.28.59,5.32,5.32,0,0,1-1.59.22,5.13,5.13,0,0,1-2-.4,5.43,5.43,0,0,1-1.64-1.1,5.14,5.14,0,0,1,0-7.24,5.09,5.09,0,0,1,3.69-1.51,4.53,4.53,0,0,1,1.75.29,4.12,4.12,0,0,1,1.2.77v1.45l-.73-.52a5.07,5.07,0,0,0-.93-.49,3.56,3.56,0,0,0-1.29-.21,3.89,3.89,0,0,0-2,.5,3.58,3.58,0,0,0-1.36,1.37,4.11,4.11,0,0,0,0,3.93,3.65,3.65,0,0,0,1.36,1.37,3.79,3.79,0,0,0,2,.51,3.86,3.86,0,0,0,1.2-.16,2.41,2.41,0,0,0,.72-.35l.43-.33V365.4h-2.9Z" transform="translate(-259.14 -122.38)"/><path class="cls-6" d="M823.41,362.26v1.47a3.83,3.83,0,0,1,1-1.18,2.08,2.08,0,0,1,1.23-.44,1.87,1.87,0,0,1,.76.15v1.39a1.89,1.89,0,0,0-.94-.28,1.54,1.54,0,0,0-1.21.53,7,7,0,0,0-.87,1.26v4.42h-1.2v-7.32Z" transform="translate(-259.14 -122.38)"/><path class="cls-6" d="M833.67,362.26v4.34a3.21,3.21,0,0,1-.41,1.67,2.75,2.75,0,0,1-1.11,1.08,3.5,3.5,0,0,1-3.17,0,2.81,2.81,0,0,1-1.11-1.08,3.31,3.31,0,0,1-.41-1.67v-4.34h1.25v4.34a1.82,1.82,0,0,0,.56,1.45,1.89,1.89,0,0,0,1.3.51,1.87,1.87,0,0,0,1.29-.51,1.83,1.83,0,0,0,.57-1.45v-4.34Z" transform="translate(-259.14 -122.38)"/><path class="cls-6" d="M836.86,362.26v1.16a3.37,3.37,0,0,1,.6-.59,3.3,3.3,0,0,1,.83-.51,2.24,2.24,0,0,1,1-.21,2.85,2.85,0,0,1,1.36.33,2.42,2.42,0,0,1,1,1,3.48,3.48,0,0,1,.37,1.68v4.46h-1.21v-4.35a2.22,2.22,0,0,0-.42-1.45,1.57,1.57,0,0,0-1.28-.49,1.9,1.9,0,0,0-1.16.43,5.09,5.09,0,0,0-1,1v4.86h-1.2v-7.32Z" transform="translate(-259.14 -122.38)"/><path class="cls-6" d="M850.55,359v10.54h-1.2v-1.24a3.78,3.78,0,0,1-1,1,2.6,2.6,0,0,1-1.48.43,3.2,3.2,0,0,1-1.72-.47,3.44,3.44,0,0,1-1.23-1.33,4,4,0,0,1-.47-2,4.39,4.39,0,0,1,.47-2.09,3.32,3.32,0,0,1,1.26-1.36,3.46,3.46,0,0,1,1.8-.48,3,3,0,0,1,1.29.31,3.49,3.49,0,0,1,1.12.82V359Zm-3.39,4.28a2.35,2.35,0,0,0-1.34.38,2.63,2.63,0,0,0-.86,1,3.08,3.08,0,0,0,0,2.63,2.36,2.36,0,0,0,.83.94,2.17,2.17,0,0,0,1.24.35,2.06,2.06,0,0,0,1.2-.35,2.39,2.39,0,0,0,.83-1,2.94,2.94,0,0,0,.3-1.4l0-1.41a3.76,3.76,0,0,0-1-.88A2.38,2.38,0,0,0,847.16,363.32Z" transform="translate(-259.14 -122.38)"/><path class="cls-6" d="M853.94,359v10.54h-1.2V359Z" transform="translate(-259.14 -122.38)"/><path class="cls-6" d="M858.05,362.26v7.32h-1.2v-6.19h-1.16v-1.13Zm-.75-3.51a.94.94,0,0,1,.71.3,1,1,0,0,1,.29.69,1,1,0,0,1-.29.69,1,1,0,0,1-1.42,0,1,1,0,0,1-.29-.69,1,1,0,0,1,.29-.69A.94.94,0,0,1,857.3,358.75Z" transform="translate(-259.14 -122.38)"/><path class="cls-6" d="M861.56,362.26v1.16a3.37,3.37,0,0,1,.6-.59,3.3,3.3,0,0,1,.83-.51,2.24,2.24,0,0,1,1-.21,2.85,2.85,0,0,1,1.36.33,2.48,2.48,0,0,1,1,1,3.48,3.48,0,0,1,.37,1.68v4.46h-1.21v-4.35a2.22,2.22,0,0,0-.42-1.45,1.57,1.57,0,0,0-1.28-.49,1.9,1.9,0,0,0-1.16.43,5.09,5.09,0,0,0-1,1v4.86h-1.2v-7.32Z" transform="translate(-259.14 -122.38)"/><path class="cls-6" d="M870.54,362.26v7.32h-1.2v-6.19h-1.15v-1.13Zm-.74-3.51a.94.94,0,0,1,.71.3,1,1,0,0,1,.28.69,1,1,0,0,1-.28.69,1,1,0,0,1-.71.31.94.94,0,0,1-.71-.31,1,1,0,0,1-.29-.69,1,1,0,0,1,.29-.69A.93.93,0,0,1,869.8,358.75Z" transform="translate(-259.14 -122.38)"/><path class="cls-6" d="M875.87,362.11a3.52,3.52,0,0,1,1.88.47,3,3,0,0,1,1.12,1.28,4.37,4.37,0,0,1,.37,1.81v.72h-5.63a2.69,2.69,0,0,0,.43,1.13,2.45,2.45,0,0,0,.88.81,2.5,2.5,0,0,0,1.24.3,2.86,2.86,0,0,0,1.48-.4,5.15,5.15,0,0,0,1.16-.89v1.31a3.08,3.08,0,0,1-.61.52,4,4,0,0,1-.93.45,3.28,3.28,0,0,1-1.09.18,3.69,3.69,0,0,1-2-.52,3.82,3.82,0,0,1-1.85-3.31,4.12,4.12,0,0,1,.45-1.92,3.66,3.66,0,0,1,1.26-1.41A3.24,3.24,0,0,1,875.87,362.11Zm0,1.18a2,2,0,0,0-1.49.6,2.78,2.78,0,0,0-.74,1.48h4.41a2.43,2.43,0,0,0-.4-1.18,2.26,2.26,0,0,0-.8-.68A2.23,2.23,0,0,0,875.87,363.29Z" transform="translate(-259.14 -122.38)"/><path class="cls-6" d="M885.17,359.26l-3.9,13.25h-1l3.85-13.25Z" transform="translate(-259.14 -122.38)"/><path class="cls-6" d="M890.52,359.54a4.54,4.54,0,0,1,1.88.36,2.9,2.9,0,0,1,1.24,1,2.39,2.39,0,0,1,.44,1.42,2.26,2.26,0,0,1-.41,1.31,2.59,2.59,0,0,1-1,.89,2.6,2.6,0,0,1,.87.36,2.24,2.24,0,0,1,1,2,2.52,2.52,0,0,1-.46,1.48,3.2,3.2,0,0,1-1.35,1,5,5,0,0,1-2.05.39,18,18,0,0,1-1.9-.11c-.66-.07-1.22-.16-1.68-.25V359.9c.51-.11,1.06-.2,1.66-.27S889.92,359.54,890.52,359.54Zm-.09,1.24c-.41,0-.78,0-1.1.05a7,7,0,0,0-1,.13V364h2.3a2.14,2.14,0,0,0,1.52-.5,1.56,1.56,0,0,0,.53-1.18,1.24,1.24,0,0,0-.32-.87,2,2,0,0,0-.84-.52A3.49,3.49,0,0,0,890.43,360.78Zm-2,7.53a7.82,7.82,0,0,0,1.17.14c.43,0,.78,0,1.06,0a3.39,3.39,0,0,0,1.82-.46,1.39,1.39,0,0,0,.73-1.21,1.31,1.31,0,0,0-.71-1.21,3.5,3.5,0,0,0-1.74-.4h-2.33Z" transform="translate(-259.14 -122.38)"/><path class="cls-6" d="M899.46,362.11a2.9,2.9,0,0,1,1.28.31,3.42,3.42,0,0,1,1.13.82v-1h1.2v7.32h-1.2v-1.24a3.78,3.78,0,0,1-1,1,2.6,2.6,0,0,1-1.48.43,3.2,3.2,0,0,1-1.72-.47,3.46,3.46,0,0,1-1.24-1.33,4.11,4.11,0,0,1-.46-2,4.51,4.51,0,0,1,.46-2.09,3.34,3.34,0,0,1,1.27-1.36A3.46,3.46,0,0,1,899.46,362.11Zm.22,1.18a2.33,2.33,0,0,0-1.35.39,2.71,2.71,0,0,0-.85,1,3.06,3.06,0,0,0-.3,1.34,3,3,0,0,0,.29,1.3,2.36,2.36,0,0,0,.83.94,2.15,2.15,0,0,0,1.24.35,2.06,2.06,0,0,0,1.2-.35,2.39,2.39,0,0,0,.83-1,2.94,2.94,0,0,0,.3-1.4l0-1.41a3.81,3.81,0,0,0-1-.89A2.2,2.2,0,0,0,899.68,363.29Z" transform="translate(-259.14 -122.38)"/><path class="cls-6" d="M907.44,362.11a3.87,3.87,0,0,1,1.2.19,2.82,2.82,0,0,1,.81.37V364a3.6,3.6,0,0,0-.84-.45,2.71,2.71,0,0,0-1.08-.22,1.46,1.46,0,0,0-1,.32.91.91,0,0,0-.34.67,1,1,0,0,0,.2.57,1.37,1.37,0,0,0,.69.46l1.23.44a2.13,2.13,0,0,1,1.07.71,1.76,1.76,0,0,1,.35,1.1,2,2,0,0,1-.34,1.13,2.44,2.44,0,0,1-1,.81,3.13,3.13,0,0,1-1.4.3,3.55,3.55,0,0,1-.89-.11,5.28,5.28,0,0,1-.82-.26,3.11,3.11,0,0,1-.55-.27v-1.29a4,4,0,0,0,.58.33,5.11,5.11,0,0,0,.8.31,2.92,2.92,0,0,0,.79.12,1.78,1.78,0,0,0,1.09-.3.94.94,0,0,0,.41-.77.66.66,0,0,0-.28-.55,3.1,3.1,0,0,0-.78-.4l-1.08-.39a2.07,2.07,0,0,1-1.13-.82,2.17,2.17,0,0,1-.28-1.12,2,2,0,0,1,.7-1.55A2.77,2.77,0,0,1,907.44,362.11Z" transform="translate(-259.14 -122.38)"/><path class="cls-6" d="M914.26,362.11a3.48,3.48,0,0,1,1.87.47,3,3,0,0,1,1.12,1.28,4.22,4.22,0,0,1,.38,1.81v.72H912a2.69,2.69,0,0,0,.43,1.13,2.37,2.37,0,0,0,.88.81,2.5,2.5,0,0,0,1.24.3,2.86,2.86,0,0,0,1.48-.4,5.15,5.15,0,0,0,1.16-.89l0,1.31a3,3,0,0,1-.6.52,4,4,0,0,1-.93.45,3.32,3.32,0,0,1-1.09.18,3.7,3.7,0,0,1-3.33-1.92,3.8,3.8,0,0,1-.49-1.91,4.12,4.12,0,0,1,.45-1.92,3.63,3.63,0,0,1,1.25-1.41A3.27,3.27,0,0,1,914.26,362.11Zm0,1.18a2,2,0,0,0-1.5.6,2.77,2.77,0,0,0-.73,1.48h4.41a2.43,2.43,0,0,0-.4-1.18,2.26,2.26,0,0,0-.8-.68A2.23,2.23,0,0,0,914.26,363.29Z" transform="translate(-259.14 -122.38)"/><path class="cls-6" d="M924.63,359v10.54h-1.2V359Z" transform="translate(-259.14 -122.38)"/><path class="cls-6" d="M928.74,362.26v7.32h-1.2v-6.19h-1.16v-1.13Zm-.75-3.51a.93.93,0,0,1,.71.3,1,1,0,0,1,.29.69,1,1,0,0,1-.29.69.94.94,0,0,1-.71.31,1,1,0,0,1-.71-.31,1,1,0,0,1-.28-.69,1,1,0,0,1,.28-.69A.94.94,0,0,1,928,358.75Z" transform="translate(-259.14 -122.38)"/><path class="cls-6" d="M932.25,362.26v1.16a4.21,4.21,0,0,1,.6-.59,3.3,3.3,0,0,1,.83-.51,2.24,2.24,0,0,1,1-.21,2.85,2.85,0,0,1,1.36.33,2.42,2.42,0,0,1,1,1,3.48,3.48,0,0,1,.37,1.68v4.46h-1.2l0-4.35a2.22,2.22,0,0,0-.42-1.45,1.56,1.56,0,0,0-1.28-.49,1.9,1.9,0,0,0-1.16.43,5.09,5.09,0,0,0-1,1v4.86h-1.2v-7.32Z" transform="translate(-259.14 -122.38)"/><path class="cls-6" d="M942.33,362.11a3.49,3.49,0,0,1,1.88.47,3,3,0,0,1,1.12,1.28,4.21,4.21,0,0,1,.37,1.81v.72h-5.62a2.81,2.81,0,0,0,.42,1.13,2.47,2.47,0,0,0,2.13,1.11,2.89,2.89,0,0,0,1.48-.4,5.08,5.08,0,0,0,1.15-.89v1.31a3.08,3.08,0,0,1-.61.52,4.14,4.14,0,0,1-.92.45,3.32,3.32,0,0,1-1.09.18,3.73,3.73,0,0,1-2-.52,3.8,3.8,0,0,1-1.36-1.4,3.91,3.91,0,0,1-.49-1.91,4.12,4.12,0,0,1,.46-1.92,3.63,3.63,0,0,1,1.25-1.41A3.24,3.24,0,0,1,942.33,362.11Zm0,1.18a2,2,0,0,0-1.49.6,2.77,2.77,0,0,0-.73,1.48h4.41a2.44,2.44,0,0,0-.41-1.18,2.23,2.23,0,0,0-.79-.68A2.27,2.27,0,0,0,942.33,363.29Z" transform="translate(-259.14 -122.38)"/><path class="cls-6" d="M948.51,359.48a6.47,6.47,0,0,1,.88,1.18,10.32,10.32,0,0,1,.76,1.6,11.31,11.31,0,0,1,.53,1.83,8.86,8.86,0,0,1,.2,1.91,9.8,9.8,0,0,1-.34,2.59,11.16,11.16,0,0,1-.89,2.28,7.57,7.57,0,0,1-1.14,1.64h-1.33a6.68,6.68,0,0,0,.84-1.24,11.6,11.6,0,0,0,.71-1.63,12.29,12.29,0,0,0,.48-1.83,9.57,9.57,0,0,0,.18-1.81,9.2,9.2,0,0,0-.18-1.75,13.1,13.1,0,0,0-.48-1.84,11.64,11.64,0,0,0-.71-1.67,6.55,6.55,0,0,0-.84-1.26Z" transform="translate(-259.14 -122.38)"/><path class="cls-7" d="M305.46,136.64v2.2h2v2h-2v2.09a1.46,1.46,0,0,0,.22.86.76.76,0,0,0,.64.31,2.24,2.24,0,0,0,1.19-.32v2a1.86,1.86,0,0,1-.74.57,2.89,2.89,0,0,1-1.24.24,2.68,2.68,0,0,1-1.29-.32,2.54,2.54,0,0,1-.94-.93,2.76,2.76,0,0,1-.36-1.45v-3h-1.26v-1.54a3.36,3.36,0,0,0,1.41-.83,3.63,3.63,0,0,0,1-1.81Z" transform="translate(-259.14 -122.38)"/><path class="cls-7" d="M312.21,138.62a3.65,3.65,0,0,1,1.88.47,3.29,3.29,0,0,1,1.28,1.31,4.08,4.08,0,0,1,.46,2v.86h-5.08a1.34,1.34,0,0,0,.64.81,2.4,2.4,0,0,0,1.12.26,4.12,4.12,0,0,0,1.47-.24,6.26,6.26,0,0,0,.93-.42v2.16a5.4,5.4,0,0,1-1.05.46,4.37,4.37,0,0,1-1.5.24,4.64,4.64,0,0,1-1.53-.26,4.32,4.32,0,0,1-1.33-.77,3.63,3.63,0,0,1-.92-1.2,3.8,3.8,0,0,1-.33-1.61,4.07,4.07,0,0,1,.52-2,4,4,0,0,1,1.42-1.47A3.68,3.68,0,0,1,312.21,138.62Zm-.07,2.08a1.31,1.31,0,0,0-.83.26,1.44,1.44,0,0,0-.52.78h2.66A.86.86,0,0,0,313,141,1.58,1.58,0,0,0,312.14,140.7Z" transform="translate(-259.14 -122.38)"/><path class="cls-7" d="M324.85,138.84l-2.78,3.72,2.93,3.75h-3.11l-1.41-2.11-1.4,2.11H316l2.93-3.75-2.78-3.72H319l1.5,2.12,1.51-2.12Z" transform="translate(-259.14 -122.38)"/><path class="cls-7" d="M329,136.64v2.2h2v2h-2v2.09a1.46,1.46,0,0,0,.23.86.73.73,0,0,0,.63.31,2.24,2.24,0,0,0,1.19-.32v2a1.86,1.86,0,0,1-.74.57,2.89,2.89,0,0,1-1.24.24,2.68,2.68,0,0,1-1.29-.32,2.54,2.54,0,0,1-.94-.93,2.76,2.76,0,0,1-.36-1.45v-3h-1.26v-1.54a3.36,3.36,0,0,0,1.41-.83,3.63,3.63,0,0,0,1-1.81Z" transform="translate(-259.14 -122.38)"/><path class="cls-7" d="M336.71,141.36v2.2H332.3v-2.2Z" transform="translate(-259.14 -122.38)"/><path class="cls-7" d="M341.66,136.64v2.2h2v2h-2v2.09a1.46,1.46,0,0,0,.22.86.76.76,0,0,0,.64.31,2.24,2.24,0,0,0,1.19-.32v2a1.94,1.94,0,0,1-.74.57,2.89,2.89,0,0,1-1.24.24,2.68,2.68,0,0,1-1.29-.32,2.54,2.54,0,0,1-.94-.93,2.76,2.76,0,0,1-.36-1.45v-3h-1.26v-1.54a3.36,3.36,0,0,0,1.41-.83,3.78,3.78,0,0,0,1-1.81Z" transform="translate(-259.14 -122.38)"/><path class="cls-7" d="M348.55,138.62a4.08,4.08,0,0,1,1.5.29,4.5,4.5,0,0,1,1.32.82,4,4,0,0,1,.93,1.25,3.7,3.7,0,0,1,.35,1.59,3.63,3.63,0,0,1-.35,1.59,4,4,0,0,1-.93,1.26,4.5,4.5,0,0,1-1.32.82,4.08,4.08,0,0,1-1.5.29,4.14,4.14,0,0,1-1.51-.29,4.5,4.5,0,0,1-1.32-.82,4,4,0,0,1-.93-1.26,3.63,3.63,0,0,1-.35-1.59,3.7,3.7,0,0,1,.35-1.59,4,4,0,0,1,.93-1.25,4.5,4.5,0,0,1,1.32-.82A4.14,4.14,0,0,1,348.55,138.62Zm0,2.42a1.74,1.74,0,0,0-.6.11,1.15,1.15,0,0,0-.56.45,1.63,1.63,0,0,0-.24,1,1.65,1.65,0,0,0,.24,1,1,1,0,0,0,.56.45,1.56,1.56,0,0,0,1.2,0,1.07,1.07,0,0,0,.55-.45,1.65,1.65,0,0,0,.24-1,1.63,1.63,0,0,0-.24-1,1.18,1.18,0,0,0-.55-.45A1.74,1.74,0,0,0,348.55,141Z" transform="translate(-259.14 -122.38)"/><path class="cls-7" d="M358.63,138.62a3.17,3.17,0,0,1,1.58.42,3.11,3.11,0,0,1,1.19,1.31,4.88,4.88,0,0,1,.45,2.24,4.54,4.54,0,0,1-.46,2.14,3.4,3.4,0,0,1-1.23,1.34,3.17,3.17,0,0,1-1.68.46,2.79,2.79,0,0,1-1.15-.26,3,3,0,0,1-.93-.65v4.2h-2.51v-11h2.51v1.24a2.74,2.74,0,0,1,.85-1A2.28,2.28,0,0,1,358.63,138.62Zm-.75,2.55a1.4,1.4,0,0,0-.65.17,1.48,1.48,0,0,0-.58.51,1.5,1.5,0,0,0-.25.88v.72a3.71,3.71,0,0,0,.74.44,2,2,0,0,0,.82.18,1.11,1.11,0,0,0,.91-.45,1.64,1.64,0,0,0,.35-1,1.43,1.43,0,0,0-.37-1A1.21,1.21,0,0,0,357.88,141.17Z" transform="translate(-259.14 -122.38)"/><path class="cls-7" d="M364.07,144.67l2.08.41-1.61,3.47-1.78-.23Zm1-6.58a1.32,1.32,0,0,1,.94,2.25,1.32,1.32,0,0,1-1.87,0,1.32,1.32,0,0,1,.93-2.25Z" transform="translate(-259.14 -122.38)"/><rect class="cls-8" x="28.85" y="1" width="92.63" height="36.02"/><path class="cls-7" d="M277.61,386.23v2.2h2v2h-2v2.1a1.46,1.46,0,0,0,.22.86.74.74,0,0,0,.64.31,2.33,2.33,0,0,0,1.19-.32v2a2,2,0,0,1-.74.57,2.89,2.89,0,0,1-1.24.24,2.68,2.68,0,0,1-1.29-.32,2.54,2.54,0,0,1-.94-.93,2.76,2.76,0,0,1-.36-1.45v-3h-1.26v-1.53a3.47,3.47,0,0,0,1.41-.83,3.83,3.83,0,0,0,1-1.81Zm6.74,2a3.65,3.65,0,0,1,1.88.47,3.36,3.36,0,0,1,1.28,1.31,4.08,4.08,0,0,1,.46,2v.86h-5.08a1.3,1.3,0,0,0,.64.81,2.37,2.37,0,0,0,1.12.26,4.12,4.12,0,0,0,1.47-.24,7.42,7.42,0,0,0,.93-.42v2.15a5.29,5.29,0,0,1-1.05.47,4.63,4.63,0,0,1-3,0,4.08,4.08,0,0,1-1.33-.76,3.45,3.45,0,0,1-.92-1.21,3.58,3.58,0,0,1-.34-1.6,4.08,4.08,0,0,1,1.94-3.52A3.79,3.79,0,0,1,284.35,388.21Zm-.07,2.08a1.41,1.41,0,0,0-.84.25,1.52,1.52,0,0,0-.51.79h2.65a.87.87,0,0,0-.4-.79A1.65,1.65,0,0,0,284.28,390.29Zm12.7-1.86-2.78,3.72,2.93,3.75H294l-1.41-2.11-1.4,2.11H288.1l2.93-3.75-2.78-3.72h2.86l1.5,2.12,1.51-2.12Zm4.14-2.2v2.2h2v2h-2v2.1a1.46,1.46,0,0,0,.22.86.76.76,0,0,0,.64.31,2.33,2.33,0,0,0,1.19-.32v2a2,2,0,0,1-.74.57,2.89,2.89,0,0,1-1.24.24,2.68,2.68,0,0,1-1.29-.32,2.54,2.54,0,0,1-.94-.93,2.76,2.76,0,0,1-.36-1.45v-3h-1.26v-1.53a3.47,3.47,0,0,0,1.41-.83,3.75,3.75,0,0,0,1-1.81Zm7.7,4.72v2.19h-4.41V391Zm6.2-2.74a3.17,3.17,0,0,1,1.68.46,3.34,3.34,0,0,1,1.23,1.34,4.54,4.54,0,0,1,.46,2.14,4.89,4.89,0,0,1-.45,2.23,3.07,3.07,0,0,1-1.2,1.31,3,3,0,0,1-1.57.43,2.2,2.2,0,0,1-1.38-.43,2.66,2.66,0,0,1-.85-1v1.25h-2.52V385.35h2.52v3.77a2.9,2.9,0,0,1,.93-.66A2.77,2.77,0,0,1,315,388.21Zm-.53,2.46a2.14,2.14,0,0,0-.81.17,3.91,3.91,0,0,0-.74.44V392a1.53,1.53,0,0,0,.24.89,1.51,1.51,0,0,0,.59.51,1.54,1.54,0,0,0,.65.17,1.26,1.26,0,0,0,1-.41,1.47,1.47,0,0,0,.36-1,1.58,1.58,0,0,0-.35-1A1.08,1.08,0,0,0,314.49,390.67Zm8.73-2.46a4.14,4.14,0,0,1,1.51.29,4.5,4.5,0,0,1,1.32.82,4,4,0,0,1,.93,1.25,3.69,3.69,0,0,1,.34,1.59,3.63,3.63,0,0,1-.34,1.59,3.86,3.86,0,0,1-.93,1.25,4.12,4.12,0,0,1-1.32.82,4,4,0,0,1-3,0,4.12,4.12,0,0,1-1.32-.82,3.86,3.86,0,0,1-.93-1.25,3.63,3.63,0,0,1-.34-1.59,3.69,3.69,0,0,1,.34-1.59,4,4,0,0,1,.93-1.25,4.5,4.5,0,0,1,1.32-.82A4.14,4.14,0,0,1,323.22,388.21Zm0,2.41a1.77,1.77,0,0,0-.59.12,1.22,1.22,0,0,0-.57.45,1.71,1.71,0,0,0-.23,1,1.76,1.76,0,0,0,.23,1,1.16,1.16,0,0,0,.57.45,1.77,1.77,0,0,0,.59.12,1.69,1.69,0,0,0,.6-.12,1.14,1.14,0,0,0,.56-.45,1.76,1.76,0,0,0,.23-1,1.71,1.71,0,0,0-.23-1,1.2,1.2,0,0,0-.56-.45A1.69,1.69,0,0,0,323.22,390.62Zm8.68-4.39v2.2H334a2.5,2.5,0,0,0,1.12-.22,1.67,1.67,0,0,0,.68-.71,6.37,6.37,0,0,0,.49-1.27h1.34v2.2h2v2h-2v2.1a1.46,1.46,0,0,0,.23.86.73.73,0,0,0,.64.31,2.3,2.3,0,0,0,1.18-.32v2a1.92,1.92,0,0,1-.73.57,2.89,2.89,0,0,1-1.24.24,2.67,2.67,0,0,1-1.28-.32,2.52,2.52,0,0,1-1-.93,2.76,2.76,0,0,1-.36-1.45v-3H331.9v2.1a1.46,1.46,0,0,0,.22.86.76.76,0,0,0,.64.31,2.33,2.33,0,0,0,1.19-.32v2a2,2,0,0,1-.74.57,2.89,2.89,0,0,1-1.24.24,2.68,2.68,0,0,1-1.29-.32,2.54,2.54,0,0,1-.94-.93,2.76,2.76,0,0,1-.36-1.45v-3h-1.26v-1.53a3.47,3.47,0,0,0,1.41-.83,3.75,3.75,0,0,0,1-1.81Zm12.63,2a4.14,4.14,0,0,1,1.51.29,4.5,4.5,0,0,1,1.32.82,4,4,0,0,1,.93,1.25,3.69,3.69,0,0,1,.34,1.59,3.63,3.63,0,0,1-.34,1.59,3.86,3.86,0,0,1-.93,1.25,4.12,4.12,0,0,1-1.32.82,4,4,0,0,1-3,0,4.23,4.23,0,0,1-1.32-.82,3.86,3.86,0,0,1-.93-1.25,3.63,3.63,0,0,1-.34-1.59,3.69,3.69,0,0,1,.34-1.59,4,4,0,0,1,.93-1.25,4.63,4.63,0,0,1,1.32-.82A4.14,4.14,0,0,1,344.53,388.21Zm0,2.41a1.77,1.77,0,0,0-.59.12,1.22,1.22,0,0,0-.57.45,1.71,1.71,0,0,0-.23,1,1.76,1.76,0,0,0,.23,1,1.16,1.16,0,0,0,.57.45,1.77,1.77,0,0,0,.59.12,1.69,1.69,0,0,0,.6-.12,1.14,1.14,0,0,0,.56-.45,1.68,1.68,0,0,0,.23-1,1.64,1.64,0,0,0-.23-1,1.2,1.2,0,0,0-.56-.45A1.69,1.69,0,0,0,344.53,390.62Zm7.86-2.19v1a5,5,0,0,1,.74-.83,1.67,1.67,0,0,1,1.15-.35,2.56,2.56,0,0,1,1.33.34,2.35,2.35,0,0,1,.92,1,3.08,3.08,0,0,1,.93-1,2.29,2.29,0,0,1,1.3-.39,2.48,2.48,0,0,1,1.87.77,3.29,3.29,0,0,1,.72,2.3v4.62h-2.52v-4.22a.94.94,0,0,0-.29-.78,1,1,0,0,0-.66-.23.89.89,0,0,0-.58.2,2.67,2.67,0,0,0-.42.47v4.56h-2.52v-4.22a.94.94,0,0,0-.29-.78,1,1,0,0,0-.67-.23.79.79,0,0,0-.56.21,2.75,2.75,0,0,0-.43.51v4.51h-2.52v-7.47Zm11.6,5.83,2.08.41-1.61,3.47-1.79-.24Zm1-6.58a1.3,1.3,0,0,1,.93.38,1.32,1.32,0,1,1-1.86,0A1.3,1.3,0,0,1,365,387.68Z" transform="translate(-259.14 -122.38)"/><rect class="cls-8" x="1" y="250.6" width="120.47" height="36.02"/><path class="cls-7" d="M825.68,306.8a3.17,3.17,0,0,1,1.68.46,3.4,3.4,0,0,1,1.23,1.34,4.54,4.54,0,0,1,.46,2.14,5,5,0,0,1-.45,2.24,3.11,3.11,0,0,1-1.19,1.31,3.17,3.17,0,0,1-1.58.42,2.26,2.26,0,0,1-1.38-.42,2.74,2.74,0,0,1-.85-1v1.24h-2.52V303.94h2.52v3.77a3,3,0,0,1,.93-.65A2.79,2.79,0,0,1,825.68,306.8Zm-.52,2.46a2,2,0,0,0-.82.18,3.29,3.29,0,0,0-.74.44v.71a1.44,1.44,0,0,0,.25.89,1.48,1.48,0,0,0,.58.51,1.4,1.4,0,0,0,.65.17,1.21,1.21,0,0,0,1-.41,1.48,1.48,0,0,0,.37-1,1.63,1.63,0,0,0-.35-1A1.13,1.13,0,0,0,825.16,309.26Z" transform="translate(-259.14 -122.38)"/><path class="cls-7" d="M833.16,306.8a2.75,2.75,0,0,1,1.15.26,2.81,2.81,0,0,1,.93.65V307h2.52v7.47h-2.52v-1.24a2.65,2.65,0,0,1-.85,1,2.25,2.25,0,0,1-1.37.42,3.11,3.11,0,0,1-1.57-.42,3.19,3.19,0,0,1-1.2-1.31,5,5,0,0,1-.46-2.24,4.67,4.67,0,0,1,.46-2.14,3.35,3.35,0,0,1,1.24-1.34A3.16,3.16,0,0,1,833.16,306.8Zm.53,2.46a1.13,1.13,0,0,0-.9.44,1.59,1.59,0,0,0-.36,1,1.43,1.43,0,0,0,.37,1,1.19,1.19,0,0,0,1,.41,1.35,1.35,0,0,0,.66-.17,1.48,1.48,0,0,0,.58-.51,1.51,1.51,0,0,0,.24-.89v-.71a2.62,2.62,0,0,0-.72-.44A2,2,0,0,0,833.69,309.26Z" transform="translate(-259.14 -122.38)"/><path class="cls-7" d="M842.14,306.8a4.2,4.2,0,0,1,1.35.21,2.75,2.75,0,0,1,1,.58v2a6.26,6.26,0,0,0-.86-.45,2.58,2.58,0,0,0-1-.21,1.38,1.38,0,0,0-.62.14.46.46,0,0,0-.27.43.34.34,0,0,0,.16.31,2.23,2.23,0,0,0,.63.22l.45.12c1.3.33,1.95,1,1.95,2.09a2.07,2.07,0,0,1-.43,1.3,3,3,0,0,1-1.13.88,3.57,3.57,0,0,1-1.5.31,4.8,4.8,0,0,1-1.55-.24,5.29,5.29,0,0,1-1.24-.59v-2a5.76,5.76,0,0,0,1.2.55,4,4,0,0,0,1.19.21,1.44,1.44,0,0,0,.63-.1.37.37,0,0,0,.19-.36.35.35,0,0,0-.23-.32c-.16-.07-.38-.16-.68-.26l-.74-.23a2.22,2.22,0,0,1-1.2-.78,2.18,2.18,0,0,1-.38-1.31,2.16,2.16,0,0,1,.41-1.34,2.58,2.58,0,0,1,1.12-.86A3.86,3.86,0,0,1,842.14,306.8Z" transform="translate(-259.14 -122.38)"/><path class="cls-7" d="M849.37,306.8a3.74,3.74,0,0,1,1.87.47,3.29,3.29,0,0,1,1.28,1.31,4.08,4.08,0,0,1,.46,2v.86H847.9a1.31,1.31,0,0,0,.64.81,2.29,2.29,0,0,0,1.12.26,4.12,4.12,0,0,0,1.47-.24,6.79,6.79,0,0,0,.93-.42V314a6,6,0,0,1-1,.47,4.81,4.81,0,0,1-3,0,4.33,4.33,0,0,1-1.32-.76,3.67,3.67,0,0,1-.93-1.21,3.8,3.8,0,0,1-.33-1.61,4,4,0,0,1,.52-2,4,4,0,0,1,1.42-1.48A3.78,3.78,0,0,1,849.37,306.8Zm-.08,2.08a1.37,1.37,0,0,0-.83.26,1.44,1.44,0,0,0-.52.78h2.66a.86.86,0,0,0-.41-.78A1.66,1.66,0,0,0,849.29,308.88Z" transform="translate(-259.14 -122.38)"/><path class="cls-7" d="M856.59,303.94v10.55h-2.51V303.94Z" transform="translate(-259.14 -122.38)"/><path class="cls-7" d="M861.73,307v7.47h-2.52v-5.42H858V307Zm-1.42-4.19a1.52,1.52,0,0,1,.78.21,1.67,1.67,0,0,1,.58.54,1.46,1.46,0,0,1,0,1.54,1.61,1.61,0,0,1-.58.55,1.56,1.56,0,0,1-1.88-.24,1.45,1.45,0,0,1-.47-1.08,1.42,1.42,0,0,1,.47-1.08A1.57,1.57,0,0,1,860.31,302.83Z" transform="translate(-259.14 -122.38)"/><path class="cls-7" d="M866,307v1a3.81,3.81,0,0,1,.86-.84,2.19,2.19,0,0,1,1.25-.35,2.42,2.42,0,0,1,1.87.78,3.25,3.25,0,0,1,.73,2.3v4.61H868.2l0-4.22a.91.91,0,0,0-.3-.78,1.17,1.17,0,0,0-.69-.23,1.09,1.09,0,0,0-.69.21,2.37,2.37,0,0,0-.49.51v4.51H863.5V307Z" transform="translate(-259.14 -122.38)"/><path class="cls-7" d="M875.85,306.8a3.77,3.77,0,0,1,1.88.47,3.36,3.36,0,0,1,1.28,1.31,4.08,4.08,0,0,1,.46,2v.86h-5.08a1.28,1.28,0,0,0,.64.81,2.22,2.22,0,0,0,1.11.26,4.14,4.14,0,0,0,1.48-.24,7.42,7.42,0,0,0,.93-.42V314a6.78,6.78,0,0,1-1,.47,4.72,4.72,0,0,1-1.5.23,4.64,4.64,0,0,1-1.53-.26,4.27,4.27,0,0,1-1.33-.76,3.61,3.61,0,0,1-1.26-2.82,4.08,4.08,0,0,1,1.94-3.51A3.8,3.8,0,0,1,875.85,306.8Zm-.07,2.08a1.42,1.42,0,0,0-.84.26,1.49,1.49,0,0,0-.51.78h2.65a.85.85,0,0,0-.4-.78A1.66,1.66,0,0,0,875.78,308.88Z" transform="translate(-259.14 -122.38)"/><path class="cls-7" d="M881.53,312.85l2.08.41L882,316.73l-1.79-.23Zm1-6.58a1.3,1.3,0,0,1,.93.38,1.32,1.32,0,1,1-1.86,0A1.3,1.3,0,0,1,882.54,306.27Z" transform="translate(-259.14 -122.38)"/><rect class="cls-8" x="547.82" y="169.19" width="91.13" height="36.02"/></svg>