<svg id="Ebene_3" data-name="Ebene 3" xmlns="http://www.w3.org/2000/svg" viewBox="0 0 1187.17 468.84"><defs><style>.cls-1{fill:#50e0ff;}</style></defs><path class="cls-1" d="M692.78,131.52v41.4h37.5v-41.4H759.5V236.21H730.28v-37.5h-37.5v37.5H663.56V131.52Z" transform="translate(-58.26 -49.71)"/><path class="cls-1" d="M838.25,130l48.44,106.25H852.62l-5.15-14.07H814.34l-5.15,14.07H775.12L823.56,130Zm-7.34,47.18-8,21.57h15.94Z" transform="translate(-58.26 -49.71)"/><path class="cls-1" d="M981.06,131.52,932.62,237.77H917.94L869.5,131.52h34.06L925.28,189,947,131.52Z" transform="translate(-58.26 -49.71)"/><path class="cls-1" d="M1067.47,172.3v21.87h-41.56v17h47v25H996.69V131.52h76.25v24.22h-47V172.3Z" transform="translate(-58.26 -49.71)"/><path class="cls-1" d="M1197,130l48.44,106.25h-34.06l-5.16-14.07h-33.13l-5.15,14.07h-34.06L1182.31,130Zm-7.34,47.18-8,21.57h15.93Z" transform="translate(-58.26 -49.71)"/><path class="cls-1" d="M648.41,270V376.21H619.19V324.64l-21.41,24.22H589l-21.41-24.22v51.57H538.41V270h10.31l44.69,45.31L638.09,270Z" transform="translate(-58.26 -49.71)"/><path class="cls-1" d="M723.09,269.17a57.39,57.39,0,0,1,20.39,3.68,53.11,53.11,0,0,1,17.43,10.7A50.68,50.68,0,0,1,773,300.74,62.31,62.31,0,0,1,773,347a50.54,50.54,0,0,1-12.11,17.18,53.31,53.31,0,0,1-17.43,10.71,58.48,58.48,0,0,1-40.78,0,53.16,53.16,0,0,1-17.42-10.71A50.54,50.54,0,0,1,673.17,347a62.31,62.31,0,0,1,0-46.25,50.68,50.68,0,0,1,12.11-17.19,53,53,0,0,1,17.42-10.7A57.43,57.43,0,0,1,723.09,269.17Zm0,27.35a22.32,22.32,0,0,0-12.5,3.59,25.54,25.54,0,0,0-8.67,9.77,32.16,32.16,0,0,0,0,28,25.51,25.51,0,0,0,8.67,9.76,22.24,22.24,0,0,0,12.5,3.6,22.6,22.6,0,0,0,12.58-3.6,24.58,24.58,0,0,0,8.67-9.76,32.81,32.81,0,0,0,0-28,24.61,24.61,0,0,0-8.67-9.77A22.67,22.67,0,0,0,723.09,296.52Z" transform="translate(-58.26 -49.71)"/><path class="cls-1" d="M907.78,270V376.21H878.56V324.64l-21.4,24.22h-8.75L827,324.64v51.57H797.78V270h10.31l44.69,45.31L897.47,270Z" transform="translate(-58.26 -49.71)"/><path class="cls-1" d="M1006.69,312.3v21.87H965.12v17h47v25H935.91V271.52h76.25v24.22h-47V312.3Z" transform="translate(-58.26 -49.71)"/><path class="cls-1" d="M1134.34,271.52V377.77H1124l-56.09-53v51.41h-29.22V270H1049l56.09,53.9V271.52Z" transform="translate(-58.26 -49.71)"/><path class="cls-1" d="M1243.09,271.52V297.3h-30.78v78.44h-29.22V297.3h-30.78V271.52Z" transform="translate(-58.26 -49.71)"/><path class="cls-1" d="M724.19,409.17a57.43,57.43,0,0,1,20.39,3.68A53.07,53.07,0,0,1,762,423.55a50.68,50.68,0,0,1,12.11,17.19,62.31,62.31,0,0,1,0,46.25A50.54,50.54,0,0,1,762,504.17a53.26,53.26,0,0,1-17.42,10.71,58.48,58.48,0,0,1-40.78,0,53.16,53.16,0,0,1-17.42-10.71A50.27,50.27,0,0,1,674.27,487a62.18,62.18,0,0,1,0-46.25,50.41,50.41,0,0,1,12.11-17.19,53,53,0,0,1,17.42-10.7A57.39,57.39,0,0,1,724.19,409.17Zm0,27.35a22.27,22.27,0,0,0-12.5,3.59,25.38,25.38,0,0,0-8.67,9.77,32.07,32.07,0,0,0,0,28,25.35,25.35,0,0,0,8.67,9.76,22.2,22.2,0,0,0,12.5,3.6,22.6,22.6,0,0,0,12.58-3.6,24.73,24.73,0,0,0,8.67-9.76,32.9,32.9,0,0,0,0-28,24.76,24.76,0,0,0-8.67-9.77A22.67,22.67,0,0,0,724.19,436.52Z" transform="translate(-58.26 -49.71)"/><path class="cls-1" d="M865.28,455.11v25.78H828.09v35.32H798.88V411.52h74.21V437.3h-45v17.81Z" transform="translate(-58.26 -49.71)"/><path class="cls-1" d="M976.69,409.17a74.2,74.2,0,0,1,18.2,2.27,45,45,0,0,1,14.45,6v28.28a132.62,132.62,0,0,0-13.28-6.8,38.07,38.07,0,0,0-15.47-2.89,23.1,23.1,0,0,0-8.9,1.56q-3.75,1.56-3.75,5.16c0,2.6,1.51,4.56,4.53,5.86s6.72,2.79,11.09,4.45l11.25,4.22q11.41,4.38,16.17,11.87a27.76,27.76,0,0,1,4.77,15,28.88,28.88,0,0,1-5.78,17.74,39.28,39.28,0,0,1-15.63,12.19,53,53,0,0,1-22,4.45,55,55,0,0,1-18.59-3.28,66.67,66.67,0,0,1-16.1-8.13V478.86a74,74,0,0,0,16.18,9.22,45.06,45.06,0,0,0,17.42,3.59,24.6,24.6,0,0,0,8.83-1.32,4.7,4.7,0,0,0,3.36-4.61,4.93,4.93,0,0,0-2.5-4.07,24.11,24.11,0,0,0-6.72-3L959.34,474q-8.75-2.82-13.59-7.66A26.34,26.34,0,0,1,939,455.5a41,41,0,0,1-1.87-12.26q0-11.1,5.62-18.68a35.39,35.39,0,0,1,14.69-11.48A48.11,48.11,0,0,1,976.69,409.17Z" transform="translate(-58.26 -49.71)"/><path class="cls-1" d="M1105.28,452.3v21.87h-41.56v17h47v25H1034.5V411.52h76.25v24.22h-47V452.3Z" transform="translate(-58.26 -49.71)"/><path class="cls-1" d="M1232.94,411.52V517.77h-10.32l-56.09-53v51.41h-29.22V410h10.31l56.1,53.9V411.52Z" transform="translate(-58.26 -49.71)"/><path d="M80.92,53.61a23.79,23.79,0,0,1,9.52,1.66A45.71,45.71,0,0,1,97,58.79v9.08A36.7,36.7,0,0,0,90.39,64a20,20,0,0,0-14.6-.78,12.52,12.52,0,0,0-5.32,3.27,8,8,0,0,0-2.15,5.76,6.89,6.89,0,0,0,2.83,6A41.34,41.34,0,0,0,78,82.13l9,4.1A30.78,30.78,0,0,1,97.13,93q3.42,3.7,3.42,9.86a15,15,0,0,1-3.13,9.42,21.45,21.45,0,0,1-8.2,6.4A26.3,26.3,0,0,1,78.09,121,27.42,27.42,0,0,1,67.64,119a43.23,43.23,0,0,1-8.3-4.39v-9.09a49,49,0,0,0,8.74,4.74,28.25,28.25,0,0,0,11.18,2.1A15.25,15.25,0,0,0,87.85,110a7.64,7.64,0,0,0,3.71-6.74A6.21,6.21,0,0,0,90.05,99a14.72,14.72,0,0,0-3.66-3,36.24,36.24,0,0,0-4.2-2.14L71.35,89q-7-3.12-9.57-7.32A18.25,18.25,0,0,1,59.24,72a15.6,15.6,0,0,1,3-9.33,21,21,0,0,1,8-6.59A24.17,24.17,0,0,1,80.92,53.61Z" transform="translate(-58.26 -49.71)"/><path d="M133.85,70.21q7.52,0,12.5,3.13a19.47,19.47,0,0,1,7.47,8.49,28.5,28.5,0,0,1,2.49,12.11v4.79h-37.5a18.2,18.2,0,0,0,2.83,7.52,16.48,16.48,0,0,0,5.86,5.42,16.91,16.91,0,0,0,8.3,2,19.15,19.15,0,0,0,9.87-2.69,36.06,36.06,0,0,0,7.71-5.9l-.1,8.69a18.7,18.7,0,0,1-4.05,3.46,26.7,26.7,0,0,1-6.15,3,21.61,21.61,0,0,1-7.28,1.22A24.81,24.81,0,0,1,122.62,118,25.56,25.56,0,0,1,110.31,95.9a27.45,27.45,0,0,1,3-12.8,24.49,24.49,0,0,1,8.35-9.37A21.52,21.52,0,0,1,133.85,70.21Zm0,7.82a13.23,13.23,0,0,0-10,4A18.11,18.11,0,0,0,119,91.89H148.4a15.8,15.8,0,0,0-2.69-7.81,14.07,14.07,0,0,0-5.32-4.54A14.79,14.79,0,0,0,133.85,78Z" transform="translate(-58.26 -49.71)"/><path d="M177.5,71.19V78.9a26.88,26.88,0,0,1,4-4A24,24,0,0,1,187,71.58a15.64,15.64,0,0,1,6.4-1.37,19,19,0,0,1,9.08,2.2A16,16,0,0,1,209,79.05a23,23,0,0,1,2.45,11.18V120h-8l-.1-29q0-6.35-2.78-9.66c-1.86-2.22-4.71-3.32-8.55-3.32a12.91,12.91,0,0,0-7.76,2.88,34.71,34.71,0,0,0-6.79,6.69V120h-8V71.19Z" transform="translate(-58.26 -49.71)"/><path d="M283.46,54.59a28.58,28.58,0,0,1,10.84,2.1,20.24,20.24,0,0,1,8.54,6.44,17.54,17.54,0,0,1,3.37,11.09,15.58,15.58,0,0,1-3.46,10.25,21.43,21.43,0,0,1-8.79,6.3,29.69,29.69,0,0,1-11,2.1c-1.17,0-2.73-.06-4.69-.2L308.75,120H295.27L267.15,92.67V120h-8.79V54.59Zm-16.31,8.3v21a50.35,50.35,0,0,0,7,1.37,58.35,58.35,0,0,0,7.52.49q7.43,0,11.48-3.12a10.08,10.08,0,0,0,4.05-8.4,9.45,9.45,0,0,0-4.45-8.4A19.17,19.17,0,0,0,282,62.89Z" transform="translate(-58.26 -49.71)"/><path d="M335.22,70.21q7.51,0,12.5,3.13a19.47,19.47,0,0,1,7.47,8.49,28.5,28.5,0,0,1,2.49,12.11v4.79h-37.5a18.2,18.2,0,0,0,2.83,7.52,16.48,16.48,0,0,0,5.86,5.42,16.88,16.88,0,0,0,8.3,2A19.09,19.09,0,0,0,347,111a36.39,36.39,0,0,0,7.72-5.9l-.1,8.69a18.7,18.7,0,0,1-4,3.46,26.78,26.78,0,0,1-6.16,3,21.55,21.55,0,0,1-7.27,1.22A24.81,24.81,0,0,1,324,118,25.5,25.5,0,0,1,311.68,95.9a27.45,27.45,0,0,1,3-12.8,24.49,24.49,0,0,1,8.35-9.37A21.52,21.52,0,0,1,335.22,70.21Zm0,7.82a13.23,13.23,0,0,0-10,4,18.12,18.12,0,0,0-4.89,9.81h29.4a15.8,15.8,0,0,0-2.69-7.81,14.14,14.14,0,0,0-5.32-4.54A14.85,14.85,0,0,0,335.22,78Z" transform="translate(-58.26 -49.71)"/><path d="M391,70.21a20.34,20.34,0,0,1,8.54,2A22.51,22.51,0,0,1,407,77.73V71.19h8V119q0,8.68-3.51,14.45a22.13,22.13,0,0,1-9.38,8.6,29,29,0,0,1-12.79,2.83,24.93,24.93,0,0,1-7.67-1,21.81,21.81,0,0,1-5.42-2.53c-1.5-1-2.86-2-4.1-2.89v-8.59c1,.72,2.26,1.64,3.86,2.78a27.68,27.68,0,0,0,5.76,3.08,20,20,0,0,0,7.57,1.37,21.66,21.66,0,0,0,8.79-1.76,15.29,15.29,0,0,0,6.44-5.18A13.72,13.72,0,0,0,407,122V111.72a24.2,24.2,0,0,1-6.88,6.83,17.27,17.27,0,0,1-9.91,2.93,21.49,21.49,0,0,1-11.43-3.17,23,23,0,0,1-8.25-8.84,27,27,0,0,1-3.08-13.09,29.68,29.68,0,0,1,3.08-14,22.16,22.16,0,0,1,8.45-9A23.11,23.11,0,0,1,391,70.21Zm1.46,7.91a15.34,15.34,0,0,0-9,2.59,17.07,17.07,0,0,0-5.71,6.74,20.25,20.25,0,0,0-2,8.93,18.85,18.85,0,0,0,2,8.6,15.81,15.81,0,0,0,5.51,6.25,14.72,14.72,0,0,0,8.26,2.34,14.1,14.1,0,0,0,8-2.34,16.28,16.28,0,0,0,5.57-6.45A19.48,19.48,0,0,0,407,95.51l-.09-9.38a24.91,24.91,0,0,0-6.5-5.91A15,15,0,0,0,392.44,78.12Z" transform="translate(-58.26 -49.71)"/><path d="M471.54,71.19V100.1a21.76,21.76,0,0,1-2.73,11.13,19,19,0,0,1-7.42,7.23,23.26,23.26,0,0,1-21.1,0,19,19,0,0,1-7.42-7.23,21.76,21.76,0,0,1-2.73-11.13V71.19h8.3V100.1q0,6.34,3.76,9.71a12.76,12.76,0,0,0,17.28,0q3.76-3.36,3.76-9.71V71.19Z" transform="translate(-58.26 -49.71)"/><path d="M494.69,49.71V120h-8V49.71Z" transform="translate(-58.26 -49.71)"/><path d="M531.41,70.21a20.34,20.34,0,0,1,8.54,2,22.51,22.51,0,0,1,7.47,5.52V71.19h8V120h-8v-8.3a24.2,24.2,0,0,1-6.88,6.83,17.27,17.27,0,0,1-9.91,2.93,21.49,21.49,0,0,1-11.43-3.17,23,23,0,0,1-8.25-8.84,27,27,0,0,1-3.08-13.09,29.68,29.68,0,0,1,3.08-14,22.09,22.09,0,0,1,8.45-9A23.11,23.11,0,0,1,531.41,70.21ZM532.87,78a15.08,15.08,0,0,0-9,2.63,17.43,17.43,0,0,0-5.71,6.79,20.25,20.25,0,0,0-2,8.93,19.18,19.18,0,0,0,2,8.65,15.81,15.81,0,0,0,5.51,6.3,14.72,14.72,0,0,0,8.26,2.34,14.1,14.1,0,0,0,8-2.34,16.29,16.29,0,0,0,5.57-6.5,19.76,19.76,0,0,0,1.95-9.32l-.09-9.38a25.89,25.89,0,0,0-6.5-6A14.8,14.8,0,0,0,532.87,78Z" transform="translate(-58.26 -49.71)"/><path d="M580,71.19V81a25.18,25.18,0,0,1,6.84-7.82,13.77,13.77,0,0,1,8.2-2.93,12.65,12.65,0,0,1,5.08,1v9.28a12.16,12.16,0,0,0-6.25-1.86,10.18,10.18,0,0,0-8.06,3.52,48.83,48.83,0,0,0-5.81,8.4V120h-8V71.19Z" transform="translate(-58.26 -49.71)"/><path d="M672.72,54.59V98.14H683v7.42H672.72V120h-8.79V105.56H634v-3.22q5.58-6,11.87-13.28t12.4-16a154.45,154.45,0,0,0,11.18-18.5Zm-8.79,21.48Q660,82.13,656,87.74a118.61,118.61,0,0,1-8.3,10.4h16.21Z" transform="translate(-58.26 -49.71)"/><path d="M712.27,53.12a20.14,20.14,0,0,1,11,2.93,24,24,0,0,1,7.67,7.86,38.85,38.85,0,0,1,4.54,11,51.5,51.5,0,0,1,0,24.76,38.74,38.74,0,0,1-4.54,11,23.84,23.84,0,0,1-7.67,7.86,22,22,0,0,1-21.92,0,23.67,23.67,0,0,1-7.71-7.86,38.76,38.76,0,0,1-4.55-11,51.5,51.5,0,0,1,0-24.76,38.87,38.87,0,0,1,4.55-11,23.86,23.86,0,0,1,7.71-7.86A20.24,20.24,0,0,1,712.27,53.12Zm0,8.6a11.89,11.89,0,0,0-7.08,2.19,17.78,17.78,0,0,0-5.13,5.86A31.24,31.24,0,0,0,696.94,78a40.8,40.8,0,0,0,0,18.65,31.17,31.17,0,0,0,3.12,8.2,17.68,17.68,0,0,0,5.13,5.86,12.49,12.49,0,0,0,14.16,0,17.54,17.54,0,0,0,5.12-5.86,31.54,31.54,0,0,0,3.13-8.2,41.17,41.17,0,0,0,0-18.65,31.61,31.61,0,0,0-3.13-8.21,17.64,17.64,0,0,0-5.12-5.86A11.89,11.89,0,0,0,712.27,61.72Z" transform="translate(-58.26 -49.71)"/><path d="M766,53.12a20.14,20.14,0,0,1,11,2.93,24,24,0,0,1,7.67,7.86,38.85,38.85,0,0,1,4.54,11,51.18,51.18,0,0,1,0,24.76,38.74,38.74,0,0,1-4.54,11,23.84,23.84,0,0,1-7.67,7.86,22,22,0,0,1-21.92,0,23.67,23.67,0,0,1-7.71-7.86,38.46,38.46,0,0,1-4.54-11,51.18,51.18,0,0,1,0-24.76,38.56,38.56,0,0,1,4.54-11A23.86,23.86,0,0,1,755,56.05,20.24,20.24,0,0,1,766,53.12Zm0,8.6a11.89,11.89,0,0,0-7.08,2.19,17.78,17.78,0,0,0-5.13,5.86A31.24,31.24,0,0,0,750.65,78a40.8,40.8,0,0,0,0,18.65,31.17,31.17,0,0,0,3.12,8.2,17.68,17.68,0,0,0,5.13,5.86,12.49,12.49,0,0,0,14.16,0,17.68,17.68,0,0,0,5.13-5.86,31.88,31.88,0,0,0,3.12-8.2,41.17,41.17,0,0,0,0-18.65,32,32,0,0,0-3.12-8.21,17.78,17.78,0,0,0-5.13-5.86A11.89,11.89,0,0,0,766,61.72Z" transform="translate(-58.26 -49.71)"/><path d="M82,161.82a32.69,32.69,0,0,1,10.36,1.56,36.3,36.3,0,0,1,7.91,3.61v13.38a77.22,77.22,0,0,0-7.52-4,21.34,21.34,0,0,0-9.09-1.86,16.75,16.75,0,0,0-5,.78,10.31,10.31,0,0,0-4.1,2.35,5.69,5.69,0,0,0,1.22,8.89,54.9,54.9,0,0,0,6.94,3.32l8,3.32c4.55,2,7.91,4.33,10,7.12a15.33,15.33,0,0,1,3.23,9.58,16.62,16.62,0,0,1-3.37,10.3,22.8,22.8,0,0,1-9,7,29.89,29.89,0,0,1-12.45,2.54,31.52,31.52,0,0,1-11-1.95A38.15,38.15,0,0,1,59,223V209.57a46,46,0,0,0,9.47,5.28,28.53,28.53,0,0,0,11,2.14,14.36,14.36,0,0,0,7-1.61,5.19,5.19,0,0,0,2.93-4.83A4.83,4.83,0,0,0,87,206.4a25.21,25.21,0,0,0-5.22-2.69l-10.06-3.9q-7.62-2.94-10.3-7.67a20.93,20.93,0,0,1-2.69-10.5A17.09,17.09,0,0,1,62,171.24a22.12,22.12,0,0,1,8.55-6.93A26.38,26.38,0,0,1,82,161.82Z" transform="translate(-58.26 -49.71)"/><path d="M137.07,177.93a23.73,23.73,0,0,1,12.45,3.13,20.69,20.69,0,0,1,8,8.64,27.88,27.88,0,0,1,2.78,12.74v5.28H124.57a12.91,12.91,0,0,0,4.88,8,15.17,15.17,0,0,0,9.57,3,21.85,21.85,0,0,0,9.77-2.15,33.6,33.6,0,0,0,7-4.39l-.1,11.52a28.78,28.78,0,0,1-7,4.15,24.43,24.43,0,0,1-10.2,2.1,27.09,27.09,0,0,1-13.33-3.32,25.53,25.53,0,0,1-9.57-9.08,24.52,24.52,0,0,1-3.57-13.18,27.36,27.36,0,0,1,3.22-13.19,26.08,26.08,0,0,1,8.89-9.62A23.23,23.23,0,0,1,137.07,177.93Zm-.29,10.84a11.12,11.12,0,0,0-7.72,2.83,14.7,14.7,0,0,0-4.29,7.62H148.4c-.26-3.51-1.56-6.14-3.91-7.86A12.74,12.74,0,0,0,136.78,188.77Z" transform="translate(-58.26 -49.71)"/><path d="M184,179.2v7a25.49,25.49,0,0,1,6.11-5.66,15.28,15.28,0,0,1,8.84-2.64A17.11,17.11,0,0,1,211.58,183q5.08,5.09,5.08,15.23v30.28h-12.4l-.1-28.62q0-5-2.39-7.42a8.84,8.84,0,0,0-6.59-2.44,10.17,10.17,0,0,0-6.2,2.15,22.06,22.06,0,0,0-4.94,5.08v31.25h-12.4V179.2Z" transform="translate(-58.26 -49.71)"/><path d="M287.07,161.53a33.83,33.83,0,0,1,13.28,2.39,21,21,0,0,1,8.84,6.59,15.57,15.57,0,0,1,3.17,9.67,15.14,15.14,0,0,1-2.58,8.69,17.78,17.78,0,0,1-6.5,5.86,19.12,19.12,0,0,1,5.67,2.59,14.41,14.41,0,0,1,4.49,4.78,14.75,14.75,0,0,1,1.76,7.57,16.6,16.6,0,0,1-3.32,10A23.25,23.25,0,0,1,302.6,227a33,33,0,0,1-13.87,2.73c-2.86,0-6-.11-9.28-.34s-6.47-.56-9.47-1-5.53-.86-7.62-1.32V164a107.4,107.4,0,0,1,11.82-1.81Q280.53,161.53,287.07,161.53Zm0,12.4a57.14,57.14,0,0,0-11.13,1v15.82h12.21a11.76,11.76,0,0,0,7.86-2.44,7.81,7.81,0,0,0,2.88-6.25,6.64,6.64,0,0,0-3.47-6A15.81,15.81,0,0,0,287.07,173.93Zm-11.13,42.38a35.65,35.65,0,0,0,6.3.93c2.37.16,4.28.24,5.71.24a17.66,17.66,0,0,0,9.33-2.24,7.07,7.07,0,0,0,3.66-6.35,6.49,6.49,0,0,0-3.81-6.1,19.45,19.45,0,0,0-9.18-2h-12Z" transform="translate(-58.26 -49.71)"/><path d="M351,177.93a25.75,25.75,0,0,1,13.18,3.47,27.31,27.31,0,0,1,9.62,9.37A24.63,24.63,0,0,1,377.5,204a24.38,24.38,0,0,1-3.66,13.18,27.46,27.46,0,0,1-9.62,9.33,26.76,26.76,0,0,1-26.32,0,27,27,0,0,1-9.62-9.33A24.6,24.6,0,0,1,324.67,204a24.86,24.86,0,0,1,3.61-13.24,26.83,26.83,0,0,1,9.62-9.37A25.84,25.84,0,0,1,351,177.93Zm0,12a13.48,13.48,0,0,0-6.55,1.66,12.48,12.48,0,0,0-4.83,4.79,16.92,16.92,0,0,0,0,15.23,12,12,0,0,0,4.83,4.74,14.11,14.11,0,0,0,13.09,0,12.27,12.27,0,0,0,4.88-4.74,16.52,16.52,0,0,0,0-15.23,12.74,12.74,0,0,0-4.88-4.79A13.47,13.47,0,0,0,351,189.94Z" transform="translate(-58.26 -49.71)"/><path d="M401.62,158.21v70.31h-12.4V158.21Z" transform="translate(-58.26 -49.71)"/><path d="M463.63,158.21v70.31h-12.4v-8.3A19.8,19.8,0,0,1,445,227.1a16.21,16.21,0,0,1-9.57,2.88,21,21,0,0,1-11-3,21.78,21.78,0,0,1-8.06-8.79,33.68,33.68,0,0,1,.05-28,22.43,22.43,0,0,1,8.3-9,21.82,21.82,0,0,1,11.57-3.18,20.87,20.87,0,0,1,14.94,6.84V158.21Zm-24.8,31.93a11.2,11.2,0,0,0-6.69,2,13.71,13.71,0,0,0-4.35,5.18,15.37,15.37,0,0,0-1.56,6.88,14,14,0,0,0,3.37,9.47,11.22,11.22,0,0,0,8.94,3.91,11.72,11.72,0,0,0,6.2-1.76,13.41,13.41,0,0,0,4.69-4.93,15.3,15.3,0,0,0,1.8-7.67v-7a21.47,21.47,0,0,0-5.71-4.44A14.24,14.24,0,0,0,438.83,190.14Z" transform="translate(-58.26 -49.71)"/><path d="M553,163.09v5.56q-5.28,8.79-9.47,16.22a148.19,148.19,0,0,0-7.18,14.3,78.41,78.41,0,0,0-4.59,14,69.67,69.67,0,0,0-1.61,15.33H514.51a55.18,55.18,0,0,1,3.23-18.7,112.11,112.11,0,0,1,8.1-17.68q4.89-8.64,9.86-16.94H506.6V163.09Z" transform="translate(-58.26 -49.71)"/><path d="M584.92,161.62a21.31,21.31,0,0,1,14,4.64,27.94,27.94,0,0,1,8.4,12.4,54.23,54.23,0,0,1,0,34.28,27.88,27.88,0,0,1-8.4,12.4q-5.62,4.65-14,4.64t-14-4.64a27.88,27.88,0,0,1-8.4-12.4,54.23,54.23,0,0,1,0-34.28,27.94,27.94,0,0,1,8.4-12.4A21.27,21.27,0,0,1,584.92,161.62Zm0,11.82a8.22,8.22,0,0,0-6.49,3,19.1,19.1,0,0,0-3.86,8,51.58,51.58,0,0,0,0,22.75,18.76,18.76,0,0,0,3.86,8,8.66,8.66,0,0,0,13,0,19.27,19.27,0,0,0,3.9-8,49.67,49.67,0,0,0,0-22.75,19.62,19.62,0,0,0-3.9-8A8.24,8.24,0,0,0,584.92,173.44Z" transform="translate(-58.26 -49.71)"/><path d="M641.08,161.62a21.28,21.28,0,0,1,14,4.64,27.94,27.94,0,0,1,8.4,12.4,54.23,54.23,0,0,1,0,34.28,27.88,27.88,0,0,1-8.4,12.4q-5.61,4.65-14,4.64t-14-4.64a27.88,27.88,0,0,1-8.4-12.4,54.23,54.23,0,0,1,0-34.28,27.94,27.94,0,0,1,8.4-12.4A21.29,21.29,0,0,1,641.08,161.62Zm0,11.82a8.24,8.24,0,0,0-6.5,3,19.22,19.22,0,0,0-3.86,8,51.58,51.58,0,0,0,0,22.75,18.88,18.88,0,0,0,3.86,8,8.66,8.66,0,0,0,13,0,19.27,19.27,0,0,0,3.91-8,50,50,0,0,0,0-22.75,19.62,19.62,0,0,0-3.91-8A8.24,8.24,0,0,0,641.08,173.44Z" transform="translate(-58.26 -49.71)"/><path d="M83,270.12a46.62,46.62,0,0,1,11.38,1.42,28.15,28.15,0,0,1,9,3.76V293a84.65,84.65,0,0,0-8.3-4.24,23.74,23.74,0,0,0-9.67-1.81,14.39,14.39,0,0,0-5.56,1,3.32,3.32,0,0,0-2.35,3.22q0,2.44,2.83,3.66c1.89.82,4.2,1.74,6.94,2.78l7,2.64q7.13,2.73,10.11,7.42a17.41,17.41,0,0,1,3,9.38,18,18,0,0,1-3.61,11.08A24.57,24.57,0,0,1,94,335.7a33.18,33.18,0,0,1-13.77,2.78,34.44,34.44,0,0,1-11.63-2.05,41.48,41.48,0,0,1-10-5.08V313.68a46.52,46.52,0,0,0,10.1,5.76,28.25,28.25,0,0,0,10.89,2.25,15.35,15.35,0,0,0,5.52-.83,2.94,2.94,0,0,0,2.1-2.89,3.06,3.06,0,0,0-1.56-2.53,14.91,14.91,0,0,0-4.2-1.86l-9.28-2.93a20.87,20.87,0,0,1-8.5-4.78,16.57,16.57,0,0,1-4.19-6.79,25.37,25.37,0,0,1-1.18-7.67,19.07,19.07,0,0,1,3.52-11.67A22,22,0,0,1,71,272.56,30.13,30.13,0,0,1,83,270.12Z" transform="translate(-58.26 -49.71)"/><path d="M140.2,285.75a24.81,24.81,0,0,1,12.5,3.12,22.16,22.16,0,0,1,8.54,8.74,27.38,27.38,0,0,1,3.08,13.33v5.77H130.43a8.75,8.75,0,0,0,4.3,5.37,15.26,15.26,0,0,0,7.42,1.75,26.93,26.93,0,0,0,9.81-1.61,49.08,49.08,0,0,0,6.21-2.78v14.35a36.65,36.65,0,0,1-7,3.13,31.6,31.6,0,0,1-20.21-.2,28,28,0,0,1-8.84-5.07,24,24,0,0,1-6.15-8.06,24.62,24.62,0,0,1-2.25-10.69,27.18,27.18,0,0,1,12.94-23.44A25.26,25.26,0,0,1,140.2,285.75Zm-.49,13.87a9.25,9.25,0,0,0-5.57,1.7,9.79,9.79,0,0,0-3.42,5.23H148.4a5.78,5.78,0,0,0-2.69-5.23A11,11,0,0,0,139.71,299.62Z" transform="translate(-58.26 -49.71)"/><path d="M190.39,287.21v6.45a23.81,23.81,0,0,1,5.71-5.57,14.3,14.3,0,0,1,8.35-2.34,16.3,16.3,0,0,1,12.46,5.17q4.83,5.19,4.83,15.34V337h-16.8l-.09-28.13q0-3.7-2.06-5.22a7.51,7.51,0,0,0-4.59-1.52,7.38,7.38,0,0,0-4.59,1.42,15.17,15.17,0,0,0-3.22,3.37V337H173.6V287.21Z" transform="translate(-58.26 -49.71)"/><path d="M310.41,297.08v13.67h-26v10.64h29.39V337H266.17V271.59h47.66v15.13H284.44v10.36Z" transform="translate(-58.26 -49.71)"/><path d="M381.31,287.21,362.76,312l19.53,25H361.58L352.21,323,342.83,337h-20.7l19.53-25-18.55-24.81h19l10.06,14.16,10.06-14.16Z" transform="translate(-58.26 -49.71)"/><path d="M410.9,272.56v14.65H424V300.4H410.9v14a9.58,9.58,0,0,0,1.51,5.71,4.94,4.94,0,0,0,4.25,2.1,15.2,15.2,0,0,0,7.91-2.14v13.08a12.66,12.66,0,0,1-4.93,3.76,19,19,0,0,1-8.25,1.61,17.48,17.48,0,0,1-8.6-2.15,16.49,16.49,0,0,1-6.29-6.15,18.47,18.47,0,0,1-2.4-9.67V300.4h-8.4V290.14a22.65,22.65,0,0,0,9.43-5.52q4.64-4.25,6.79-12.06Z" transform="translate(-58.26 -49.71)"/><path d="M469.79,305.67a14.86,14.86,0,0,0-3.08-1.22A14.48,14.48,0,0,0,463,304a9.54,9.54,0,0,0-6.05,2.05,15.46,15.46,0,0,0-4.3,5.37V337H435.8V287.21h16.8v8.89a34.91,34.91,0,0,1,5.22-6.93,11.31,11.31,0,0,1,12-2.05Z" transform="translate(-58.26 -49.71)"/><path d="M497.62,285.75a18.31,18.31,0,0,1,7.66,1.71,19.07,19.07,0,0,1,6.21,4.34v-4.59h16.79V337H511.49v-8.3a17.66,17.66,0,0,1-5.67,6.93,14.94,14.94,0,0,1-9.18,2.83,20.48,20.48,0,0,1-10.45-2.83,20.93,20.93,0,0,1-8-8.74Q475.16,321,475.16,312a30.38,30.38,0,0,1,3.07-14.26,22.13,22.13,0,0,1,8.21-8.94A21.3,21.3,0,0,1,497.62,285.75Zm3.51,16.4a7.45,7.45,0,0,0-6,2.93,10.62,10.62,0,0,0-2.39,6.94,9.75,9.75,0,0,0,2.44,6.74,8.21,8.21,0,0,0,6.44,2.73,9.8,9.8,0,0,0,4.4-1.12,10.41,10.41,0,0,0,3.85-3.42,10,10,0,0,0,1.62-5.91v-4.78a20.48,20.48,0,0,0-4.84-2.93A13.53,13.53,0,0,0,501.13,302.15Z" transform="translate(-58.26 -49.71)"/><path d="M570.18,270a37.94,37.94,0,0,1,14.11,2.39,21.75,21.75,0,0,1,9.37,6.69,15.64,15.64,0,0,1,3.37,10,15.24,15.24,0,0,1-2.39,8.59,17.84,17.84,0,0,1-6.2,5.76,26.85,26.85,0,0,1,5.66,2.79,13.18,13.18,0,0,1,4.25,4.44,13.87,13.87,0,0,1,1.61,7.13,16.77,16.77,0,0,1-3.51,10.2,24.91,24.91,0,0,1-9.67,7.62,32.8,32.8,0,0,1-14.06,2.88c-3,0-6.35-.14-10.06-.44s-7.25-.66-10.6-1.12-6.07-.91-8.15-1.37v-63q6-1.17,12.6-1.85A132.12,132.12,0,0,1,570.18,270Zm.68,16.5a42.64,42.64,0,0,0-8.69.78v11.23h9.18a9.36,9.36,0,0,0,5.47-1.56,5.24,5.24,0,0,0,2.24-4.59,5,5,0,0,0-2.29-4.25A10.09,10.09,0,0,0,570.86,286.53Zm-8.69,34.67a21.53,21.53,0,0,0,4.88.92c1.89.17,3.35.25,4.4.25a12.06,12.06,0,0,0,6.49-1.56,5.08,5.08,0,0,0,2.49-4.59,4.31,4.31,0,0,0-2.83-4.2,16.61,16.61,0,0,0-6.84-1.27h-8.59Z" transform="translate(-58.26 -49.71)"/><path d="M634.63,285.75a26.92,26.92,0,0,1,10.06,1.95,29.49,29.49,0,0,1,8.79,5.47,26.32,26.32,0,0,1,6.2,8.35,25.65,25.65,0,0,1,0,21.19,26.32,26.32,0,0,1-6.2,8.35,29.49,29.49,0,0,1-8.79,5.47,26.92,26.92,0,0,1-20.12,0,29.49,29.49,0,0,1-8.79-5.47,26.32,26.32,0,0,1-6.2-8.35,25.65,25.65,0,0,1,0-21.19,26.32,26.32,0,0,1,6.2-8.35,29.49,29.49,0,0,1,8.79-5.47A26.92,26.92,0,0,1,634.63,285.75Zm0,16.11a11.93,11.93,0,0,0-4,.78,7.82,7.82,0,0,0-3.76,3c-1,1.47-1.57,3.63-1.57,6.5a11.14,11.14,0,0,0,1.57,6.44,7.71,7.71,0,0,0,3.76,3,11.93,11.93,0,0,0,4,.78,11.74,11.74,0,0,0,4-.78,7.8,7.8,0,0,0,3.72-3,11.22,11.22,0,0,0,1.56-6.44c0-2.87-.52-5-1.56-6.5a7.92,7.92,0,0,0-3.72-3A11.74,11.74,0,0,0,634.63,301.86Z" transform="translate(-58.26 -49.71)"/><path d="M689,266.71V337h-16.8V266.71Z" transform="translate(-58.26 -49.71)"/><path d="M752.4,266.71V337H735.61v-8.3a17.66,17.66,0,0,1-5.67,6.93,14.94,14.94,0,0,1-9.18,2.83,20.48,20.48,0,0,1-10.45-2.83,20.91,20.91,0,0,1-7.95-8.74Q699.27,321,699.28,312a30.26,30.26,0,0,1,3.08-14.26,22.11,22.11,0,0,1,8.2-8.94,21.33,21.33,0,0,1,11.18-3.07,18.39,18.39,0,0,1,7.67,1.71,19.13,19.13,0,0,1,6.2,4.34V266.71Zm-27.14,35.44a7.45,7.45,0,0,0-6,2.93,10.62,10.62,0,0,0-2.39,6.94,9.75,9.75,0,0,0,2.44,6.74,8.22,8.22,0,0,0,6.44,2.73,9.77,9.77,0,0,0,4.4-1.12A10.43,10.43,0,0,0,734,317a10.09,10.09,0,0,0,1.61-5.91v-4.78a20.48,20.48,0,0,0-4.84-2.93A13.52,13.52,0,0,0,725.26,302.15Z" transform="translate(-58.26 -49.71)"/><path d="M817.83,270.12a26.65,26.65,0,0,1,10.84,2.15,18.62,18.62,0,0,1,7.82,6.25,16.73,16.73,0,0,1,2.93,10q0,5.67-2.64,9.08a16.65,16.65,0,0,1-5.86,5,14.76,14.76,0,0,1,5,3,17,17,0,0,1,3.91,5.08,14.69,14.69,0,0,1,1.51,6.69,19.71,19.71,0,0,1-3.17,11.13,21.38,21.38,0,0,1-8.55,7.43,26.55,26.55,0,0,1-11.82,2.63,26.2,26.2,0,0,1-11.76-2.63,21.78,21.78,0,0,1-8.55-7.43,19.44,19.44,0,0,1-3.22-11.13,14.57,14.57,0,0,1,1.51-6.69,16.51,16.51,0,0,1,4-5.08,15.36,15.36,0,0,1,5-3,16.65,16.65,0,0,1-5.86-5q-2.64-3.4-2.64-9.08a16.73,16.73,0,0,1,2.93-10,18.59,18.59,0,0,1,7.81-6.25A26.69,26.69,0,0,1,817.83,270.12Zm0,39.36a6.09,6.09,0,0,0-4.63,1.9,7.42,7.42,0,0,0-1.81,5.33,7,7,0,0,0,1.81,5.22,6.84,6.84,0,0,0,9.27,0,7,7,0,0,0,1.81-5.22,7.42,7.42,0,0,0-1.81-5.33A6.1,6.1,0,0,0,817.83,309.48Zm0-24.61a5.66,5.66,0,0,0-4.15,1.71,6.53,6.53,0,0,0-1.71,4.83,7.28,7.28,0,0,0,1.71,5,5.31,5.31,0,0,0,4.15,2,5.24,5.24,0,0,0,4.2-2,7.4,7.4,0,0,0,1.66-5,6.63,6.63,0,0,0-1.66-4.83A5.58,5.58,0,0,0,817.83,284.87Z" transform="translate(-58.26 -49.71)"/><path d="M876.43,270.12a23,23,0,0,1,14.11,4.25,25.85,25.85,0,0,1,8.64,11.92,56.85,56.85,0,0,1,0,36,25.87,25.87,0,0,1-8.64,11.91q-5.71,4.26-14.11,4.25t-14.11-4.25a26,26,0,0,1-8.65-11.91,56.85,56.85,0,0,1,0-36,25.93,25.93,0,0,1,8.65-11.92A23,23,0,0,1,876.43,270.12Zm0,15.14q-3.61,0-5.28,4.74t-1.66,14.3q0,9.48,1.66,14.26t5.28,4.79c2.47,0,4.25-1.6,5.32-4.79s1.61-7.94,1.61-14.26-.54-11.15-1.61-14.3S878.9,285.26,876.43,285.26Z" transform="translate(-58.26 -49.71)"/><path d="M935,270.12a23,23,0,0,1,14.11,4.25,25.93,25.93,0,0,1,8.65,11.92,56.85,56.85,0,0,1,0,36,26,26,0,0,1-8.65,11.91q-5.71,4.26-14.11,4.25t-14.11-4.25a25.87,25.87,0,0,1-8.64-11.91,56.85,56.85,0,0,1,0-36,25.85,25.85,0,0,1,8.64-11.92A23,23,0,0,1,935,270.12Zm0,15.14q-3.62,0-5.27,4.74t-1.66,14.3q0,9.48,1.66,14.26t5.27,4.79q3.72,0,5.32-4.79T942,304.3q0-9.57-1.62-14.3T935,285.26Z" transform="translate(-58.26 -49.71)"/></svg>